<?xml version="1.0" encoding="UTF-8" standalone="no"?>
<svg
   xmlns:dc="http://purl.org/dc/elements/1.1/"
   xmlns:cc="http://creativecommons.org/ns#"
   xmlns:rdf="http://www.w3.org/1999/02/22-rdf-syntax-ns#"
   xmlns:svg="http://www.w3.org/2000/svg"
   xmlns="http://www.w3.org/2000/svg"
   xmlns:sodipodi="http://sodipodi.sourceforge.net/DTD/sodipodi-0.dtd"
   xmlns:inkscape="http://www.inkscape.org/namespaces/inkscape"
   viewBox="0 -256 1792 1536"
   id="svg3025"
   version="1.1"
   inkscape:version="0.92.3 (2405546, 2018-03-11)"
   width="1792"
   height="1536"
   sodipodi:docname="ext-link.svg"
   data-lt-installed="true">
  <metadata
     id="metadata3035">
    <rdf:RDF>
      <cc:Work
         rdf:about="">
        <dc:format>image/svg+xml</dc:format>
        <dc:type
           rdf:resource="http://purl.org/dc/dcmitype/StillImage" />
        <dc:title></dc:title>
      </cc:Work>
    </rdf:RDF>
  </metadata>
  <defs
     id="defs3033" />
  <sodipodi:namedview
     pagecolor="#ffffff"
     bordercolor="#666666"
     borderopacity="1"
     objecttolerance="10"
     gridtolerance="10"
     guidetolerance="10"
     inkscape:pageopacity="0"
     inkscape:pageshadow="2"
     inkscape:window-width="1920"
     inkscape:window-height="1053"
     id="namedview3031"
     showgrid="false"
     inkscape:zoom="0.37249375"
     inkscape:cx="1588.4657"
     inkscape:cy="2243.8403"
     inkscape:window-x="0"
     inkscape:window-y="0"
     inkscape:window-maximized="1"
     inkscape:current-layer="g3027"
     fit-margin-top="0"
     fit-margin-left="0"
     fit-margin-right="0"
     fit-margin-bottom="0" />
  <g
     transform="matrix(1,0,0,-1,0,1280)"
     id="g3027">
    <path
       d="m 1015.5052,2431.1684 v -40 c 0,-9.9167 -3.5209,-18.3959 -10.5625,-25.4375 -7.04172,-7.0417 -15.52092,-10.5625 -25.43752,-10.5625 h -104 c -9.9167,0 -18.3959,3.5208 -25.4375,10.5625 -7.0417,7.0416 -10.5625,15.5208 -10.5625,25.4375 v 104 c 0,9.9166 3.5208,18.3958 10.5625,25.4375 7.0416,7.0416 15.5208,10.5625 25.4375,10.5625 h 88 c 1.1666,0 2.125,-0.375 2.875,-1.125 0.75,-0.75 1.125,-1.7084 1.125,-2.875 v -8 c 0,-1.1667 -0.375,-2.125 -1.125,-2.875 -0.75,-0.75 -1.7084,-1.125 -2.875,-1.125 h -88 c -5.5,0 -10.2084,-1.9584 -14.125,-5.875 -3.9167,-3.9167 -5.875,-8.625 -5.875,-14.125 v -104 c 0,-5.5 1.9583,-10.2084 5.875,-14.125 3.9166,-3.9167 8.625,-5.875 14.125,-5.875 h 104 c 5.5,0 10.2083,1.9583 14.125,5.875 3.9166,3.9166 5.875,8.625 5.875,14.125 v 40 c 0,1.1666 0.375,2.125 1.12502,2.875 0.75,0.75 1.7083,1.125 2.875,1.125 h 8 c 1.1666,0 2.125,-0.375 2.875,-1.125 0.75,-0.75 1.125,-1.7084 1.125,-2.875 z m 48,108 v -64 c 0,-2.1667 -0.7917,-4.0417 -2.375,-5.625 -1.5834,-1.5834 -3.4584,-2.375 -5.625,-2.375 -2.1667,0 -5.462,0.1417 -5.625,2.375 -1.1042,15.1197 -8.76,24.792 -17,27 -35.61642,-16.0765 -65.09182,-51.7754 -86.50002,-86.5 -0.6185,-1.0032 -1.7917,-1.25 -2.875,-1.25 -1.0834,0 -2.0417,0.4166 -2.875,1.25 l -14.25,14.25 c -0.8334,0.8333 -1.25,1.7916 -1.25,2.875 0,1.0833 0.2603,2.235 1.25,2.875 35.1524,22.7301 67.4549,52.3213 86.50002,84 -1.926,15.7518 -16.62692,15.2985 -27.00002,19.5 -2.0754,0.8406 -2.375,3.4583 -2.375,5.625 0,2.1666 0.7916,4.0416 2.375,5.625 1.5833,1.5833 3.4583,2.375 5.625,2.375 h 64.00002 c 2.1666,0 4.0416,-0.7917 5.625,-2.375 1.5833,-1.5834 2.375,-3.4584 2.375,-5.625 z"
       id="path3029"
       inkscape:connector-curvature="0"
       style="opacity:1;vector-effect:none;fill:#dc863b;fill-opacity:1;stroke:none;stroke-width:16.1926651;stroke-linecap:butt;stroke-linejoin:miter;stroke-miterlimit:4.1215024;stroke-dasharray:none;stroke-dashoffset:0;stroke-opacity:1;marker:none;marker-start:none;marker-mid:none;marker-end:none;font-variant-east_asian:normal"
       sodipodi:nodetypes="sssssssssssssssssssssssssssssssssssscsssssscsssssss" />
    <circle
       r="73.919342"
       cy="252.15056"
       cx="-2874.2864"
       id="circle2166-7-52"
       style="color:#000000;clip-rule:nonzero;display:inline;overflow:visible;visibility:visible;opacity:1;isolation:auto;mix-blend-mode:normal;color-interpolation:sRGB;color-interpolation-filters:linearRGB;solid-color:#000000;solid-opacity:1;vector-effect:none;fill:#2e7891;fill-opacity:1;fill-rule:nonzero;stroke:none;stroke-width:16.1926651;stroke-linecap:butt;stroke-linejoin:miter;stroke-miterlimit:4.1215024;stroke-dasharray:none;stroke-dashoffset:0;stroke-opacity:1;marker:none;marker-start:none;marker-mid:none;marker-end:none;color-rendering:auto;image-rendering:auto;shape-rendering:auto;text-rendering:auto;enable-background:accumulate"
       transform="rotate(-94.092877)" />
    <circle
       transform="rotate(-94.092877)"
       style="color:#000000;clip-rule:nonzero;display:inline;overflow:visible;visibility:visible;opacity:1;isolation:auto;mix-blend-mode:normal;color-interpolation:sRGB;color-interpolation-filters:linearRGB;solid-color:#000000;solid-opacity:1;vector-effect:none;fill:#dc863b;fill-opacity:1;fill-rule:nonzero;stroke:none;stroke-width:16.1926651;stroke-linecap:butt;stroke-linejoin:miter;stroke-miterlimit:4.1215024;stroke-dasharray:none;stroke-dashoffset:0;stroke-opacity:1;marker:none;marker-start:none;marker-mid:none;marker-end:none;color-rendering:auto;image-rendering:auto;shape-rendering:auto;text-rendering:auto;enable-background:accumulate"
       id="circle2106-9-7"
       cx="-2921.1284"
       cy="699.55713"
       r="73.919342" />
    <circle
       r="73.919342"
       cy="1266.0348"
       cx="-2961.6636"
       id="circle1493-9"
       style="color:#000000;clip-rule:nonzero;display:inline;overflow:visible;visibility:visible;opacity:1;isolation:auto;mix-blend-mode:normal;color-interpolation:sRGB;color-interpolation-filters:linearRGB;solid-color:#000000;solid-opacity:1;vector-effect:none;fill:#c8a734;fill-opacity:1;fill-rule:nonzero;stroke:none;stroke-width:16.1926651;stroke-linecap:butt;stroke-linejoin:miter;stroke-miterlimit:4.1215024;stroke-dasharray:none;stroke-dashoffset:0;stroke-opacity:1;marker:none;marker-start:none;marker-mid:none;marker-end:none;color-rendering:auto;image-rendering:auto;shape-rendering:auto;text-rendering:auto;enable-background:accumulate"
       transform="rotate(-94.092877)" />
    <circle
       transform="rotate(-94.092877)"
       style="color:#000000;clip-rule:nonzero;display:inline;overflow:visible;visibility:visible;opacity:1;isolation:auto;mix-blend-mode:normal;color-interpolation:sRGB;color-interpolation-filters:linearRGB;solid-color:#000000;solid-opacity:1;vector-effect:none;fill:#8a9da4;fill-opacity:1;fill-rule:nonzero;stroke:none;stroke-width:12.42339134;stroke-linecap:butt;stroke-linejoin:miter;stroke-miterlimit:4.1215024;stroke-dasharray:none;stroke-dashoffset:0;stroke-opacity:1;marker:none;marker-start:none;marker-mid:none;marker-end:none;color-rendering:auto;image-rendering:auto;shape-rendering:auto;text-rendering:auto;enable-background:accumulate"
       id="circle2110-4-6"
       cx="-2948.0144"
       cy="1655.4938"
       r="71.444847" />
    <circle
       r="71.444847"
       cy="2500.7773"
       cx="-3070.7751"
       id="circle2170-3-0"
       style="color:#000000;clip-rule:nonzero;display:inline;overflow:visible;visibility:visible;opacity:1;isolation:auto;mix-blend-mode:normal;color-interpolation:sRGB;color-interpolation-filters:linearRGB;solid-color:#000000;solid-opacity:1;vector-effect:none;fill:#c93312;fill-opacity:1;fill-rule:nonzero;stroke:none;stroke-width:12.42339134;stroke-linecap:butt;stroke-linejoin:miter;stroke-miterlimit:4.1215024;stroke-dasharray:none;stroke-dashoffset:0;stroke-opacity:1;marker:none;marker-start:none;marker-mid:none;marker-end:none;color-rendering:auto;image-rendering:auto;shape-rendering:auto;text-rendering:auto;enable-background:accumulate"
       transform="rotate(-94.092877)" />
    <circle
       transform="rotate(-94.092877)"
       style="color:#000000;clip-rule:nonzero;display:inline;overflow:visible;visibility:visible;opacity:1;isolation:auto;mix-blend-mode:normal;color-interpolation:sRGB;color-interpolation-filters:linearRGB;solid-color:#000000;solid-opacity:1;vector-effect:none;fill:#aa4c26;fill-opacity:1;fill-rule:nonzero;stroke:none;stroke-width:16.1926651;stroke-linecap:butt;stroke-linejoin:miter;stroke-miterlimit:4.1215024;stroke-dasharray:none;stroke-dashoffset:0;stroke-opacity:1;marker:none;marker-start:none;marker-mid:none;marker-end:none;color-rendering:auto;image-rendering:auto;shape-rendering:auto;text-rendering:auto;enable-background:accumulate"
       id="circle2188-8-0"
       cx="-3024.9939"
       cy="2109.6399"
       r="73.919342" />
    <path
       sodipodi:nodetypes="sssssssssssssssssssssssssssssssssssscsssssscsssssss"
       style="opacity:1;vector-effect:none;fill:#2e7891;fill-opacity:1;stroke:none;stroke-width:2.02408314;stroke-linecap:butt;stroke-linejoin:miter;stroke-miterlimit:4.1215024;stroke-dasharray:none;stroke-dashoffset:0;stroke-opacity:1;marker:none;marker-start:none;marker-mid:none;marker-end:none"
       inkscape:connector-curvature="0"
       id="path4574"
       d="m 551.28247,2463.8442 v -40 c 0,-9.9166 -3.5209,-18.3958 -10.5625,-25.4375 -7.0417,-7.0416 -15.5209,-10.5625 -25.4375,-10.5625 h -104 c -9.9167,0 -18.3959,3.5209 -25.4375,10.5625 -7.0417,7.0417 -10.5625,15.5209 -10.5625,25.4375 v 104 c 0,9.9167 3.5208,18.3959 10.5625,25.4375 7.0416,7.0417 15.5208,10.5625 25.4375,10.5625 h 88 c 1.1666,0 2.125,-0.375 2.875,-1.125 0.75,-0.75 1.125,-1.7083 1.125,-2.875 v -8 c 0,-1.1666 -0.375,-2.125 -1.125,-2.875 -0.75,-0.75 -1.7084,-1.125 -2.875,-1.125 h -88 c -5.5,0 -10.2084,-1.9583 -14.125,-5.875 -3.9167,-3.9166 -5.875,-8.625 -5.875,-14.125 v -104 c 0,-5.5 1.9583,-10.2083 5.875,-14.125 3.9166,-3.9166 8.625,-5.875 14.125,-5.875 h 104 c 5.5,0 10.2083,1.9584 14.125,5.875 3.9166,3.9167 5.875,8.625 5.875,14.125 v 40 c 0,1.1667 0.375,2.125 1.125,2.875 0.75,0.75 1.7083,1.125 2.875,1.125 h 8 c 1.1666,0 2.125,-0.375 2.875,-1.125 0.75,-0.75 1.125,-1.7083 1.125,-2.875 z m 48,108 v -64 c 0,-2.1666 -0.7917,-4.0416 -2.375,-5.625 -1.5834,-1.5833 -3.4584,-2.375 -5.625,-2.375 -2.1667,0 -5.462,0.1418 -5.625,2.375 -1.1042,15.1198 -8.76,24.7921 -17,27 -35.6164,-16.0764 -65.0918,-51.7754 -86.5,-86.5 -0.6185,-1.0031 -1.7917,-1.25 -2.875,-1.25 -1.0834,0 -2.0417,0.4167 -2.875,1.25 l -14.25,14.25 c -0.8334,0.8334 -1.25,1.7917 -1.25,2.875 0,1.0834 0.2603,2.2351 1.25,2.875 35.1524,22.7302 67.4549,52.3214 86.5,84 -1.9261,15.7518 -16.6269,15.2986 -27,19.5 -2.0754,0.8406 -2.375,3.4584 -2.375,5.625 0,2.1667 0.7916,4.0417 2.375,5.625 1.5833,1.5834 3.4583,2.375 5.625,2.375 h 64 c 2.1666,0 4.0416,-0.7916 5.625,-2.375 1.5833,-1.5833 2.375,-3.4583 2.375,-5.625 z" />
    <path
       d="m 1438.5197,2422.994 v -40 c 0,-9.9167 -3.5209,-18.3959 -10.5625,-25.4375 -7.0417,-7.0417 -15.5209,-10.5625 -25.4375,-10.5625 h -104 c -9.9167,0 -18.3959,3.5208 -25.4375,10.5625 -7.0417,7.0416 -10.5625,15.5208 -10.5625,25.4375 v 104 c 0,9.9166 3.5208,18.3958 10.5625,25.4375 7.0416,7.0416 15.5208,10.5625 25.4375,10.5625 h 88 c 1.1666,0 2.125,-0.375 2.875,-1.125 0.75,-0.75 1.125,-1.7084 1.125,-2.875 v -8 c 0,-1.1667 -0.375,-2.125 -1.125,-2.875 -0.75,-0.75 -1.7084,-1.125 -2.875,-1.125 h -88 c -5.5,0 -10.2084,-1.9584 -14.125,-5.875 -3.9167,-3.9167 -5.875,-8.625 -5.875,-14.125 v -104 c 0,-5.5 1.9583,-10.2084 5.875,-14.125 3.9166,-3.9167 8.625,-5.875 14.125,-5.875 h 104 c 5.5,0 10.2083,1.9583 14.125,5.875 3.9166,3.9166 5.875,8.625 5.875,14.125 v 40 c 0,1.1666 0.375,2.125 1.125,2.875 0.75,0.75 1.7083,1.125 2.875,1.125 h 8 c 1.1666,0 2.125,-0.375 2.875,-1.125 0.75,-0.75 1.125,-1.7084 1.125,-2.875 z m 48,108 v -64 c 0,-2.1667 -0.7917,-4.0417 -2.375,-5.625 -1.5834,-1.5834 -3.4584,-2.375 -5.625,-2.375 -2.1667,0 -5.462,0.1417 -5.625,2.375 -1.1042,15.1197 -8.76,24.792 -17,27 -35.6164,-16.0765 -65.0918,-51.7754 -86.5,-86.5 -0.6185,-1.0032 -1.7917,-1.25 -2.875,-1.25 -1.0834,0 -2.0417,0.4166 -2.875,1.25 l -14.25,14.25 c -0.8334,0.8333 -1.25,1.7916 -1.25,2.875 0,1.0833 0.2603,2.235 1.25,2.875 35.1524,22.7301 67.4549,52.3213 86.5,84 -1.926,15.7518 -16.6269,15.2985 -27,19.5 -2.0754,0.8406 -2.375,3.4583 -2.375,5.625 0,2.1666 0.7916,4.0416 2.375,5.625 1.5833,1.5833 3.4583,2.375 5.625,2.375 h 64 c 2.1666,0 4.0416,-0.7917 5.625,-2.375 1.5833,-1.5834 2.375,-3.4584 2.375,-5.625 z"
       id="path3029-6"
       inkscape:connector-curvature="0"
       style="opacity:1;vector-effect:none;fill:#c8a734;fill-opacity:1;stroke:none;stroke-width:16.1926651;stroke-linecap:butt;stroke-linejoin:miter;stroke-miterlimit:4.1215024;stroke-dasharray:none;stroke-dashoffset:0;stroke-opacity:1;marker:none;marker-start:none;marker-mid:none;marker-end:none;font-variant-east_asian:normal"
       sodipodi:nodetypes="sssssssssssssssssssssssssssssssssssscsssssscsssssss" />
    <path
       d="m 1889.534,2447.1555 v -40 c 0,-9.9167 -3.5209,-18.3959 -10.5625,-25.4375 -7.0417,-7.0417 -15.5209,-10.5625 -25.4375,-10.5625 h -104 c -9.9167,0 -18.3959,3.5208 -25.4375,10.5625 -7.0417,7.0416 -10.5625,15.5208 -10.5625,25.4375 v 104 c 0,9.9166 3.5208,18.3958 10.5625,25.4375 7.0416,7.0416 15.5208,10.5625 25.4375,10.5625 h 88 c 1.1666,0 2.125,-0.375 2.875,-1.125 0.75,-0.75 1.125,-1.7084 1.125,-2.875 v -8 c 0,-1.1667 -0.375,-2.125 -1.125,-2.875 -0.75,-0.75 -1.7084,-1.125 -2.875,-1.125 h -88 c -5.5,0 -10.2084,-1.9584 -14.125,-5.875 -3.9167,-3.9167 -5.875,-8.625 -5.875,-14.125 v -104 c 0,-5.5 1.9583,-10.2084 5.875,-14.125 3.9166,-3.9167 8.625,-5.875 14.125,-5.875 h 104 c 5.5,0 10.2083,1.9583 14.125,5.875 3.9166,3.9166 5.875,8.625 5.875,14.125 v 40 c 0,1.1666 0.375,2.125 1.125,2.875 0.75,0.75 1.7083,1.125 2.875,1.125 h 8 c 1.1666,0 2.125,-0.375 2.875,-1.125 0.75,-0.75 1.125,-1.7084 1.125,-2.875 z m 48,108 v -64 c 0,-2.1667 -0.7917,-4.0417 -2.375,-5.625 -1.5834,-1.5834 -3.4584,-2.375 -5.625,-2.375 -2.1667,0 -5.462,0.1417 -5.625,2.375 -1.1042,15.1197 -8.76,24.792 -17,27 -35.6164,-16.0765 -65.0918,-51.7754 -86.5,-86.5 -0.6185,-1.0032 -1.7917,-1.25 -2.875,-1.25 -1.0834,0 -2.0417,0.4166 -2.875,1.25 l -14.25,14.25 c -0.8334,0.8333 -1.25,1.7916 -1.25,2.875 0,1.0833 0.2603,2.235 1.25,2.875 35.1524,22.7301 67.4549,52.3213 86.5,84 -1.926,15.7518 -16.6269,15.2985 -27,19.5 -2.0754,0.8406 -2.375,3.4583 -2.375,5.625 0,2.1666 0.7916,4.0416 2.375,5.625 1.5833,1.5833 3.4583,2.375 5.625,2.375 h 64 c 2.1666,0 4.0416,-0.7917 5.625,-2.375 1.5833,-1.5834 2.375,-3.4584 2.375,-5.625 z"
       id="path3029-7"
       inkscape:connector-curvature="0"
       style="opacity:1;vector-effect:none;fill:#8a9da4;fill-opacity:1;stroke:none;stroke-width:12.42339134;stroke-linecap:butt;stroke-linejoin:miter;stroke-miterlimit:4.1215024;stroke-dasharray:none;stroke-dashoffset:0;stroke-opacity:1;marker:none;marker-start:none;marker-mid:none;marker-end:none;font-variant-east_asian:normal"
       sodipodi:nodetypes="sssssssssssssssssssssssssssssssssssscsssssscsssssss" />
    <path
       d="m 2402.2942,2428.3632 v -40 c 0,-9.9167 -3.5209,-18.3959 -10.5625,-25.4375 -7.0417,-7.0417 -15.5209,-10.5625 -25.4375,-10.5625 h -104 c -9.9167,0 -18.3959,3.5208 -25.4375,10.5625 -7.0417,7.0416 -10.5625,15.5208 -10.5625,25.4375 v 104 c 0,9.9166 3.5208,18.3958 10.5625,25.4375 7.0416,7.0416 15.5208,10.5625 25.4375,10.5625 h 88 c 1.1666,0 2.125,-0.375 2.875,-1.125 0.75,-0.75 1.125,-1.7084 1.125,-2.875 v -8 c 0,-1.1667 -0.375,-2.125 -1.125,-2.875 -0.75,-0.75 -1.7084,-1.125 -2.875,-1.125 h -88 c -5.5,0 -10.2084,-1.9584 -14.125,-5.875 -3.9167,-3.9167 -5.875,-8.625 -5.875,-14.125 v -104 c 0,-5.5 1.9583,-10.2084 5.875,-14.125 3.9166,-3.9167 8.625,-5.875 14.125,-5.875 h 104 c 5.5,0 10.2083,1.9583 14.125,5.875 3.9166,3.9166 5.875,8.625 5.875,14.125 v 40 c 0,1.1666 0.375,2.125 1.125,2.875 0.75,0.75 1.7083,1.125 2.875,1.125 h 8 c 1.1666,0 2.125,-0.375 2.875,-1.125 0.75,-0.75 1.125,-1.7084 1.125,-2.875 z m 48,108 v -64 c 0,-2.1667 -0.7917,-4.0417 -2.375,-5.625 -1.5834,-1.5834 -3.4584,-2.375 -5.625,-2.375 -2.1667,0 -5.462,0.1417 -5.625,2.375 -1.1042,15.1197 -8.76,24.792 -17,27 -35.6164,-16.0765 -65.0918,-51.7754 -86.5,-86.5 -0.6185,-1.0032 -1.7917,-1.25 -2.875,-1.25 -1.0834,0 -2.0417,0.4166 -2.875,1.25 l -14.25,14.25 c -0.8334,0.8333 -1.25,1.7916 -1.25,2.875 0,1.0833 0.2603,2.235 1.25,2.875 35.1524,22.7301 67.4549,52.3213 86.5,84 -1.926,15.7518 -16.6269,15.2985 -27,19.5 -2.0754,0.8406 -2.375,3.4583 -2.375,5.625 0,2.1666 0.7916,4.0416 2.375,5.625 1.5833,1.5833 3.4583,2.375 5.625,2.375 h 64 c 2.1666,0 4.0416,-0.7917 5.625,-2.375 1.5833,-1.5834 2.375,-3.4584 2.375,-5.625 z"
       id="path3029-5"
       inkscape:connector-curvature="0"
       style="opacity:1;vector-effect:none;fill:#aa4c26;fill-opacity:1;stroke:none;stroke-width:16.1926651;stroke-linecap:butt;stroke-linejoin:miter;stroke-miterlimit:4.1215024;stroke-dasharray:none;stroke-dashoffset:0;stroke-opacity:1;marker:none;marker-start:none;marker-mid:none;marker-end:none;font-variant-east_asian:normal"
       sodipodi:nodetypes="sssssssssssssssssssssssssssssssssssscsssssscsssssss" />
    <path
       d="m 2850.6239,2431.0478 v -40 c 0,-9.9167 -3.5209,-18.3959 -10.5625,-25.4375 -7.0417,-7.0417 -15.5209,-10.5625 -25.4375,-10.5625 h -104 c -9.9167,0 -18.3959,3.5208 -25.4375,10.5625 -7.0417,7.0416 -10.5625,15.5208 -10.5625,25.4375 v 104 c 0,9.9166 3.5208,18.3958 10.5625,25.4375 7.0416,7.0416 15.5208,10.5625 25.4375,10.5625 h 88 c 1.1666,0 2.125,-0.375 2.875,-1.125 0.75,-0.75 1.125,-1.7084 1.125,-2.875 v -8 c 0,-1.1667 -0.375,-2.125 -1.125,-2.875 -0.75,-0.75 -1.7084,-1.125 -2.875,-1.125 h -88 c -5.5,0 -10.2084,-1.9584 -14.125,-5.875 -3.9167,-3.9167 -5.875,-8.625 -5.875,-14.125 v -104 c 0,-5.5 1.9583,-10.2084 5.875,-14.125 3.9166,-3.9167 8.625,-5.875 14.125,-5.875 h 104 c 5.5,0 10.2083,1.9583 14.125,5.875 3.9166,3.9166 5.875,8.625 5.875,14.125 v 40 c 0,1.1666 0.375,2.125 1.125,2.875 0.75,0.75 1.7083,1.125 2.875,1.125 h 8 c 1.1666,0 2.125,-0.375 2.875,-1.125 0.75,-0.75 1.125,-1.7084 1.125,-2.875 z m 48,108 v -64 c 0,-2.1667 -0.7917,-4.0417 -2.375,-5.625 -1.5834,-1.5834 -3.4584,-2.375 -5.625,-2.375 -2.1667,0 -5.462,0.1417 -5.625,2.375 -1.1042,15.1197 -8.76,24.792 -17,27 -35.6164,-16.0765 -65.0918,-51.7754 -86.5,-86.5 -0.6185,-1.0032 -1.7917,-1.25 -2.875,-1.25 -1.0834,0 -2.0417,0.4166 -2.875,1.25 l -14.25,14.25 c -0.8334,0.8333 -1.25,1.7916 -1.25,2.875 0,1.0833 0.2603,2.235 1.25,2.875 35.1524,22.7301 67.4549,52.3213 86.5,84 -1.926,15.7518 -16.6269,15.2985 -27,19.5 -2.0754,0.8406 -2.375,3.4583 -2.375,5.625 0,2.1666 0.7916,4.0416 2.375,5.625 1.5833,1.5833 3.4583,2.375 5.625,2.375 h 64 c 2.1666,0 4.0416,-0.7917 5.625,-2.375 1.5833,-1.5834 2.375,-3.4584 2.375,-5.625 z"
       id="path3029-3"
       inkscape:connector-curvature="0"
       style="opacity:1;vector-effect:none;fill:#c93312;fill-opacity:1;stroke:none;stroke-width:12.42339134;stroke-linecap:butt;stroke-linejoin:miter;stroke-miterlimit:4.1215024;stroke-dasharray:none;stroke-dashoffset:0;stroke-opacity:1;marker:none;marker-start:none;marker-mid:none;marker-end:none"
       sodipodi:nodetypes="sssssssssssssssssssssssssssssssssssscsssssscsssssss" />
  </g>
</svg>
