<?xml version="1.0" encoding="UTF-8" standalone="no"?>
<svg
   xmlns:dc="http://purl.org/dc/elements/1.1/"
   xmlns:cc="http://creativecommons.org/ns#"
   xmlns:rdf="http://www.w3.org/1999/02/22-rdf-syntax-ns#"
   xmlns:svg="http://www.w3.org/2000/svg"
   xmlns="http://www.w3.org/2000/svg"
   xmlns:sodipodi="http://sodipodi.sourceforge.net/DTD/sodipodi-0.dtd"
   xmlns:inkscape="http://www.inkscape.org/namespaces/inkscape"
   viewBox="0 -256 224.00002 192"
   id="svg3025"
   version="1.1"
   inkscape:version="0.92.3 (2405546, 2018-03-11)"
   width="224.00002"
   height="192"
   sodipodi:docname="ext-link-orange.svg"
   data-lt-installed="true">
  <metadata
     id="metadata3035">
    <rdf:RDF>
      <cc:Work
         rdf:about="">
        <dc:format>image/svg+xml</dc:format>
        <dc:type
           rdf:resource="http://purl.org/dc/dcmitype/StillImage" />
        <dc:title></dc:title>
      </cc:Work>
    </rdf:RDF>
  </metadata>
  <defs
     id="defs3033" />
  <sodipodi:namedview
     pagecolor="#ffffff"
     bordercolor="#666666"
     borderopacity="1"
     objecttolerance="10"
     gridtolerance="10"
     guidetolerance="10"
     inkscape:pageopacity="0"
     inkscape:pageshadow="2"
     inkscape:window-width="1920"
     inkscape:window-height="1053"
     id="namedview3031"
     showgrid="false"
     inkscape:zoom="0.13169643"
     inkscape:cx="579.78257"
     inkscape:cy="501.9102"
     inkscape:window-x="0"
     inkscape:window-y="0"
     inkscape:window-maximized="1"
     inkscape:current-layer="g3027"
     fit-margin-top="0"
     fit-margin-left="0"
     fit-margin-right="0"
     fit-margin-bottom="0" />
  <g
     transform="matrix(1,0,0,-1,-839.50518,2291.1684)"
     id="g3027">
    <path
       d="m 1015.5052,2431.1684 v -40 c 0,-9.9167 -3.5209,-18.3959 -10.5625,-25.4375 -7.04172,-7.0417 -15.52092,-10.5625 -25.43752,-10.5625 h -104 c -9.9167,0 -18.3959,3.5208 -25.4375,10.5625 -7.0417,7.0416 -10.5625,15.5208 -10.5625,25.4375 v 104 c 0,9.9166 3.5208,18.3958 10.5625,25.4375 7.0416,7.0416 15.5208,10.5625 25.4375,10.5625 h 88 c 1.1666,0 2.125,-0.375 2.875,-1.125 0.75,-0.75 1.125,-1.7084 1.125,-2.875 v -8 c 0,-1.1667 -0.375,-2.125 -1.125,-2.875 -0.75,-0.75 -1.7084,-1.125 -2.875,-1.125 h -88 c -5.5,0 -10.2084,-1.9584 -14.125,-5.875 -3.9167,-3.9167 -5.875,-8.625 -5.875,-14.125 v -104 c 0,-5.5 1.9583,-10.2084 5.875,-14.125 3.9166,-3.9167 8.625,-5.875 14.125,-5.875 h 104 c 5.5,0 10.2083,1.9583 14.125,5.875 3.9166,3.9166 5.875,8.625 5.875,14.125 v 40 c 0,1.1666 0.375,2.125 1.12502,2.875 0.75,0.75 1.7083,1.125 2.875,1.125 h 8 c 1.1666,0 2.125,-0.375 2.875,-1.125 0.75,-0.75 1.125,-1.7084 1.125,-2.875 z m 48,108 v -64 c 0,-2.1667 -0.7917,-4.0417 -2.375,-5.625 -1.5834,-1.5834 -3.4584,-2.375 -5.625,-2.375 -2.1667,0 -5.462,0.1417 -5.625,2.375 -1.1042,15.1197 -8.76,24.792 -17,27 -35.61642,-16.0765 -65.09182,-51.7754 -86.50002,-86.5 -0.6185,-1.0032 -1.7917,-1.25 -2.875,-1.25 -1.0834,0 -2.0417,0.4166 -2.875,1.25 l -14.25,14.25 c -0.8334,0.8333 -1.25,1.7916 -1.25,2.875 0,1.0833 0.2603,2.235 1.25,2.875 35.1524,22.7301 67.4549,52.3213 86.50002,84 -1.926,15.7518 -16.62692,15.2985 -27.00002,19.5 -2.0754,0.8406 -2.375,3.4583 -2.375,5.625 0,2.1666 0.7916,4.0416 2.375,5.625 1.5833,1.5833 3.4583,2.375 5.625,2.375 h 64.00002 c 2.1666,0 4.0416,-0.7917 5.625,-2.375 1.5833,-1.5834 2.375,-3.4584 2.375,-5.625 z"
       id="path3029"
       inkscape:connector-curvature="0"
       style="opacity:1;vector-effect:none;fill:#dc863b;fill-opacity:1;stroke:none;stroke-width:16.1926651;stroke-linecap:butt;stroke-linejoin:miter;stroke-miterlimit:4.1215024;stroke-dasharray:none;stroke-dashoffset:0;stroke-opacity:1;marker:none;marker-start:none;marker-mid:none;marker-end:none"
       sodipodi:nodetypes="sssssssssssssssssssssssssssssssssssscsssssscsssssss" />
  </g>
</svg>
