<svg width="58.333" height="50" data-lt-installed="true" version="1.1" viewBox="0 -256 58.333 50" xmlns="http://www.w3.org/2000/svg">
 <path d="M45.83334-225.7917v10.4167c0 2.5825-.9169 4.7906-2.75065 6.6243C41.24891-206.9169 39.04078-206 36.45833-206H9.375c-2.58247 0-4.7906-.9169-6.62435-2.7507C.91687-210.5844 0-212.7925 0-215.375v-27.0833c0-2.5825.91687-4.7906 2.75065-6.6244 1.83375-1.8337 4.04188-2.7506 6.62435-2.7506h22.91667c.3038 0 .55338.098.74869.2929.19532.1953.29297.4449.29297.7487v2.0834c0 .3038-.0977.5534-.29297.7487-.19531.1953-.44489.2929-.74869.2929H9.375c-1.43229 0-2.65844.51-3.67839 1.53-1.01997 1.02-1.52994 2.2461-1.52994 3.6784v27.0833c0 1.4323.50997 2.6584 1.52994 3.6784 1.01995 1.02 2.2461 1.5299 3.67839 1.5299h27.08333c1.43229 0 2.65841-.5099 3.67839-1.5299 1.01995-1.02 1.52995-2.2461 1.52995-3.6784v-10.4167c0-.3038.0977-.5534.29297-.7487.19531-.1953.44487-.2929.7487-.2929h2.08333c.3038 0 .55339.098.7487.2929.19531.1953.29297.4449.29297.7487zm12.5-28.125v16.6667c0 .5642-.20617 1.0525-.61849 1.4648-.41234.4124-.90063.6185-1.46484.6185-.56425 0-1.4224-.037-1.46485-.6185-.28755-3.9374-2.28125-6.4562-4.42708-7.0312-9.27511 4.1866-16.951 13.4832-22.52605 22.526-.16107.2613-.46659.3256-.7487.3256-.28213 0-.53169-.1085-.74869-.3256l-3.71094-3.7109c-.21703-.217-.32552-.4666-.32552-.7487s.0678-.582.32552-.7487c9.15427-5.9193 17.56638-13.6253 22.52604-21.875-.50156-4.102-4.32992-3.984-7.03125-5.0781-.54047-.2189-.61849-.9006-.61849-1.4649 0-.5642.20615-1.0525.61849-1.4648.41232-.4123.9006-.6185 1.46484-.6185h16.66668c.56421 0 1.0525.2062 1.46484.6185.41232.4123.61849.9006.61849 1.4648z" fill="#dc863b"/>
</svg>
