<?xml version="1.0" encoding="UTF-8" standalone="no"?>
<svg
   xmlns:dc="http://purl.org/dc/elements/1.1/"
   xmlns:cc="http://creativecommons.org/ns#"
   xmlns:rdf="http://www.w3.org/1999/02/22-rdf-syntax-ns#"
   xmlns:svg="http://www.w3.org/2000/svg"
   xmlns="http://www.w3.org/2000/svg"
   xmlns:sodipodi="http://sodipodi.sourceforge.net/DTD/sodipodi-0.dtd"
   xmlns:inkscape="http://www.inkscape.org/namespaces/inkscape"
   viewBox="0 -256 58.333341 50"
   id="svg3025"
   version="1.1"
   inkscape:version="0.92.3 (2405546, 2018-03-11)"
   width="58.33334"
   height="50"
   sodipodi:docname="ext-link-orange.svg"
   data-lt-installed="true">
  <metadata
     id="metadata3035">
    <rdf:RDF>
      <cc:Work
         rdf:about="">
        <dc:format>image/svg+xml</dc:format>
        <dc:type
           rdf:resource="http://purl.org/dc/dcmitype/StillImage" />
        <dc:title></dc:title>
      </cc:Work>
    </rdf:RDF>
  </metadata>
  <defs
     id="defs3033" />
  <sodipodi:namedview
     pagecolor="#ffffff"
     bordercolor="#666666"
     borderopacity="1"
     objecttolerance="10"
     gridtolerance="10"
     guidetolerance="10"
     inkscape:pageopacity="0"
     inkscape:pageshadow="2"
     inkscape:window-width="1920"
     inkscape:window-height="1053"
     id="namedview3031"
     showgrid="false"
     inkscape:zoom="2.1071429"
     inkscape:cx="-81.184303"
     inkscape:cy="100.36754"
     inkscape:window-x="0"
     inkscape:window-y="0"
     inkscape:window-maximized="1"
     inkscape:current-layer="g3027"
     fit-margin-top="0"
     fit-margin-left="0"
     fit-margin-right="0"
     fit-margin-bottom="0" />
  <g
     transform="matrix(1,0,0,-1,-839.50518,2149.1684)"
     id="g3027">
    <path
       d="m 885.33852,2374.9601 v -10.4167 c 0,-2.5825 -0.9169,-4.7906 -2.75065,-6.6243 -1.83378,-1.8338 -4.04191,-2.7507 -6.62436,-2.7507 h -27.08333 c -2.58247,0 -4.7906,0.9169 -6.62435,2.7507 -1.83378,1.8337 -2.75065,4.0418 -2.75065,6.6243 v 27.0833 c 0,2.5825 0.91687,4.7906 2.75065,6.6244 1.83375,1.8337 4.04188,2.7506 6.62435,2.7506 h 22.91667 c 0.3038,0 0.55338,-0.098 0.74869,-0.2929 0.19532,-0.1953 0.29297,-0.4449 0.29297,-0.7487 v -2.0834 c 0,-0.3038 -0.0977,-0.5534 -0.29297,-0.7487 -0.19531,-0.1953 -0.44489,-0.2929 -0.74869,-0.2929 h -22.91667 c -1.43229,0 -2.65844,-0.51 -3.67839,-1.53 -1.01997,-1.02 -1.52994,-2.2461 -1.52994,-3.6784 v -27.0833 c 0,-1.4323 0.50997,-2.6584 1.52994,-3.6784 1.01995,-1.02 2.2461,-1.5299 3.67839,-1.5299 h 27.08333 c 1.43229,0 2.65841,0.5099 3.67839,1.5299 1.01995,1.02 1.52995,2.2461 1.52995,3.6784 v 10.4167 c 0,0.3038 0.0977,0.5534 0.29297,0.7487 0.19531,0.1953 0.44487,0.2929 0.7487,0.2929 h 2.08333 c 0.3038,0 0.55339,-0.098 0.7487,-0.2929 0.19531,-0.1953 0.29297,-0.4449 0.29297,-0.7487 z m 12.5,28.125 v -16.6667 c 0,-0.5642 -0.20617,-1.0525 -0.61849,-1.4648 -0.41234,-0.4124 -0.90063,-0.6185 -1.46484,-0.6185 -0.56425,0 -1.4224,0.037 -1.46485,0.6185 -0.28755,3.9374 -2.28125,6.4562 -4.42708,7.0312 -9.27511,-4.1866 -16.951,-13.4832 -22.52605,-22.526 -0.16107,-0.2613 -0.46659,-0.3256 -0.7487,-0.3256 -0.28213,0 -0.53169,0.1085 -0.74869,0.3256 l -3.71094,3.7109 c -0.21703,0.217 -0.32552,0.4666 -0.32552,0.7487 0,0.2821 0.0678,0.582 0.32552,0.7487 9.15427,5.9193 17.56638,13.6253 22.52604,21.875 -0.50156,4.102 -4.32992,3.984 -7.03125,5.0781 -0.54047,0.2189 -0.61849,0.9006 -0.61849,1.4649 0,0.5642 0.20615,1.0525 0.61849,1.4648 0.41232,0.4123 0.9006,0.6185 1.46484,0.6185 h 16.66668 c 0.56421,0 1.0525,-0.2062 1.46484,-0.6185 0.41232,-0.4123 0.61849,-0.9006 0.61849,-1.4648 z"
       id="path3029"
       inkscape:connector-curvature="0"
       style="opacity:1;vector-effect:none;fill:#dc863b;fill-opacity:1;stroke:none;stroke-width:4.21683979;stroke-linecap:butt;stroke-linejoin:miter;stroke-miterlimit:4.1215024;stroke-dasharray:none;stroke-dashoffset:0;stroke-opacity:1;marker:none;marker-start:none;marker-mid:none;marker-end:none"
       sodipodi:nodetypes="sssssssssssssssssssssssssssssssssssscsssssscsssssss" />
  </g>
</svg>
