<svg width="48.559" height="50.584" data-lt-installed="true" version="1.1" viewBox="0 -256 48.559 50.584" xmlns="http://www.w3.org/2000/svg">
 <g transform="matrix(1 0 0 -1 -844.43 2151.3)">
  <path d="m867.41 2369.1-9.6099 9.7763c-0.32532 0.3309-0.48593 0.7362-0.4818 1.2157 4e-3 0.4797 0.17167 0.8822 0.50261 1.2075 0.33098 0.3253 0.8557 0.7985 1.2159 0.4818 2.4389-2.1438 5.0607-2.4716 6.6509-1.5717 3.0266 7.8037 2.1688 17.683 0.22499 26.202-0.0562 0.2461 0.0859 0.4599 0.25143 0.6226 0.1655 0.1627 0.37444 0.2429 0.62691 0.2408l4.3164-0.037c0.25244 0 0.45997-0.086 0.62264-0.2515 0.16265-0.1655 0.2958-0.3805 0.24075-0.6269-1.9567-8.7503-2.4478-18.121-0.60035-25.82 2.6594-2.1169 4.837 0.1597 7.0524 1.0755 0.44324 0.1832 0.88207-0.1717 1.2074-0.5027 0.32531-0.3309 0.48593-0.7362 0.48179-1.2159-4e-3 -0.4795-0.17165-0.882-0.50262-1.2073l-9.7763-9.6099c-0.33096-0.3253-0.73627-0.4859-1.2159-0.4818-0.47955 0.01-0.88206 0.1717-1.2074 0.5026z" fill="#dc863b"/>
  <path transform="matrix(.11986 -.99279 -.99279 -.11986 0 0)" d="m-2279.1-1159.5a22.633 22.633 0 0 1 26.695-9.7503 22.633 22.633 0 0 1 15.18 24.026 22.633 22.633 0 0 1-20.269 19.921 22.633 22.633 0 0 1-23.76-15.593" color="#000000" color-rendering="auto" fill="none" image-rendering="auto" shape-rendering="auto" solid-color="#000000" stroke="#dc863b" stroke-linecap="round" stroke-miterlimit="4.1215" stroke-width="3.2901" style="isolation:auto;mix-blend-mode:normal"/>
 </g>
</svg>
