<?xml version="1.0" encoding="UTF-8" standalone="no"?>
<svg
   xmlns:dc="http://purl.org/dc/elements/1.1/"
   xmlns:cc="http://creativecommons.org/ns#"
   xmlns:rdf="http://www.w3.org/1999/02/22-rdf-syntax-ns#"
   xmlns:svg="http://www.w3.org/2000/svg"
   xmlns="http://www.w3.org/2000/svg"
   xmlns:sodipodi="http://sodipodi.sourceforge.net/DTD/sodipodi-0.dtd"
   xmlns:inkscape="http://www.inkscape.org/namespaces/inkscape"
   viewBox="0 -256 48.559167 50.584072"
   id="svg3025"
   version="1.1"
   inkscape:version="0.92.3 (2405546, 2018-03-11)"
   width="48.559166"
   height="50.584072"
   sodipodi:docname="int-link-orange.svg"
   data-lt-installed="true">
  <metadata
     id="metadata3035">
    <rdf:RDF>
      <cc:Work
         rdf:about="">
        <dc:format>image/svg+xml</dc:format>
        <dc:type
           rdf:resource="http://purl.org/dc/dcmitype/StillImage" />
        <dc:title></dc:title>
      </cc:Work>
    </rdf:RDF>
  </metadata>
  <defs
     id="defs3033" />
  <sodipodi:namedview
     pagecolor="#ffffff"
     bordercolor="#666666"
     borderopacity="1"
     objecttolerance="10"
     gridtolerance="10"
     guidetolerance="10"
     inkscape:pageopacity="0"
     inkscape:pageshadow="2"
     inkscape:window-width="1920"
     inkscape:window-height="1053"
     id="namedview3031"
     showgrid="false"
     inkscape:zoom="4.2142858"
     inkscape:cx="12.242366"
     inkscape:cy="28.67429"
     inkscape:window-x="0"
     inkscape:window-y="0"
     inkscape:window-maximized="1"
     inkscape:current-layer="g3027"
     fit-margin-top="0"
     fit-margin-left="0"
     fit-margin-right="0"
     fit-margin-bottom="0" />
  <g
     transform="matrix(1,0,0,-1,-844.43477,2151.2901)"
     id="g3027">
    <path
       d="m 867.40911,2369.1155 -9.60987,9.7763 c -0.32532,0.3309 -0.48593,0.7362 -0.4818,1.2157 0.004,0.4797 0.17167,0.8822 0.50261,1.2075 0.33098,0.3253 0.8557,0.7985 1.21589,0.4818 2.43892,-2.1438 5.0607,-2.4716 6.65094,-1.5717 3.02661,7.8037 2.16879,17.6827 0.22499,26.2016 -0.0562,0.2461 0.0859,0.4599 0.25143,0.6226 0.1655,0.1627 0.37444,0.2429 0.62691,0.2408 l 4.31642,-0.037 c 0.25244,0 0.45997,-0.086 0.62264,-0.2515 0.16265,-0.1655 0.2958,-0.3805 0.24075,-0.6269 -1.95668,-8.7503 -2.44783,-18.1209 -0.60035,-25.8197 2.65938,-2.1169 4.83697,0.1597 7.05236,1.0755 0.44324,0.1832 0.88207,-0.1717 1.20744,-0.5027 0.32531,-0.3309 0.48593,-0.7362 0.48179,-1.2159 -0.004,-0.4795 -0.17165,-0.882 -0.50262,-1.2073 l -9.77629,-9.6099 c -0.33096,-0.3253 -0.73627,-0.4859 -1.21587,-0.4818 -0.47955,0.01 -0.88206,0.1717 -1.20737,0.5026 z"
       id="path3029"
       inkscape:connector-curvature="0"
       style="opacity:1;vector-effect:none;fill:#dc863b;fill-opacity:1;stroke:none;stroke-width:3.46841145;stroke-linecap:butt;stroke-linejoin:miter;stroke-miterlimit:4.1215024;stroke-dasharray:none;stroke-dashoffset:0;stroke-opacity:1;marker:none;marker-start:none;marker-mid:none;marker-end:none"
       sodipodi:nodetypes="csssscsssssscsssssssc" />
    <path
       style="color:#000000;clip-rule:nonzero;display:inline;overflow:visible;visibility:visible;opacity:1;isolation:auto;mix-blend-mode:normal;color-interpolation:sRGB;color-interpolation-filters:linearRGB;solid-color:#000000;solid-opacity:1;vector-effect:none;fill:none;fill-opacity:1;fill-rule:nonzero;stroke:#dc863b;stroke-width:3.29005766;stroke-linecap:round;stroke-linejoin:miter;stroke-miterlimit:4.1215024;stroke-dasharray:none;stroke-dashoffset:0;stroke-opacity:1;marker:none;marker-start:none;marker-mid:none;marker-end:none;color-rendering:auto;image-rendering:auto;shape-rendering:auto;text-rendering:auto;enable-background:accumulate"
       id="path864"
       transform="matrix(0.11986446,-0.99279027,-0.99279027,-0.11986446,0,0)"
       sodipodi:type="arc"
       sodipodi:cx="-2259.6902"
       sodipodi:cy="-1147.8466"
       sodipodi:rx="22.633327"
       sodipodi:ry="22.633327"
       sodipodi:start="3.683429"
       sodipodi:end="2.8303433"
       d="m -2279.0816,-1159.5188 a 22.633327,22.633327 0 0 1 26.6949,-9.7503 22.633327,22.633327 0 0 1 15.1796,24.0262 22.633327,22.633327 0 0 1 -20.2691,19.9211 22.633327,22.633327 0 0 1 -23.7598,-15.5933"
       sodipodi:open="true" />
  </g>
</svg>
