<?xml version="1.0" encoding="UTF-8" standalone="no"?>
<!-- Created with Inkscape (http://www.inkscape.org/) -->

<svg
   xmlns:dc="http://purl.org/dc/elements/1.1/"
   xmlns:cc="http://creativecommons.org/ns#"
   xmlns:rdf="http://www.w3.org/1999/02/22-rdf-syntax-ns#"
   xmlns:svg="http://www.w3.org/2000/svg"
   xmlns="http://www.w3.org/2000/svg"
   xmlns:sodipodi="http://sodipodi.sourceforge.net/DTD/sodipodi-0.dtd"
   xmlns:inkscape="http://www.inkscape.org/namespaces/inkscape"
   version="1.1"
   id="svg2"
   xml:space="preserve"
   width="315.43732"
   height="315.43732"
   viewBox="0 0 315.43732 315.43731"
   sodipodi:docname="logoAltmetric.svg"
   inkscape:version="0.92.1 r15371"><metadata
     id="metadata8"><rdf:RDF><cc:Work
         rdf:about=""><dc:format>image/svg+xml</dc:format><dc:type
           rdf:resource="http://purl.org/dc/dcmitype/StillImage" /><dc:title></dc:title></cc:Work></rdf:RDF></metadata><defs
     id="defs6" /><sodipodi:namedview
     pagecolor="#ffffff"
     bordercolor="#666666"
     borderopacity="1"
     objecttolerance="10"
     gridtolerance="10"
     guidetolerance="10"
     inkscape:pageopacity="0"
     inkscape:pageshadow="2"
     inkscape:window-width="1920"
     inkscape:window-height="1057"
     id="namedview4"
     showgrid="false"
     fit-margin-top="0"
     fit-margin-left="0"
     fit-margin-right="0"
     fit-margin-bottom="0"
     inkscape:zoom="0.28727272"
     inkscape:cx="164.62904"
     inkscape:cy="-167.88354"
     inkscape:window-x="-8"
     inkscape:window-y="-8"
     inkscape:window-maximized="1"
     inkscape:current-layer="g12" /><g
     id="g10"
     inkscape:groupmode="layer"
     inkscape:label="ink_ext_XXXXXX"
     transform="matrix(1.3333333,0,0,-1.3333333,0,315.43733)"><g
       id="g12"
       transform="scale(0.1)"><path
         d="m 1607.44,472.371 c 44.12,79.719 75.16,167.699 90.33,261.02 C 1582,600.879 1415.9,513.5 1229.29,500.98 c -0.15,-0.109 -0.32,-0.23 -0.48,-0.339 -76.43,-54.981 -160.26,-95.051 -247.462,-120.192 -273.45,-78.84 -580.059,-10.89 -795.606,204.66 -21.883,21.891 -42.168,44.743 -60.941,68.403 2.289,-4.571 4.613,-9.121 6.961,-13.66 140.551,-271.5 383.195,-481.602 677.125,-579.4809 30.051,-3.4727 60.597,-5.293 91.582,-5.293 304.611,0 569.271,168.5039 706.971,417.2929"
         style="fill:#fbc517;fill-opacity:1;fill-rule:nonzero;stroke:none"
         id="path50"
         inkscape:connector-curvature="0" /><path
         d="m 500.973,1136.59 c -1.024,15.31 -1.594,30.74 -1.594,46.3 0,172.1 63.625,329.32 168.605,449.49 0.075,0.44 0.133,0.89 0.207,1.34 0.231,1.39 0.481,2.76 0.715,4.15 0.789,4.67 1.614,9.33 2.481,13.97 0.203,1.07 0.41,2.13 0.617,3.2 1.031,5.39 2.117,10.77 3.254,16.14 0.023,0.1 0.043,0.2 0.066,0.3 67.047,315.4 315.055,565.06 632.056,626.88 79.61,14.13 160.96,17.31 241.59,9.68 -115.27,37.48 -238.31,57.74 -366.08,57.74 -190.351,0 -370.191,-44.98 -529.495,-124.86 -23.622,-18.74 -46.434,-39 -68.282,-60.85 -284.41,-284.4 -311.855,-727.39 -84.14,-1043.48"
         style="fill:#3551a9;fill-opacity:1;fill-rule:nonzero;stroke:none"
         id="path52"
         inkscape:connector-curvature="0" /><path
         d="m 472.492,758.281 c 79.676,-44.082 167.598,-75.062 260.844,-90.23 -132.504,115.801 -219.875,281.91 -232.363,468.539 -227.715,316.09 -200.27,759.08 84.14,1043.48 21.848,21.85 44.66,42.11 68.282,60.85 -2.938,-1.47 -5.879,-2.94 -8.805,-4.44 C 370.793,2096.31 158.824,1852.54 60.3672,1556.9 c -3.4688,-30.06 -5.293,-60.62 -5.293,-91.63 0,-304.63 168.5628,-569.329 417.4178,-706.989"
         style="fill:#56c1ef;fill-opacity:1;fill-rule:nonzero;stroke:none"
         id="path54"
         inkscape:connector-curvature="0" /><path
         d="m 981.348,380.449 c 87.202,25.141 171.032,65.211 247.462,120.192 0.16,0.109 0.33,0.23 0.48,0.339 -15.34,-1.031 -30.8,-1.601 -46.4,-1.601 -172.13,0 -329.382,63.652 -449.554,168.672 -93.246,15.168 -181.168,46.148 -260.844,90.23 -248.855,137.66 -417.4178,402.359 -417.4178,706.989 0,31.01 1.8242,61.57 5.293,91.63 -1.5625,-4.69 -3.0977,-9.4 -4.6016,-14.13 C 19.5586,1429.29 0,1308.38 0,1182.89 0,992.59 44.9531,812.789 124.801,653.512 143.574,629.852 163.859,607 185.742,585.109 401.289,369.559 707.898,301.609 981.348,380.449"
         style="fill:#8acf26;fill-opacity:1;fill-rule:nonzero;stroke:none"
         id="path56"
         inkscape:connector-curvature="0" /><path
         d="m 2241,1712.23 c -18.78,23.66 -39.07,46.52 -60.97,68.4 -215.38,215.41 -521.69,283.41 -794.96,204.84 -87.55,-25.17 -171.68,-65.42 -248.37,-120.66 15.27,1.02 30.66,1.59 46.19,1.59 172.08,0 329.28,-63.61 449.44,-168.57 93.31,-15.17 181.27,-46.23 260.99,-90.34 248.83,-137.67 417.37,-402.37 417.34,-707.021 0.01,-31.008 -1.81,-61.59 -5.28,-91.66 1.92,5.75 3.79,11.511 5.62,17.293 35.57,112.589 54.78,232.438 54.78,356.788 0,190.29 -44.95,370.07 -124.78,529.34"
         style="fill:#891978;fill-opacity:1;fill-rule:nonzero;stroke:none"
         id="path58"
         inkscape:connector-curvature="0" /><path
         d="m 1307.38,2298.36 c -317.001,-61.82 -565.009,-311.48 -632.056,-626.88 -0.023,-0.1 -0.043,-0.2 -0.066,-0.3 -1.137,-5.37 -2.223,-10.75 -3.254,-16.14 -0.207,-1.07 -0.414,-2.13 -0.617,-3.2 -0.867,-4.64 -1.692,-9.3 -2.481,-13.97 -0.234,-1.39 -0.484,-2.76 -0.715,-4.15 -0.074,-0.45 -0.132,-0.9 -0.207,-1.34 115.825,132.57 282.004,219.97 468.716,232.43 76.69,55.24 160.82,95.49 248.37,120.66 273.27,78.57 579.58,10.57 794.96,-204.84 21.9,-21.88 42.19,-44.74 60.97,-68.4 -2.89,5.75 -5.82,11.48 -8.79,17.18 -140.87,269.91 -382.82,478.69 -675.64,576.11 -2.53,0.84 -5.06,1.69 -7.6,2.52 -80.63,7.63 -161.98,4.45 -241.59,-9.68"
         style="fill:#25285c;fill-opacity:1;fill-rule:nonzero;stroke:none"
         id="path60"
         inkscape:connector-curvature="0" /><path
         d="m 1984.9,982.789 c -25.22,86.841 -65.27,170.301 -120.1,246.421 1.03,-15.31 1.6,-30.75 1.6,-46.32 0,-172.1 -63.63,-329.331 -168.63,-449.499 C 1682.6,640.07 1651.56,552.09 1607.44,472.371 1469.74,223.582 1205.08,55.0781 900.469,55.0781 c -30.985,0 -61.531,1.8203 -91.582,5.293 4.207,-1.4023 8.422,-2.7813 12.648,-4.1406 C 935.441,19.7305 1056.86,0 1182.89,0 c 190.28,0 370.06,44.9492 529.32,124.781 23.67,18.778 46.53,39.071 68.42,60.969 215.96,215.922 283.77,523.23 204.27,797.039"
         style="fill:#f37c16;fill-opacity:1;fill-rule:nonzero;stroke:none"
         id="path62"
         inkscape:connector-curvature="0" /><path
         d="m 1893.32,1607.49 c -79.72,44.11 -167.68,75.17 -260.99,90.34 132.56,-115.8 219.98,-281.94 232.47,-468.62 54.83,-76.12 94.88,-159.58 120.1,-246.421 79.5,-273.809 11.69,-581.117 -204.27,-797.039 -21.89,-21.898 -44.75,-42.191 -68.42,-60.969 8.17,4.09 16.29,8.27 24.35,12.551 266.33,141.316 472.21,381.43 568.82,671.477 3.47,30.07 5.29,60.652 5.28,91.66 0.03,304.651 -168.51,569.351 -417.34,707.021"
         style="fill:#ed272c;fill-opacity:1;fill-rule:nonzero;stroke:none"
         id="path64"
         inkscape:connector-curvature="0" /><path
         inkscape:connector-curvature="0"
         id="path4541"
         style="fill:#fbc517;fill-opacity:1;fill-rule:nonzero;stroke:none"
         d="m 1607.44,472.371 c 44.12,79.719 75.16,167.699 90.33,261.02 C 1582,600.879 1415.9,513.5 1229.29,500.98 c -0.15,-0.109 -0.32,-0.23 -0.48,-0.339 -76.43,-54.981 -160.26,-95.051 -247.462,-120.192 -273.45,-78.84 -580.059,-10.89 -795.606,204.66 -21.883,21.891 -42.168,44.743 -60.941,68.403 2.289,-4.571 4.613,-9.121 6.961,-13.66 140.551,-271.5 383.195,-481.602 677.125,-579.4809 30.051,-3.4727 60.597,-5.293 91.582,-5.293 304.611,0 569.271,168.5039 706.971,417.2929" /><path
         inkscape:connector-curvature="0"
         id="path4543"
         style="fill:#3551a9;fill-opacity:1;fill-rule:nonzero;stroke:none"
         d="m 500.973,1136.59 c -1.024,15.31 -1.594,30.74 -1.594,46.3 0,172.1 63.625,329.32 168.605,449.49 0.075,0.44 0.133,0.89 0.207,1.34 0.231,1.39 0.481,2.76 0.715,4.15 0.789,4.67 1.614,9.33 2.481,13.97 0.203,1.07 0.41,2.13 0.617,3.2 1.031,5.39 2.117,10.77 3.254,16.14 0.023,0.1 0.043,0.2 0.066,0.3 67.047,315.4 315.055,565.06 632.056,626.88 79.61,14.13 160.96,17.31 241.59,9.68 -115.27,37.48 -238.31,57.74 -366.08,57.74 -190.351,0 -370.191,-44.98 -529.495,-124.86 -23.622,-18.74 -46.434,-39 -68.282,-60.85 -284.41,-284.4 -311.855,-727.39 -84.14,-1043.48" /><path
         inkscape:connector-curvature="0"
         id="path4545"
         style="fill:#56c1ef;fill-opacity:1;fill-rule:nonzero;stroke:none"
         d="m 472.492,758.281 c 79.676,-44.082 167.598,-75.062 260.844,-90.23 -132.504,115.801 -219.875,281.91 -232.363,468.539 -227.715,316.09 -200.27,759.08 84.14,1043.48 21.848,21.85 44.66,42.11 68.282,60.85 -2.938,-1.47 -5.879,-2.94 -8.805,-4.44 C 370.793,2096.31 158.824,1852.54 60.3672,1556.9 c -3.4688,-30.06 -5.293,-60.62 -5.293,-91.63 0,-304.63 168.5628,-569.329 417.4178,-706.989" /><path
         inkscape:connector-curvature="0"
         id="path4547"
         style="fill:#8acf26;fill-opacity:1;fill-rule:nonzero;stroke:none"
         d="m 981.348,380.449 c 87.202,25.141 171.032,65.211 247.462,120.192 0.16,0.109 0.33,0.23 0.48,0.339 -15.34,-1.031 -30.8,-1.601 -46.4,-1.601 -172.13,0 -329.382,63.652 -449.554,168.672 -93.246,15.168 -181.168,46.148 -260.844,90.23 -248.855,137.66 -417.4178,402.359 -417.4178,706.989 0,31.01 1.8242,61.57 5.293,91.63 -1.5625,-4.69 -3.0977,-9.4 -4.6016,-14.13 C 19.5586,1429.29 0,1308.38 0,1182.89 0,992.59 44.9531,812.789 124.801,653.512 143.574,629.852 163.859,607 185.742,585.109 401.289,369.559 707.898,301.609 981.348,380.449" /><path
         inkscape:connector-curvature="0"
         id="path4549"
         style="fill:#891978;fill-opacity:1;fill-rule:nonzero;stroke:none"
         d="m 2241,1712.23 c -18.78,23.66 -39.07,46.52 -60.97,68.4 -215.38,215.41 -521.69,283.41 -794.96,204.84 -87.55,-25.17 -171.68,-65.42 -248.37,-120.66 15.27,1.02 30.66,1.59 46.19,1.59 172.08,0 329.28,-63.61 449.44,-168.57 93.31,-15.17 181.27,-46.23 260.99,-90.34 248.83,-137.67 417.37,-402.37 417.34,-707.021 0.01,-31.008 -1.81,-61.59 -5.28,-91.66 1.92,5.75 3.79,11.511 5.62,17.293 35.57,112.589 54.78,232.438 54.78,356.788 0,190.29 -44.95,370.07 -124.78,529.34" /><path
         inkscape:connector-curvature="0"
         id="path4551"
         style="fill:#25285c;fill-opacity:1;fill-rule:nonzero;stroke:none"
         d="m 1307.38,2298.36 c -317.001,-61.82 -565.009,-311.48 -632.056,-626.88 -0.023,-0.1 -0.043,-0.2 -0.066,-0.3 -1.137,-5.37 -2.223,-10.75 -3.254,-16.14 -0.207,-1.07 -0.414,-2.13 -0.617,-3.2 -0.867,-4.64 -1.692,-9.3 -2.481,-13.97 -0.234,-1.39 -0.484,-2.76 -0.715,-4.15 -0.074,-0.45 -0.132,-0.9 -0.207,-1.34 115.825,132.57 282.004,219.97 468.716,232.43 76.69,55.24 160.82,95.49 248.37,120.66 273.27,78.57 579.58,10.57 794.96,-204.84 21.9,-21.88 42.19,-44.74 60.97,-68.4 -2.89,5.75 -5.82,11.48 -8.79,17.18 -140.87,269.91 -382.82,478.69 -675.64,576.11 -2.53,0.84 -5.06,1.69 -7.6,2.52 -80.63,7.63 -161.98,4.45 -241.59,-9.68" /><path
         inkscape:connector-curvature="0"
         id="path4553"
         style="fill:#f37c16;fill-opacity:1;fill-rule:nonzero;stroke:none"
         d="m 1984.9,982.789 c -25.22,86.841 -65.27,170.301 -120.1,246.421 1.03,-15.31 1.6,-30.75 1.6,-46.32 0,-172.1 -63.63,-329.331 -168.63,-449.499 C 1682.6,640.07 1651.56,552.09 1607.44,472.371 1469.74,223.582 1205.08,55.0781 900.469,55.0781 c -30.985,0 -61.531,1.8203 -91.582,5.293 4.207,-1.4023 8.422,-2.7813 12.648,-4.1406 C 935.441,19.7305 1056.86,0 1182.89,0 c 190.28,0 370.06,44.9492 529.32,124.781 23.67,18.778 46.53,39.071 68.42,60.969 215.96,215.922 283.77,523.23 204.27,797.039" /><path
         inkscape:connector-curvature="0"
         id="path4555"
         style="fill:#ed272c;fill-opacity:1;fill-rule:nonzero;stroke:none"
         d="m 1893.32,1607.49 c -79.72,44.11 -167.68,75.17 -260.99,90.34 132.56,-115.8 219.98,-281.94 232.47,-468.62 54.83,-76.12 94.88,-159.58 120.1,-246.421 79.5,-273.809 11.69,-581.117 -204.27,-797.039 -21.89,-21.898 -44.75,-42.191 -68.42,-60.969 8.17,4.09 16.29,8.27 24.35,12.551 266.33,141.316 472.21,381.43 568.82,671.477 3.47,30.07 5.29,60.652 5.28,91.66 0.03,304.651 -168.51,569.351 -417.34,707.021" /></g></g></svg>