<?xml version="1.0" encoding="UTF-8" standalone="no"?>
<!-- Created with Inkscape (http://www.inkscape.org/) -->

<svg
   xmlns:dc="http://purl.org/dc/elements/1.1/"
   xmlns:cc="http://creativecommons.org/ns#"
   xmlns:rdf="http://www.w3.org/1999/02/22-rdf-syntax-ns#"
   xmlns:svg="http://www.w3.org/2000/svg"
   xmlns="http://www.w3.org/2000/svg"
   xmlns:sodipodi="http://sodipodi.sourceforge.net/DTD/sodipodi-0.dtd"
   xmlns:inkscape="http://www.inkscape.org/namespaces/inkscape"
   width="52.916927mm"
   height="48.958153mm"
   viewBox="0 0 52.916927 48.958153"
   version="1.1"
   id="svg8"
   inkscape:version="0.92.1 r15371"
   sodipodi:docname="logo_teaching.svg">
  <defs
     id="defs2" />
  <sodipodi:namedview
     id="base"
     pagecolor="#ffffff"
     bordercolor="#666666"
     borderopacity="1.0"
     inkscape:pageopacity="0.0"
     inkscape:pageshadow="2"
     inkscape:zoom="0.7"
     inkscape:cx="-150.08366"
     inkscape:cy="298.07774"
     inkscape:document-units="mm"
     inkscape:current-layer="layer1"
     showgrid="false"
     inkscape:window-width="1920"
     inkscape:window-height="1057"
     inkscape:window-x="-8"
     inkscape:window-y="-8"
     inkscape:window-maximized="1"
     inkscape:snap-global="false"
     fit-margin-top="0"
     fit-margin-left="0"
     fit-margin-right="0"
     fit-margin-bottom="0" />
  <metadata
     id="metadata5">
    <rdf:RDF>
      <cc:Work
         rdf:about="">
        <dc:format>image/svg+xml</dc:format>
        <dc:type
           rdf:resource="http://purl.org/dc/dcmitype/StillImage" />
        <dc:title></dc:title>
      </cc:Work>
    </rdf:RDF>
  </metadata>
  <g
     inkscape:label="Calque 1"
     inkscape:groupmode="layer"
     id="layer1"
     transform="translate(-76.413712,-67.350326)">
    <g
       id="g4527"
       transform="matrix(-0.58640025,0,0,0.6081977,192.13975,57.638852)">
      <path
         style="fill:#fbfbfb;stroke-width:0.26458332"
         d="M 126.9811,65.111604 V 33.75848 h 28.17813 28.17812 V 65.111604 96.464729 H 155.15923 126.9811 Z"
         id="path4543"
         inkscape:connector-curvature="0" />
      <path
         style="fill:#cfcfcf;stroke-width:0.26458332"
         d="m 164.28735,94.870636 c -4.43838,-0.254024 -10.68917,-0.594464 -13.89062,-0.756531 -3.20146,-0.162071 -6.86263,-0.369682 -8.13594,-0.46136 l -2.31511,-0.166687 V 92.63515 c 0,-0.514443 0.20892,-1.039971 0.52834,-1.329045 0.29058,-0.262974 0.72756,-1.110151 0.97106,-1.882618 0.37858,-1.200986 0.39391,-1.568921 0.1058,-2.539431 -0.42379,-1.427541 -0.72446,-1.79641 -1.46429,-1.79641 -0.83548,0 -1.51072,-0.865087 -1.5422,-1.975784 l -0.027,-0.951259 -1.09539,0.164264 c -1.24716,0.187023 -1.67099,-0.103418 -2.48805,-1.704988 -0.53354,-1.045835 -1.07371,-3.547947 -1.07371,-4.973535 0,-0.844597 -0.0389,-0.877448 -1.03913,-0.877448 -0.80745,0 -1.16139,-0.155429 -1.5875,-0.69714 -0.71213,-0.905327 -0.76214,-3.006479 -0.0854,-3.586229 0.25466,-0.218149 1.62388,-0.609409 3.04271,-0.869468 1.41882,-0.260059 2.57968,-0.521489 2.57968,-0.580956 0,-0.05947 -0.22551,-0.550156 -0.50113,-1.09042 -0.52333,-1.02581 -1.22464,-4.869238 -0.99682,-5.462926 0.13037,-0.339741 -0.12176,-0.47675 -4.1003,-2.22808 -0.96898,-0.426542 -1.9375,-1.055815 -2.15226,-1.398385 -0.39665,-0.632714 -0.98074,-4.516754 -0.98074,-6.521653 0,-1.254699 0.51089,-1.727831 2.18214,-2.020866 l 0.99151,-0.173852 -0.49867,-0.980325 c -1.18246,-2.324534 -1.172,-6.169441 0.0226,-8.310475 l 0.6097,-1.092728 5.82083,-1.53583 c 5.35684,-1.413406 6.16883,-1.557506 10.18646,-1.80775 2.40109,-0.149556 6.15156,-0.384898 8.33437,-0.522982 11.70676,-0.74057 19.93947,-1.142668 20.32967,-0.992934 0.61668,0.236642 0.56058,1.525609 -0.12353,2.838094 -0.87537,1.679435 -0.61154,4.219226 0.66002,6.3538 0.60515,1.015871 0.96197,1.951323 0.96197,2.521943 0,0.817761 -0.0732,0.907079 -0.74318,0.907079 -1.74719,0 -2.29722,1.485984 -2.02552,5.472202 l 0.19096,2.801547 -1.01025,-0.189523 c -0.82294,-0.154384 -0.95718,-0.124237 -0.72405,0.162605 0.20523,0.252522 0.20474,0.74455 -0.002,1.739431 -0.21298,1.026247 -0.20569,1.886995 0.028,3.307291 0.17377,1.055994 0.24236,2.189422 0.15243,2.51873 -0.10903,0.399219 0.0422,0.898972 0.45383,1.499701 0.54347,0.793138 0.74516,0.895635 1.6854,0.856466 l 1.06818,-0.04449 0.15895,2.38125 c 0.12544,1.879298 0.31894,2.703211 0.91796,3.908629 0.53836,1.083334 0.87327,1.483534 1.15201,1.376574 0.21614,-0.08294 0.92314,-0.22347 1.5711,-0.312282 l 1.17812,-0.161481 -0.16447,1.199893 c -0.13545,0.988251 -0.0728,1.282849 0.3552,1.670185 0.28582,0.258657 0.51967,0.680093 0.51967,0.936522 0,0.48749 -0.41438,0.61517 -4.36563,1.345166 l -1.85208,0.342175 1.19062,0.138975 c 1.34995,0.157575 1.37344,0.245424 0.77092,2.883302 -0.24841,1.08758 -0.25278,1.620176 -0.0186,2.267743 0.38862,1.074717 0.39131,1.926868 0.006,2.055146 -0.2018,0.06727 -0.13825,0.398254 0.19474,1.014235 0.36529,0.675728 0.4943,1.466842 0.4943,3.031051 0,2.216145 -0.27014,3.018962 -1.62481,4.828646 -0.63419,0.847206 -0.67375,0.859351 -2.68074,0.822944 -1.12038,-0.02032 -5.66846,-0.244787 -10.10685,-0.498808 z m 1.44484,-2.53958 c 1.36666,-0.524438 2.05859,-4.438083 1.07811,-6.09791 l -0.47278,-0.800338 -12.20373,-0.149214 c -6.71205,-0.08207 -12.22822,-0.125315 -12.25816,-0.0961 -0.0299,0.02921 0.11384,0.541499 0.31949,1.138415 0.41713,1.210741 0.30778,2.855502 -0.28401,4.271872 -0.21168,0.506614 -0.32218,0.983808 -0.24556,1.060432 0.14245,0.142451 15.35116,0.730342 20.68193,0.799459 1.62521,0.02106 3.14833,-0.0359 3.38471,-0.126611 z m 11.34112,-9.029348 c -0.0705,-0.545703 -0.0124,-1.498203 0.12934,-2.116666 0.14169,-0.618464 0.20263,-1.124479 0.13543,-1.124479 -0.0672,0 -1.41542,-0.189058 -2.99604,-0.420127 l -2.87386,-0.420127 -6.56698,1.255083 c -3.61184,0.690295 -6.61658,1.296072 -6.67722,1.346168 -0.33032,0.272918 0.66054,0.446794 5.18129,0.909223 5.47468,0.560003 13.69069,1.472697 13.75534,1.52804 0.0225,0.01929 -0.0168,-0.411412 -0.0873,-0.957115 z m -18.4745,-2.84282 c 13.81011,-2.685632 19.71972,-3.845267 21.05273,-4.131146 l 1.21771,-0.261152 -0.2873,-0.926203 c -0.22316,-0.719405 -0.39935,-0.897078 -0.78911,-0.795766 -0.276,0.07174 -7.47928,1.526357 -16.0073,3.232483 -8.52801,1.706123 -15.58376,3.219955 -15.67944,3.364071 -0.39553,0.595763 0.38753,1.576602 1.1,1.377839 0.21828,-0.0609 4.445,-0.897951 9.39271,-1.860126 z m -7.9695,-2.531997 c 3.07354,-0.591436 9.27919,-1.790589 13.79033,-2.664785 4.51115,-0.874194 9.22959,-1.776685 10.48543,-2.005534 l 2.28335,-0.416089 -0.52578,-1.188598 c -0.28918,-0.65373 -0.58908,-1.886712 -0.66644,-2.739962 -0.0774,-0.853247 -0.21344,-1.549294 -0.30237,-1.546767 -0.0889,0.0026 -0.99512,0.184817 -2.01377,0.40509 -2.06412,0.446347 -17.70111,3.622522 -25.26771,5.132364 l -4.89479,0.976707 -0.0822,1.277223 c -0.0452,0.702471 0.0637,1.646766 0.24201,2.098434 0.31623,0.800939 0.98689,1.747255 1.23828,1.747255 0.069,0 2.64014,-0.483901 5.71368,-1.075338 z m 6.42757,-9.295953 c 8.90183,-1.786927 16.10511,-3.309794 16.00729,-3.384147 -0.24487,-0.186119 -0.40519,-0.797677 -0.42542,-1.622854 -0.009,-0.381656 -0.13609,-0.653746 -0.28161,-0.604644 -0.14552,0.0491 -6.33677,1.347208 -13.75833,2.884686 -7.42156,1.537478 -14.38672,2.980631 -15.47813,3.207006 -2.91113,0.603819 -2.91041,0.603499 -2.91041,1.288476 0,0.720468 0.2453,1.45424 0.49133,1.469729 0.0936,0.0059 7.45344,-1.451322 16.35528,-3.238252 z m -8.64277,-2.866268 c 2.10908,-0.441177 7.58517,-1.586026 12.16907,-2.544109 4.58391,-0.95808 8.37292,-1.776677 8.42004,-1.819103 0.0471,-0.04243 -0.0902,-0.417144 -0.30507,-0.832707 -0.2149,-0.415566 -0.53878,-1.527958 -0.71973,-2.471985 -0.18095,-0.944026 -0.35777,-1.752702 -0.39294,-1.797057 -0.0352,-0.04436 -1.5953,0.275078 -3.46697,0.709852 -1.87167,0.434773 -5.96288,1.349332 -9.09158,2.032352 -3.12869,0.68302 -7.11729,1.566565 -8.86354,1.963435 l -3.175,0.72158 0.0232,1.560046 c 0.0241,1.614263 0.65481,3.279839 1.24207,3.279839 0.17913,0 2.05131,-0.360963 4.1604,-0.802143 z m 23.89384,-7.416079 c 0.14984,-1.146935 0.11561,-1.23121 -0.69033,-1.699865 -0.46639,-0.271206 -0.90751,-0.567336 -0.98027,-0.658067 -0.19455,-0.2426 -1.77872,-1.330096 -1.93757,-1.330096 -0.0749,0 -0.11601,0.678319 -0.0915,1.507376 l 0.0447,1.507375 1.71348,0.990428 c 0.94241,0.544735 1.72931,0.967744 1.74866,0.94002 0.0193,-0.02772 0.10612,-0.593451 0.19283,-1.257171 z m -29.36927,-2.359049 c 6.7213,-0.869791 13.66796,-1.777851 15.43702,-2.017911 l 3.21646,-0.436474 1.41374,0.806726 1.41374,0.806726 1.9349,-0.442461 1.93489,-0.44246 -0.84236,-0.496853 c -0.46331,-0.273269 -2.0343,-1.320616 -3.4911,-2.327438 l -2.64873,-1.830585 -7.43963,0.675281 c -4.0918,0.371404 -7.97542,0.734303 -8.63026,0.806442 -0.65484,0.07214 -3.27422,0.3087 -5.82083,0.525691 -2.54662,0.216992 -5.52318,0.472067 -6.61459,0.566835 -3.05526,0.265291 -3.01292,0.231612 -2.93663,2.335781 0.0623,1.719772 0.36686,3.052138 0.69756,3.052138 0.0854,0 5.65452,-0.711647 12.37582,-1.581438 z m 31.01436,-4.17325 c -0.005,-0.982265 0.0863,-2.232422 0.20203,-2.778125 l 0.21043,-0.992187 -1.40106,0.01888 c -0.77057,0.01038 -3.16676,0.22142 -5.32486,0.468967 -4.22613,0.484763 -4.1724,0.447732 -2.38541,1.644117 0.31347,0.209867 1.38504,0.971362 2.38125,1.692211 1.81757,1.315164 2.68165,1.586785 5.39158,1.694821 l 0.93443,0.03725 z m -34.13965,-2.322597 c 6.87859,-0.551416 6.5016,-0.411848 5.04551,-1.867942 -1.20188,-1.201881 -2.00468,-3.04258 -2.00132,-4.588733 0.002,-0.856298 0.42528,-2.504615 0.96936,-3.773581 0.4725,-1.102007 0.50731,-1.110442 5.77604,-1.399667 1.4552,-0.07988 3.41974,-0.204374 4.36562,-0.276645 0.94589,-0.07227 2.62383,-0.184712 3.72877,-0.249868 9.5759,-0.56467 16.07025,-0.982549 16.51186,-1.062456 0.29104,-0.05266 0.73752,-0.104598 0.99218,-0.115412 0.25466,-0.01081 0.46302,-0.189652 0.46302,-0.397419 0,-0.295937 -0.30086,-0.349413 -1.38906,-0.246892 -0.76398,0.07198 -8.11609,0.536375 -16.33802,1.031997 -14.88574,0.89732 -14.96294,0.904939 -18.25625,1.801614 -1.81901,0.495265 -4.34274,1.168575 -5.6083,1.496243 -2.09034,0.54122 -2.33815,0.674057 -2.70683,1.450995 -1.07746,2.270573 -1.07601,5.213379 0.004,7.338777 0.75537,1.487048 0.89631,1.577272 2.20752,1.413246 0.66506,-0.0832 3.47139,-0.332611 6.23628,-0.554257 z m 8.40052,-0.84069 c -0.32742,-0.06307 -0.8632,-0.06307 -1.19062,0 -0.32742,0.06306 -0.0595,0.114662 0.59531,0.114662 0.65484,0 0.92273,-0.0516 0.59531,-0.114662 z m 3.0458,-0.259648 c -0.25297,-0.06622 -0.72922,-0.06863 -1.05834,-0.0053 -0.32912,0.06329 -0.12214,0.117469 0.45994,0.120406 0.58208,0.0029 0.85136,-0.04884 0.5984,-0.115066 z m 3.30784,-0.269042 c -0.32542,-0.0628 -0.92073,-0.06443 -1.32292,-0.0036 -0.40218,0.06082 -0.13593,0.112199 0.59168,0.114186 0.7276,0.002 1.05666,-0.04777 0.73124,-0.110574 z m 15.3424,-0.573944 c 3.60175,-0.406737 6.62792,-0.818804 6.72483,-0.915706 0.0969,-0.0969 0.0966,-0.255792 -8e-4,-0.353089 -0.16763,-0.167634 -13.91696,0.89448 -14.70242,1.135738 -0.28856,0.08864 -0.25907,0.199032 0.13229,0.49524 0.63861,0.48334 0.16517,0.505196 7.84603,-0.362183 z m -7.85506,-0.961615 c 7.57615,-0.653735 13.90478,-1.18861 14.06361,-1.18861 0.15883,0 -0.0739,-0.669638 -0.51719,-1.488085 -1.01071,-1.866066 -1.28376,-4.452906 -0.63413,-6.007681 l 0.42283,-1.011964 -1.64873,0.15726 c -0.90679,0.08649 -6.35169,0.45706 -12.09976,0.823481 -17.09067,1.089473 -16.69336,1.05516 -16.95969,1.464734 -0.13366,0.205543 -0.43423,1.016874 -0.66795,1.802958 -0.69672,2.343333 -0.19471,4.387917 1.49136,6.07398 0.68768,0.687682 0.96323,0.793303 1.79366,0.687521 0.53964,-0.06874 7.17983,-0.659858 14.75599,-1.313594 z m -4.84514,1.270499 c -0.32743,-0.06306 -0.86321,-0.06306 -1.19063,0 -0.32742,0.06306 -0.0595,0.114662 0.59531,0.114662 0.65485,0 0.92274,-0.0516 0.59532,-0.114662 z m 3.175,-0.264584 c -0.32743,-0.06306 -0.86321,-0.06306 -1.19063,0 -0.32742,0.06306 -0.0595,0.114662 0.59531,0.114662 0.65485,0 0.92274,-0.0516 0.59532,-0.114662 z"
         id="path4541"
         inkscape:connector-curvature="0" />
      <path
         style="fill:#b2b2b2;stroke-width:0.26458332"
         d="m 157.01131,94.443799 c -9.02229,-0.491694 -16.553,-0.948769 -16.7349,-1.015725 -0.5348,-0.196855 -0.37992,-1.361239 0.28845,-2.168564 1.23963,-1.497357 1.5263,-3.311226 0.8073,-5.108176 -0.32802,-0.819811 -0.56831,-1.063688 -1.04802,-1.063688 -0.89376,0 -1.70137,-0.982705 -1.70137,-2.07023 v -0.912114 l -1.17336,0.160827 c -1.07406,0.147217 -1.2306,0.0928 -1.84981,-0.643091 -0.86958,-1.033444 -1.55461,-3.375604 -1.58396,-5.415719 -0.0217,-1.511922 -0.0571,-1.597789 -0.61351,-1.491445 -1.58689,0.303289 -2.71686,-0.820357 -2.71686,-2.701656 0,-1.387517 0.67553,-1.838679 3.56912,-2.383673 1.38396,-0.260665 2.51629,-0.52677 2.51629,-0.591347 0,-0.06458 -0.16261,-0.438922 -0.36137,-0.831879 -0.52888,-1.045654 -0.98454,-3.185466 -1.02122,-4.79571 -0.0309,-1.355169 -0.0676,-1.422662 -0.97839,-1.797108 -0.52047,-0.213979 -1.90668,-0.836139 -3.08047,-1.382575 -2.48669,-1.157639 -2.59618,-1.336142 -3.01154,-4.909905 -0.43345,-3.729345 -0.40046,-4.024258 0.50235,-4.491122 0.42934,-0.222018 1.14372,-0.403669 1.5875,-0.403669 0.96173,0 0.97443,-0.08827 0.23086,-1.60395 -0.87742,-1.788505 -0.98003,-5.188283 -0.21762,-7.210726 0.36855,-0.977663 0.78778,-1.625012 1.14986,-1.775555 0.31341,-0.130306 3.11518,-0.900755 6.22615,-1.712108 l 5.65631,-1.475188 15.51036,-0.914031 c 8.53069,-0.502717 15.88784,-0.915117 16.34922,-0.916445 1.15469,-0.0033 1.37538,0.998156 0.60415,2.741635 -0.37167,0.840225 -0.55703,1.797565 -0.55199,2.850948 0.006,1.351814 0.1682,1.878588 1.0956,3.568353 1.39179,2.535903 1.36669,3.347646 -0.10936,3.53665 -0.9239,0.118304 -1.07275,0.244199 -1.40775,1.190625 -0.26096,0.737238 -0.34888,1.940197 -0.28978,3.964961 l 0.0848,2.906628 -1.05833,-0.07331 c -0.59013,-0.04088 -0.92126,0.02052 -0.74849,0.138786 0.20161,0.13801 0.30056,1.042928 0.28329,2.59064 -0.0494,4.428755 0.0888,5.757556 0.69394,6.67057 0.50927,0.768342 0.66021,0.837218 1.53001,0.698135 1.15057,-0.183978 1.2314,-0.01357 1.22273,2.577552 -0.005,1.366155 0.14562,2.048454 0.68914,3.130592 0.38225,0.761042 0.695,1.565775 0.695,1.788295 0,0.412806 0.0967,0.408787 2.75238,-0.114461 l 0.768,-0.151318 -0.17853,1.11647 c -0.14371,0.898692 -0.0742,1.249143 0.35648,1.796627 0.29425,0.374083 0.53501,0.830069 0.53501,1.013298 0,0.216543 -1.13444,0.546251 -3.24115,0.941994 -3.20322,0.601723 -3.22614,0.611126 -1.95851,0.803563 0.70545,0.107095 1.33908,0.251164 1.40807,0.320154 0.069,0.06899 -0.0617,0.676672 -0.29044,1.350399 -0.46771,1.377598 -0.55289,3.471814 -0.15131,3.720007 0.34486,0.21313 0.34089,1.273077 -0.006,1.62003 -0.18449,0.184486 -0.14714,0.566262 0.11729,1.199134 1.03018,2.465581 0.76272,4.924436 -0.79419,7.301148 l -0.90993,1.389063 -1.51865,-0.0343 c -0.83525,-0.01887 -8.90052,-0.436599 -17.92281,-0.928293 z m 9.22994,-2.489017 c 1.26598,-1.504535 1.508,-3.974886 0.56758,-5.793457 l -0.37381,-0.722855 -8.94519,-0.174987 c -4.91985,-0.09624 -10.47597,-0.175178 -12.34693,-0.175414 -3.13942,-2.64e-4 -3.38637,0.03528 -3.20234,0.462598 0.10967,0.254661 0.25429,1.190762 0.32139,2.080223 0.0951,1.260879 -8.7e-4,1.894972 -0.43568,2.877902 -0.30672,0.693388 -0.55767,1.285851 -0.55767,1.316585 0,0.03073 5.20898,0.202977 11.57552,0.382762 6.36654,0.179784 11.75412,0.363818 11.9724,0.408961 0.21828,0.04514 0.47559,0.09589 0.57179,0.112771 0.0962,0.01688 0.48003,-0.331909 0.85294,-0.775089 z m 11.05037,-9.512969 c 0.0218,-1.018646 0.0516,-2.000912 0.0661,-2.182813 0.0182,-0.227748 -0.92096,-0.44487 -3.01625,-0.697307 l -3.04271,-0.366577 -6.66831,1.280477 c -4.89449,0.939864 -6.60107,1.361493 -6.41554,1.585045 0.14111,0.170021 1.85964,0.445495 3.89019,0.623581 2.00057,0.175455 4.17319,0.383939 4.82803,0.463296 0.65485,0.07936 3.15516,0.355486 5.55625,0.613619 2.4011,0.25813 4.45493,0.483602 4.56407,0.501046 0.10914,0.01744 0.21629,-0.801722 0.23812,-1.820367 z m -20.14802,-1.62446 c 4.58391,-0.895279 11.78719,-2.308156 16.00729,-3.139731 l 7.67292,-1.511954 -0.0907,-0.896823 c -0.0499,-0.493252 -0.13012,-0.937385 -0.17833,-0.98696 -0.16177,-0.166335 -32.26717,6.326722 -32.51669,6.576238 -0.26444,0.26444 0.20693,1.582422 0.567,1.585348 0.11226,7.94e-4 3.95457,-0.73084 8.53848,-1.626118 z m -13.40245,-1.694244 c -0.0862,-0.224557 -0.21342,-0.351541 -0.28277,-0.282186 -0.0694,0.06936 -0.0476,0.253085 0.0483,0.408287 0.26089,0.422132 0.41338,0.340124 0.23447,-0.126101 z m 13.79933,-2.476645 c 6.69395,-1.29467 13.87386,-2.680023 15.95534,-3.078565 3.23322,-0.619061 3.75729,-0.786712 3.59763,-1.150874 -0.66854,-1.524801 -1.14838,-3.212129 -1.15579,-4.064275 -0.005,-0.545703 -0.11635,-0.992187 -0.24799,-0.992187 -0.13164,0 -6.41219,1.254863 -13.95677,2.788586 -7.54458,1.533724 -14.72946,2.992239 -15.96638,3.241146 l -2.24896,0.452559 -0.0799,1.386031 c -0.097,1.68366 0.70863,3.773852 1.45405,3.772434 0.26285,-5.29e-4 5.95478,-1.060183 12.64874,-2.354855 z m -0.26459,-7.987861 c 8.73125,-1.763659 15.91428,-3.243132 15.96229,-3.287723 0.048,-0.04459 -0.0867,-0.359293 -0.29944,-0.699341 -0.2127,-0.340048 -0.36105,-0.887907 -0.32966,-1.217467 0.0416,-0.437121 -0.0563,-0.565052 -0.36201,-0.472959 -0.2305,0.06943 -7.32472,1.557372 -15.76493,3.306535 -8.44021,1.749163 -15.61372,3.244186 -15.94114,3.322273 -0.97164,0.231722 -0.60862,2.244367 0.40618,2.251945 0.24954,0.0019 7.59746,-1.439603 16.32871,-3.203263 z m -4.10104,-3.835058 c 3.1287,-0.652426 7.66575,-1.592096 10.08234,-2.088158 4.74083,-0.973167 5.79266,-1.213636 5.79266,-1.324319 0,-0.03921 -0.1878,-0.520764 -0.41733,-1.070113 -0.22953,-0.549347 -0.52359,-1.651695 -0.65346,-2.449663 -0.12988,-0.797967 -0.28865,-1.503362 -0.35283,-1.567543 -0.24521,-0.245211 -24.76154,5.341142 -24.88815,5.671077 -0.18054,0.470466 0.35761,3.227014 0.79519,4.073194 l 0.36328,0.702509 1.79488,-0.380378 c 0.98718,-0.209207 4.35472,-0.914181 7.48342,-1.566606 z m 17.92001,-2.914502 c -0.0879,-0.08792 -0.31612,-0.09732 -0.50712,-0.02088 -0.21106,0.08446 -0.14837,0.147156 0.15985,0.159851 0.27892,0.01148 0.43519,-0.05104 0.34727,-0.138965 z m 1.26228,-3.538423 v -1.315485 l -5.54673,-3.754362 -5.54674,-3.754361 -10.85743,0.996948 c -5.97159,0.548322 -13.02366,1.196253 -15.67128,1.439848 -2.64762,0.243594 -4.878,0.50705 -4.95641,0.585456 -0.20107,0.20108 0.14436,4.360418 0.39594,4.767494 0.1653,0.267459 1.36103,0.186208 5.84938,-0.397473 3.10288,-0.40351 8.32051,-1.081986 11.59473,-1.507724 3.27422,-0.425737 7.75508,-1.016382 9.95748,-1.312543 l 4.00435,-0.538475 1.36574,0.805266 1.36573,0.805267 1.8332,-0.416951 c 1.00825,-0.229323 1.95523,-0.341527 2.10439,-0.249342 0.14916,0.09219 0.27366,0.845192 0.27668,1.673349 l 0.005,1.505739 1.64817,0.980955 c 0.90649,0.539526 1.76723,0.985663 1.91275,0.991417 0.14552,0.0058 0.26458,-0.581506 0.26458,-1.305023 z m 1.61942,-6.422036 c -0.0175,-0.909505 0.0575,-2.15174 0.16683,-2.760521 0.19168,-1.067527 0.17288,-1.109852 -0.52916,-1.190625 -0.58365,-0.06715 -5.1789,0.364603 -9.47901,0.890616 -0.59497,0.07278 -0.2875,0.365995 2.30762,2.200634 3.0719,2.171707 3.61951,2.385273 6.3431,2.473803 l 1.22254,0.03974 z m -26.35796,-3.07056 c 12.31201,-1.109029 13.96647,-1.208237 14.55796,-0.872954 0.58875,0.333728 1.42996,0.294885 7.14375,-0.329864 7.47261,-0.817061 7.74192,-0.862897 7.59461,-1.29263 -0.13658,-0.398441 0.26168,-0.422263 -14.34736,0.858172 -6.54844,0.573949 -12.9547,1.125899 -14.23613,1.226555 l -2.32988,0.183012 -0.94357,-0.89748 c -1.32418,-1.259486 -1.92452,-2.695398 -1.93149,-4.619771 -0.006,-1.749426 0.58281,-4.112464 1.14075,-4.575507 0.2131,-0.176864 6.42588,-0.68515 15.80528,-1.293077 14.11144,-0.914635 15.46198,-1.042321 15.54427,-1.469626 0.0809,-0.419994 -0.0816,-0.452656 -1.58476,-0.318635 -0.92119,0.08213 -7.9852,0.500477 -15.6978,0.929658 -7.71261,0.429181 -14.61823,0.917056 -15.34584,1.084166 -5.23764,1.20294 -11.1521,2.928331 -11.45488,3.341668 -0.18831,0.257067 -0.53034,1.113679 -0.76008,1.903583 -0.55361,1.903521 -0.34259,4.123822 0.56902,5.987095 0.63764,1.303288 0.78458,1.438669 1.54509,1.423559 0.46224,-0.0092 7.09122,-0.57975 14.73106,-1.267924 z m 7.40833,-1.626833 c 3.27422,-0.282481 8.09625,-0.698367 10.71563,-0.924191 2.61937,-0.225824 6.01266,-0.526649 7.54062,-0.6685 1.52797,-0.141851 2.84713,-0.258011 2.93146,-0.258132 0.0843,-1.22e-4 -0.18991,-0.692715 -0.60941,-1.539096 -0.97057,-1.958187 -1.21174,-4.068552 -0.65251,-5.709811 0.38528,-1.130734 0.38299,-1.217853 -0.0319,-1.216195 -0.24583,9.79e-4 -6.75727,0.416617 -14.46988,0.923633 -7.7126,0.507017 -14.39694,0.922932 -14.85408,0.924256 -0.72949,0.0021 -0.88665,0.139966 -1.28472,1.126887 -0.24945,0.618464 -0.51663,1.804667 -0.59375,2.636007 -0.11864,1.279113 -0.0305,1.73582 0.57347,2.970229 1.01394,2.072403 1.76253,2.594345 3.44461,2.401691 0.73557,-0.08425 4.0163,-0.384296 7.29051,-0.666778 z"
         id="path4539"
         inkscape:connector-curvature="0" />
      <path
         style="fill:#8f8f8f;stroke-width:0.26458332"
         d="m 170.76964,95.128837 c -1.89177,-0.108886 -8.26161,-0.457496 -14.15521,-0.774692 -18.04831,-0.971362 -16.53015,-0.825405 -16.57553,-1.593583 -0.0215,-0.363802 0.17545,-0.899583 0.43766,-1.190625 0.71245,-0.790807 1.32121,-2.447321 1.32121,-3.595211 0,-1.457065 -0.73996,-2.88708 -1.49391,-2.88708 -0.90233,0 -1.68109,-0.990743 -1.68109,-2.138693 v -0.980581 l -0.99219,0.230408 c -1.3895,0.322672 -1.30426,0.355512 -2.16641,-0.834647 -0.8514,-1.175316 -1.33149,-3.008654 -1.39221,-5.316463 l -0.0389,-1.480685 -0.94627,0.123105 c -1.28059,0.166597 -2.04309,-0.57027 -2.28934,-2.212374 -0.26127,-1.742271 0.33838,-2.209962 3.62794,-2.829537 l 2.52384,-0.475353 -0.48397,-0.978188 c -0.52326,-1.057598 -0.979,-3.179429 -1.08397,-5.046763 l -0.0658,-1.169982 -2.92321,-1.283666 c -2.14742,-0.942992 -3.03365,-1.475105 -3.33934,-2.005018 -0.45595,-0.790374 -1.15313,-6.346879 -0.89744,-7.152509 0.20263,-0.638405 1.23521,-1.10947 2.43198,-1.10947 0.51461,0 0.88988,-0.0893 0.83394,-0.198438 -0.998,-1.947323 -1.3633,-3.093963 -1.47267,-4.622629 -0.13285,-1.856773 0.24074,-3.775908 0.9672,-4.968516 0.22161,-0.363803 0.4131,-0.685209 0.42553,-0.714237 0.0124,-0.02903 2.75715,-0.770587 6.09935,-1.647908 l 6.07674,-1.59513 15.81447,-0.931779 c 8.69796,-0.512479 16.03519,-0.93178 16.30495,-0.93178 0.79549,0 0.92334,1.409178 0.24757,2.728866 -0.6769,1.321883 -0.78207,3.589179 -0.22935,4.944051 0.20779,0.509323 0.71158,1.474991 1.11955,2.145929 0.40797,0.670938 0.74177,1.531873 0.74177,1.913188 0,0.688791 -0.17139,0.792409 -1.69347,1.02381 -0.31662,0.04814 -0.63666,0.463284 -0.86417,1.12099 -0.45824,1.324687 -0.50058,2.163642 -0.2377,4.710145 l 0.21168,2.050521 -1.15557,0.02089 c -0.63556,0.01149 -1.02371,0.07528 -0.86256,0.141765 0.19756,0.0815 0.2644,1.105165 0.2052,3.142674 -0.0518,1.781205 0.0183,3.087361 0.17059,3.181497 0.14346,0.08866 0.1863,0.61055 0.0963,1.173265 -0.12959,0.810398 -0.0382,1.181092 0.45582,1.849316 0.55879,0.755811 0.71342,0.819608 1.61671,0.666999 0.73505,-0.124188 1.0071,-0.07527 1.03018,0.185235 0.0172,0.194693 0.0579,1.187423 0.0904,2.206069 0.0433,1.358802 0.26397,2.332281 0.82853,3.655036 l 0.76952,1.80295 1.05833,-0.182411 c 2.13395,-0.367806 2.11667,-0.375801 2.11667,0.979469 0,0.840665 0.16075,1.405919 0.50968,1.792189 0.31055,0.343786 0.41393,0.657654 0.26458,0.803349 -0.1348,0.131517 -1.54816,0.489191 -3.1408,0.794832 -1.59263,0.305642 -2.93576,0.595773 -2.98473,0.644737 -0.049,0.04896 0.40532,0.155332 1.00951,0.236371 1.46365,0.196315 1.61141,0.404653 1.16871,1.647878 -0.4709,1.322371 -0.49679,2.862593 -0.0681,4.049662 0.2856,0.790839 0.2722,0.952748 -0.0983,1.186585 -0.39041,0.246438 -0.37923,0.379894 0.12437,1.484235 1.07639,2.360417 0.61608,5.24959 -1.23534,7.753771 -0.60896,0.823672 -0.24941,0.796811 -6.13297,0.458163 z m -4.68895,-2.967199 c 1.37362,-1.462156 1.73204,-3.763388 0.87876,-5.642184 l -0.49128,-1.081733 -4.19926,-0.174156 c -2.3096,-0.09579 -7.92303,-0.174554 -12.47429,-0.175038 l -8.27503,-8.81e-4 0.40367,0.780611 c 0.56523,1.09303 0.50072,3.345502 -0.13601,4.748889 -0.29043,0.640131 -0.49617,1.192565 -0.45721,1.227627 0.039,0.03507 5.13101,0.238406 11.31564,0.451866 6.18464,0.213461 11.61099,0.405167 12.05857,0.426017 0.53836,0.02508 1.0042,-0.164796 1.37644,-0.561018 z m 11.17124,-9.289878 c 0,-0.782174 0.0703,-1.773642 0.15623,-2.203259 l 0.15622,-0.781124 -3.07596,-0.354298 c -3.38422,-0.389806 -2.71717,-0.460653 -11.6014,1.232225 -3.22681,0.614865 -4.93731,1.052132 -4.8728,1.245666 0.0786,0.235665 15.12027,2.050548 18.6424,2.249329 0.54769,0.03091 0.59531,-0.08017 0.59531,-1.388539 z m -17.4625,-2.536798 c 5.8936,-1.158666 13.06645,-2.557608 15.93968,-3.108762 l 5.22406,-1.002096 -0.16593,-0.926041 c -0.0913,-0.509323 -0.20741,-0.9734 -0.25811,-1.031283 -0.10859,-0.123957 -31.17712,6.038445 -32.05063,6.3572 -0.89389,0.326186 -0.6333,1.818057 0.3175,1.81774 0.15279,-5e-5 5.09984,-0.948092 10.99343,-2.106758 z m -19.38245,0.668509 c 1.85634,-0.354523 4.68485,-0.889738 6.28558,-1.189362 1.60073,-0.299625 8.32776,-1.564828 14.94896,-2.811561 6.6212,-1.246732 12.86275,-2.410259 13.87013,-2.585611 1.00737,-0.175353 1.87737,-0.456184 1.93333,-0.62407 0.059,-0.177004 -0.0991,-0.262007 -0.37638,-0.202327 -0.26296,0.05661 -2.97844,0.580141 -6.03437,1.163407 -3.05594,0.583263 -9.8425,1.889974 -15.08125,2.903802 -5.23875,1.013825 -9.91546,1.91199 -10.39268,1.995919 -0.47722,0.08393 -1.09357,0.03171 -1.36965,-0.116046 -1.16523,-0.62361 -2.12084,-5.329288 -1.23205,-6.066917 0.32949,-0.273452 8.53763,-2.009161 25.82667,-5.46136 5.48727,-1.095677 7.71602,-1.633588 6.98659,-1.686227 -0.1592,-0.01148 -2.0642,0.342593 -4.23333,0.78685 -2.16914,0.444254 -11.23721,2.283156 -20.15127,4.086447 -8.91406,1.803292 -16.34161,3.361672 -16.50567,3.463063 -0.20072,0.124049 -0.24949,0.829601 -0.14909,2.156997 0.1614,2.134086 1.23537,4.831588 1.92362,4.831588 0.20663,0 1.89451,-0.290066 3.75086,-0.644592 z m 20.80941,-5.038677 c 8.71571,-1.669566 15.89067,-3.079496 15.94436,-3.13318 0.0537,-0.05368 -0.13853,-0.631436 -0.42715,-1.283888 -0.28861,-0.652454 -0.6041,-1.861481 -0.70109,-2.686722 -0.097,-0.825243 -0.30756,-1.500441 -0.46792,-1.500441 -0.16037,0 -7.37702,1.436132 -16.03701,3.191401 -11.14163,2.258269 -15.83919,3.313396 -16.06607,3.608634 -0.70658,0.919461 0.469,4.842698 1.45049,4.8407 0.2517,-5.29e-4 7.58868,-1.366938 16.30439,-3.036504 z m -3.86643,-7.282997 c 8.66811,-1.747179 15.80878,-3.225261 15.86815,-3.284633 0.0594,-0.05937 -0.0208,-0.34844 -0.17807,-0.642379 -0.15731,-0.293939 -0.28602,-0.842185 -0.28602,-1.218327 0,-0.573834 -0.0958,-0.661625 -0.59532,-0.545521 -0.32742,0.0761 -3.51234,0.74081 -7.0776,1.477124 -15.83789,3.270919 -24.2434,5.030417 -24.6724,5.164593 -0.29268,0.09154 -0.46302,0.410805 -0.46302,0.867822 0,0.845685 0.4299,1.358003 1.13955,1.358003 0.27749,0 7.59663,-1.429506 16.26473,-3.176682 z m -13.3723,-1.273874 c -0.75321,-0.106931 -1.31865,-1.18016 -1.7777,-3.374191 -0.40689,-1.944767 -0.29671,-2.67243 0.44006,-2.906274 0.2863,-0.09086 0.46478,-0.220969 0.39664,-0.289118 -0.18196,-0.181959 -6.62033,1.214499 -6.90309,1.497251 -0.35142,0.351425 0.20748,3.914071 0.83745,5.338236 l 0.5313,1.201092 3.53679,-0.691031 c 1.94523,-0.380069 3.26758,-0.729253 2.93855,-0.775965 z m 1.7172,-0.207214 c -0.0879,-0.08792 -0.31612,-0.09732 -0.50712,-0.02088 -0.21107,0.08446 -0.14837,0.147156 0.15985,0.159851 0.27892,0.01148 0.43519,-0.05104 0.34727,-0.138965 z m 1.32292,-0.264583 c -0.0879,-0.08792 -0.31613,-0.09732 -0.50712,-0.02088 -0.21107,0.08446 -0.14837,0.147155 0.15985,0.15985 0.27891,0.01148 0.43518,-0.05104 0.34727,-0.138964 z m 8.8029,-2.628262 c 6.03912,-1.250551 11.52984,-2.391423 12.20162,-2.535272 l 1.22141,-0.261543 -0.61982,-1.507014 c -0.3409,-0.828857 -0.62446,-1.864201 -0.63014,-2.300764 -0.0225,-1.727661 0.54714,-1.781222 -12.87952,1.211029 l -12.39042,2.761314 0.0798,1.446022 c 0.1056,1.914613 0.92663,3.802346 1.56776,3.604633 0.25804,-0.07957 5.41025,-1.167855 11.44936,-2.418405 z m -7.74457,2.363679 c -0.0879,-0.08792 -0.31612,-0.09732 -0.50712,-0.02088 -0.21107,0.08446 -0.14837,0.147156 0.15985,0.159851 0.27892,0.01148 0.43519,-0.05104 0.34727,-0.138965 z m 1.46072,-0.279958 c -0.1819,-0.0734 -0.47956,-0.0734 -0.66146,0 -0.1819,0.0734 -0.0331,0.133453 0.33073,0.133453 0.3638,0 0.51263,-0.06005 0.33073,-0.133453 z m 1.4497,-0.249209 c -0.0879,-0.08792 -0.31613,-0.09732 -0.50712,-0.02088 -0.21107,0.08446 -0.14837,0.147156 0.15985,0.15985 0.27891,0.01148 0.43518,-0.05104 0.34727,-0.138964 z m 1.05833,-0.264583 c -0.0879,-0.08792 -0.31612,-0.09732 -0.50712,-0.02088 -0.21107,0.08446 -0.14837,0.147156 0.15985,0.159851 0.27892,0.01148 0.43519,-0.05104 0.34727,-0.138965 z m 1.32292,-0.264583 c -0.0879,-0.08792 -0.31613,-0.09732 -0.50712,-0.02088 -0.21107,0.08446 -0.14837,0.147156 0.15985,0.159851 0.27892,0.01148 0.43519,-0.05104 0.34727,-0.138965 z m 1.32291,-0.264584 c -0.0879,-0.08792 -0.31612,-0.09732 -0.50712,-0.02087 -0.21106,0.08446 -0.14837,0.147156 0.15986,0.15985 0.27891,0.01148 0.43518,-0.05104 0.34726,-0.138964 z m 1.19614,-0.279958 c -0.1819,-0.0734 -0.47956,-0.0734 -0.66146,0 -0.1819,0.0734 -0.0331,0.133453 0.33073,0.133453 0.3638,0 0.51263,-0.06006 0.33073,-0.133453 z m 1.4497,-0.249208 c -0.0879,-0.08792 -0.31613,-0.09732 -0.50712,-0.02088 -0.21107,0.08446 -0.14838,0.147156 0.15985,0.159851 0.27891,0.01148 0.43519,-0.05104 0.34727,-0.138965 z m 1.19613,-0.279959 c -0.1819,-0.0734 -0.47955,-0.0734 -0.66146,0 -0.1819,0.0734 -0.0331,0.133453 0.33073,0.133453 0.36381,0 0.51263,-0.06006 0.33073,-0.133453 z m 1.18512,-0.249208 c -0.0879,-0.08792 -0.31613,-0.09732 -0.50712,-0.02088 -0.21107,0.08446 -0.14838,0.147156 0.15985,0.159851 0.27891,0.01148 0.43519,-0.05104 0.34727,-0.138965 z m 1.19613,-0.279958 c -0.1819,-0.0734 -0.47955,-0.0734 -0.66146,0 -0.1819,0.0734 -0.0331,0.133453 0.33073,0.133453 0.36381,0 0.51263,-0.06006 0.33073,-0.133453 z m 1.4497,-0.249209 c -0.0879,-0.08792 -0.31612,-0.09732 -0.50712,-0.02087 -0.21106,0.08446 -0.14837,0.147156 0.15985,0.15985 0.27892,0.01148 0.43519,-0.05104 0.34727,-0.138964 z m 1.19614,-0.279958 c -0.1819,-0.0734 -0.47956,-0.0734 -0.66146,0 -0.1819,0.0734 -0.0331,0.133453 0.33073,0.133453 0.3638,0 0.51263,-0.06005 0.33073,-0.133453 z m 1.18511,-0.249208 c -0.0879,-0.08792 -0.31612,-0.09732 -0.50712,-0.02088 -0.21106,0.08446 -0.14837,0.147156 0.15985,0.159851 0.27892,0.01148 0.43519,-0.05104 0.34727,-0.138965 z m 1.32292,-0.264584 c -0.0879,-0.08792 -0.31613,-0.09732 -0.50712,-0.02088 -0.21107,0.08446 -0.14838,0.147156 0.15985,0.15985 0.27891,0.01148 0.43519,-0.05104 0.34727,-0.138964 z m 1.32291,-0.264583 c -0.0879,-0.08792 -0.31612,-0.09732 -0.50712,-0.02088 -0.21106,0.08446 -0.14837,0.147156 0.15986,0.159851 0.27891,0.01148 0.43518,-0.05104 0.34726,-0.138965 z m 1.05834,-0.264583 c -0.0879,-0.08792 -0.31613,-0.09732 -0.50712,-0.02088 -0.21107,0.08446 -0.14838,0.147156 0.15985,0.159851 0.27891,0.01148 0.43519,-0.05104 0.34727,-0.138965 z m 3.24665,-0.531636 c 0,-0.05624 -0.35718,-0.102261 -0.79375,-0.102261 -0.43656,0 -0.79375,0.09844 -0.79375,0.21876 0,0.120317 0.35719,0.166336 0.79375,0.102261 0.43657,-0.06407 0.79375,-0.162515 0.79375,-0.21876 z m -22.95051,-2.241257 c 2.65461,-0.594364 4.88609,-1.144054 4.95885,-1.221533 0.15918,-0.169501 -0.50746,-0.03865 -5.82084,1.142548 -4.26787,0.948777 -4.85318,1.103876 -4.29738,1.138759 0.18305,0.01148 2.50477,-0.46541 5.15937,-1.059774 z m 23.63041,-1.204282 -0.0184,-1.491195 -5.53671,-3.713898 -5.53671,-3.713899 -3.45912,0.301179 c -10.80305,0.9406 -27.09377,2.464041 -27.62521,2.583396 -0.60785,0.136516 -0.61509,0.177261 -0.43411,2.443159 0.10123,1.26738 0.28983,2.417157 0.41911,2.55506 0.26543,0.28314 0.16205,0.294844 18.58378,-2.103976 L 161.6917,53.638 l 1.29294,0.795554 1.29294,0.795555 1.91779,-0.394593 c 1.05478,-0.217025 2.00948,-0.337921 2.12155,-0.268657 0.11207,0.06926 0.20376,0.808835 0.20376,1.643491 v 1.517558 l 1.91823,1.105639 c 1.05503,0.608101 1.92653,1.108798 1.93667,1.112661 0.0101,0.0039 0.0101,-0.664016 0,-1.484173 z m -11.78881,-1.419548 c 3.27225,-0.727783 6.23148,-1.388421 6.57607,-1.468085 0.3446,-0.07966 0.57037,-0.201006 0.50173,-0.269651 -0.10592,-0.105912 -12.7976,2.624342 -13.56368,2.917837 -1.024,0.392309 1.39481,-0.04779 6.48588,-1.180101 z m 13.51948,-3.736914 c -0.20626,-0.728706 -0.0743,-3.821718 0.1922,-4.503457 0.25659,-0.656507 0.22191,-0.70766 -0.55729,-0.822022 -0.65014,-0.09542 -8.14926,0.602955 -9.95353,0.926949 -0.20208,0.03629 1.03046,1.054951 2.73898,2.263696 3.05077,2.158363 3.14264,2.201525 5.12993,2.410342 2.34182,0.246071 2.58946,0.218221 2.44971,-0.275508 z m -26.9642,-4.375542 c 12.42982,-1.094912 14.29361,-1.205622 14.89332,-0.884669 0.5974,0.31972 1.57662,0.271114 7.6203,-0.378259 3.81414,-0.409817 7.04792,-0.849184 7.18616,-0.976372 0.77599,-0.713929 -1.18097,-0.635322 -15.54494,0.624408 l -15.29359,1.341257 -1.04224,-1.01772 c -1.46007,-1.42572 -1.94048,-2.828443 -1.78487,-5.211511 0.14083,-2.15675 0.97706,-4.167326 1.73581,-4.173481 0.2517,-0.002 5.93452,-0.35879 12.62848,-0.792774 6.69395,-0.433983 13.51028,-0.867177 15.14739,-0.962652 2.71631,-0.158414 2.97656,-0.218741 2.97656,-0.689973 0,-0.481847 -0.13713,-0.505382 -2.05052,-0.351911 -1.12778,0.09046 -8.3013,0.526076 -15.94114,0.96804 l -13.89063,0.80357 -5.68854,1.468247 c -3.1287,0.807536 -5.88816,1.574448 -6.13215,1.70425 -0.24398,0.129801 -0.70284,0.921099 -1.01968,1.758438 -0.46576,1.230911 -0.54992,1.882666 -0.43949,3.403676 0.1562,2.151451 1.20217,4.594944 1.97338,4.610009 0.25221,0.0049 6.85209,-0.554231 14.66639,-1.242573 z m 12.96193,-2.063522 c 7.46684,-0.649258 14.18818,-1.251517 14.93631,-1.338352 l 1.36023,-0.157883 -0.75554,-1.511982 c -0.97493,-1.950998 -1.22591,-4.017588 -0.67897,-5.590564 0.22572,-0.649162 0.36331,-1.227391 0.30575,-1.284953 -0.0576,-0.05756 -6.80909,0.326482 -15.00339,0.853433 -8.1943,0.52695 -15.039,0.956351 -15.21045,0.954223 -0.4942,-0.0061 -1.40807,2.790807 -1.40807,4.309455 0,0.894766 0.19639,1.755318 0.55626,2.43747 0.57623,1.092278 1.77517,2.509624 2.12289,2.509624 0.1094,0 6.30814,-0.531212 13.77498,-1.180471 z"
         id="path4537"
         inkscape:connector-curvature="0" />
      <path
         style="fill:#707070;stroke-width:0.26458332"
         d="m 161.77381,94.60425 c -7.13052,-0.403547 -14.89935,-0.82079 -17.26406,-0.927203 l -4.29948,-0.193479 v -0.875054 c 0,-0.481279 0.13146,-0.956302 0.29213,-1.055603 0.53087,-0.328099 1.28365,-2.345756 1.28956,-3.456392 0.008,-1.518996 -0.65181,-3.008873 -1.33269,-3.008873 -0.85426,0 -1.8365,-1.167075 -1.8365,-2.182082 v -0.883219 l -1.38907,0.0113 -1.38906,0.0113 -0.77678,-1.554649 c -0.61809,-1.237044 -0.80023,-2.001285 -0.89153,-3.740894 l -0.11475,-2.186241 -0.96055,0.127333 c -1.20965,0.160356 -2.0476,-0.635878 -2.29457,-2.180314 -0.26861,-1.679787 0.28542,-2.124276 3.50061,-2.808507 l 2.69576,-0.573689 -0.48035,-0.949854 c -0.60314,-1.192662 -1.07394,-3.376893 -1.07725,-4.997772 l -0.003,-1.243748 -2.75636,-1.153115 c -1.516,-0.634215 -3.01608,-1.429567 -3.3335,-1.76745 -0.47415,-0.504708 -0.6463,-1.214826 -0.9647,-3.979472 -0.3758,-3.262995 -0.37181,-3.380893 0.13141,-3.884108 0.30306,-0.303062 1.03087,-0.576667 1.74942,-0.657658 0.67675,-0.07628 1.19094,-0.211986 1.14264,-0.301569 -1.13156,-2.098712 -1.34798,-2.921427 -1.36528,-5.189962 -0.0148,-1.949119 0.0932,-2.628332 0.59573,-3.742794 l 0.61388,-1.361546 2.02978,-0.520291 c 1.11638,-0.28616 3.93478,-1.008611 6.26311,-1.605447 l 4.23333,-1.085156 14.15521,-0.805198 c 7.78537,-0.442858 15.06237,-0.8779 16.17113,-0.966758 l 2.01592,-0.16156 0.1302,0.887138 c 0.0851,0.5797 -0.049,1.230956 -0.38692,1.879258 -1.08576,2.083085 -0.77712,4.660737 0.84839,7.085479 1.31002,1.954128 1.01013,2.89378 -0.92773,2.906804 -0.93388,0.0063 -1.65265,3.54191 -1.12035,5.511037 0.13042,0.482468 0.16039,1.226608 0.0666,1.653645 -0.15063,0.685803 -0.28389,0.776904 -1.1417,0.780483 -0.53414,0.0022 -0.84256,0.09152 -0.68539,0.198437 0.17769,0.120863 0.28687,1.395279 0.28865,3.369386 0.004,4.929888 0.0252,5.123132 0.64272,5.990362 0.52263,0.733976 0.67636,0.796367 1.59877,0.648867 1.14698,-0.183409 1.05983,-0.369528 1.13435,2.42275 0.0351,1.316567 0.25243,2.259079 0.82682,3.586221 l 0.77917,1.800283 1.05833,-0.158957 c 2.2335,-0.335454 2.12523,-0.38123 2.0325,0.859372 -0.0623,0.832951 0.0602,1.309526 0.47061,1.831266 0.30512,0.387906 0.46206,0.788384 0.34875,0.88995 -0.11331,0.101566 -1.33712,0.396655 -2.71957,0.655751 -3.52047,0.659805 -3.83348,0.801857 -2.28011,1.034799 1.26567,0.189799 1.27452,0.198054 1.10528,1.030959 -0.37934,1.866975 -0.4728,4.19262 -0.18023,4.485191 0.41498,0.414975 0.37018,1.237646 -0.0767,1.409141 -0.30893,0.11855 -0.28036,0.353754 0.16536,1.36139 0.78424,1.772894 0.72923,4.106108 -0.13963,5.923301 -0.93975,1.965455 -1.56505,2.616684 -2.47282,2.575351 -0.41323,-0.01882 -6.5854,-0.364387 -13.71592,-0.767935 z m 4.43158,-2.571292 c 1.59615,-1.673127 1.71455,-4.711753 0.25201,-6.467636 -0.34069,-0.409025 -1.44952,-0.450249 -12.63819,-0.469858 l -12.26474,-0.02148 0.38623,0.924383 c 0.53083,1.270452 0.48377,2.795685 -0.13665,4.428498 -0.28759,0.756872 -0.49595,1.402318 -0.46303,1.434327 0.0463,0.04503 15.47952,0.623769 22.96298,0.861097 1.00008,0.03172 1.32639,-0.08658 1.90139,-0.689316 z m 11.20938,-9.950415 0.0306,-2.206916 -3.03117,-0.390187 -3.03117,-0.390186 -6.63165,1.273432 c -3.6474,0.700384 -6.6945,1.336283 -6.77132,1.413102 -0.41264,0.412644 1.09607,0.660596 8.68859,1.427954 4.58391,0.463285 8.5725,0.880531 8.86354,0.927214 1.90123,0.304953 1.84919,0.361738 1.88263,-2.054413 z m -12.46596,-2.714781 c 8.73125,-1.698591 15.89712,-3.103071 15.92416,-3.121068 0.027,-0.01799 -0.0157,-0.51631 -0.095,-1.107363 l -0.14414,-1.074645 -16.12815,3.227001 c -8.87048,1.774852 -16.25447,3.353332 -16.40887,3.507735 -0.41149,0.411488 -0.0246,1.641054 0.519,1.649537 0.25189,0.0039 7.60173,-1.382609 16.33298,-3.081197 z m -16.98423,0.291952 c 5.84882,-1.093595 11.22954,-2.107481 11.95715,-2.253081 0.7276,-0.145603 4.83526,-0.924848 9.12812,-1.731658 8.82945,-1.659424 8.86846,-1.668455 8.55644,-1.980478 -0.12773,-0.127725 -2.90445,0.28497 -6.31049,0.937906 -3.34532,0.641297 -10.19006,1.954638 -15.21053,2.918539 -5.02047,0.963898 -9.63055,1.847313 -10.24463,1.963142 -1.82382,0.344011 -2.70379,-0.683672 -3.10916,-3.631059 -0.21492,-1.562667 -0.0393,-2.316245 0.59771,-2.565112 0.49575,-0.19367 29.7324,-6.172316 31.34951,-6.410706 0.9749,-0.143716 1.65997,-0.604978 0.89852,-0.604978 -0.21066,0 -6.85542,1.314069 -14.76613,2.920151 -7.91071,1.606084 -16.76436,3.396546 -19.67478,3.978804 -2.91042,0.582258 -5.57623,1.178232 -5.92402,1.324385 -0.60864,0.25577 -0.62706,0.342935 -0.49126,2.324272 0.16893,2.464546 1.17538,4.798222 2.06936,4.798222 0.29698,0 5.32536,-0.894758 11.17419,-1.988349 z m 3.88735,-1.857383 c 3.41974,-0.661165 10.48229,-2.019139 15.69456,-3.017716 5.21227,-0.998577 9.52546,-1.864207 9.58487,-1.923616 0.0594,-0.05941 -0.14192,-0.755767 -0.4474,-1.547455 -0.30548,-0.791692 -0.59441,-2.034752 -0.64207,-2.762356 -0.0477,-0.727604 -0.18184,-1.305523 -0.2982,-1.284267 -0.78276,0.143016 -23.87416,4.803434 -27.72821,5.596245 l -4.7625,0.979688 0.0499,1.499987 c 0.0633,1.904891 0.89779,3.658912 1.74145,3.660497 0.32446,6.11e-4 3.3879,-0.539843 6.80764,-1.201007 z m 6.83061,-9.345184 c 7.90417,-1.592604 14.43249,-2.956907 14.50737,-3.031786 0.0749,-0.07488 0.007,-0.376637 -0.14987,-0.670576 -0.15731,-0.293939 -0.28602,-0.852824 -0.28602,-1.24197 0,-0.599697 -0.0907,-0.685753 -0.59532,-0.564613 -0.32742,0.07861 -7.26281,1.521537 -15.41197,3.206512 -8.14917,1.684975 -15.23339,3.155431 -15.74271,3.267678 -0.75726,0.166891 -0.94172,0.339423 -1.01202,0.94661 -0.0482,0.416505 0.0985,0.946383 0.3342,1.20682 0.49548,0.547495 -1.63826,0.910011 18.35634,-3.118675 z m -5.48408,-2.688884 c 8.49999,-1.748888 15.69264,-3.299177 15.98368,-3.445081 0.64084,-0.32127 1.22362,-0.428257 -7.31104,1.342165 -15.0993,3.13218 -18.00805,3.694687 -18.26961,3.533039 -0.96828,-0.598437 -1.95662,-5.251561 -1.23998,-5.837872 0.19927,-0.163026 5.83917,-1.505235 12.53313,-2.982689 11.39675,-2.51543 13.86063,-3.124866 12.81671,-3.170188 -0.55459,-0.02408 -31.13631,6.787425 -31.5097,7.018192 -0.48013,0.296732 -0.0313,3.741158 0.69395,5.325247 0.35175,0.768342 0.68654,1.396987 0.74396,1.396987 0.0574,0 7.05892,-1.430909 15.5589,-3.1798 z m -3.06632,-0.247721 c 2.7649,-0.575112 7.94412,-1.64628 11.50938,-2.380374 3.56526,-0.734095 6.74325,-1.395034 7.0622,-1.468753 l 0.57992,-0.134038 -0.50187,-1.134543 c -0.44329,-1.00215 -0.58892,-1.606879 -0.90492,-3.757896 -0.0427,-0.291042 -0.2428,-0.502583 -0.44455,-0.470091 -1.17414,0.189093 -24.42404,5.403136 -24.61253,5.519624 -0.3515,0.217244 -0.27193,1.453211 0.19562,3.038382 0.5222,1.770473 0.80128,2.129862 1.52463,1.963386 0.31077,-0.07152 2.82723,-0.600586 5.59212,-1.175697 z m 21.5415,-3.621159 c 0.0606,-0.05229 -0.26679,-0.09507 -0.72761,-0.09507 -0.46081,0 -0.83785,0.12133 -0.83785,0.269624 0,0.237294 1.24943,0.09798 1.56546,-0.174554 z m 0.7269,-3.447798 -0.0434,-1.500645 -5.55625,-3.742049 -5.55625,-3.742049 -15.47812,1.413438 c -8.51297,0.777391 -15.6409,1.471343 -15.83985,1.542117 -0.28823,0.102534 -0.32395,0.598343 -0.17581,2.440194 0.10225,1.271332 0.32456,2.441164 0.49401,2.599626 0.22347,0.208973 4.55968,-0.271195 15.78623,-1.748082 l 15.47813,-2.036195 1.41584,0.790634 1.41584,0.790634 1.88671,-0.414007 c 2.19787,-0.482284 2.28301,-0.425102 2.28901,1.5374 l 0.004,1.325162 1.78594,1.100897 c 0.98226,0.605494 1.86499,1.110499 1.96162,1.122234 0.0966,0.01173 0.15616,-0.653955 0.13229,-1.479309 z m 1.71673,-6.696026 c -0.0527,-1.16119 0.025,-2.458123 0.17283,-2.882073 0.25048,-0.71851 0.21827,-0.780907 -0.47466,-0.919492 -0.40885,-0.08177 -2.74969,0.0824 -5.20187,0.364827 -2.45218,0.282426 -4.63285,0.515168 -4.84594,0.517205 -0.57039,0.0055 -0.0932,0.409497 3.13306,2.65264 2.89038,2.009637 2.77052,1.969032 6.91362,2.342222 0.33227,0.02993 0.38284,-0.316462 0.30296,-2.075329 z m -25.32912,-2.917134 c 9.70864,-0.863762 12.79149,-1.057724 13.15943,-0.827943 0.67656,0.422517 1.15192,0.400026 8.49133,-0.401752 6.07277,-0.663407 6.54844,-0.752867 6.54844,-1.231569 0,-0.471207 -0.1326,-0.501779 -1.52135,-0.350762 -5.88025,0.639433 -29.06044,2.535304 -29.4575,2.409282 -0.80728,-0.256221 -2.27244,-2.179489 -2.62812,-3.449858 -0.42078,-1.502868 -0.21237,-3.913018 0.47218,-5.460557 l 0.52403,-1.184657 2.4809,-0.161184 c 1.3645,-0.08865 8.3745,-0.53562 15.57778,-0.993263 7.20328,-0.457643 13.20998,-0.93984 13.34823,-1.071547 0.82816,-0.789002 -0.67805,-0.774768 -16.22733,0.153347 l -15.92118,0.950313 -4.55663,1.187429 c -2.50615,0.653085 -5.1299,1.325613 -5.83057,1.494505 -1.39643,0.336606 -1.99994,0.971635 -2.55827,2.69188 -0.52488,1.617214 -0.2278,4.515626 0.63696,6.21427 l 0.72384,1.421839 2.02945,-0.130874 c 1.1162,-0.07198 7.73497,-0.638485 14.70838,-1.258899 z m 12.12486,-1.985238 c 7.60396,-0.656036 14.21081,-1.256458 14.68189,-1.33427 l 0.8565,-0.141477 -0.64872,-1.245417 c -1.21466,-2.331914 -1.40146,-4.665692 -0.53912,-6.735522 0.25372,-0.608985 1.03394,-0.631878 -15.73871,0.461787 -7.78536,0.507647 -14.28937,0.923958 -14.45336,0.925135 -0.16398,0.0012 -0.55093,0.589759 -0.85989,1.30796 -0.76462,1.777412 -0.76671,4.302108 -0.005,5.573347 0.806,1.34447 1.85176,2.38125 2.40188,2.38125 0.26332,0 6.70018,-0.536757 14.30415,-1.192793 z"
         id="path4535"
         inkscape:connector-curvature="0" />
      <path
         style="fill:#4a4a4a;stroke-width:0.26458332"
         d="m 172.09256,95.132843 c -1.74625,-0.106339 -9.36625,-0.512485 -16.93333,-0.902544 -7.56709,-0.390062 -14.02623,-0.763529 -14.35365,-0.829926 -0.75473,-0.153054 -0.81109,-1.29244 -0.1028,-2.077967 1.08054,-1.198358 1.44303,-4.000497 0.70271,-5.432118 -0.24913,-0.481771 -0.68347,-0.822536 -1.1903,-0.933852 -0.97471,-0.214082 -1.59242,-1.037132 -1.59242,-2.12177 0,-0.804042 -0.014,-0.812207 -1.37625,-0.801026 l -1.37624,0.0113 -0.76795,-1.493282 c -0.61175,-1.189551 -0.79691,-1.957422 -0.91032,-3.775247 l -0.14237,-2.281965 -0.89902,0.168656 c -1.13443,0.21282 -1.8269,-0.357831 -2.22407,-1.832822 -0.53913,-2.002176 0.0968,-2.46988 4.552,-3.34768 l 1.48598,-0.292785 -0.63384,-1.569244 c -0.37891,-0.938083 -0.69823,-2.404081 -0.79391,-3.644884 l -0.16006,-2.075643 -2.63684,-1.141709 c -3.90481,-1.69072 -3.84821,-1.616612 -4.3165,-5.652303 -0.21641,-1.865046 -0.31727,-3.514304 -0.22412,-3.665018 0.24616,-0.398304 1.8306,-1.013782 2.6098,-1.013782 0.36848,0 0.66996,-0.06349 0.66996,-0.141088 0,-0.0776 -0.32332,-0.762207 -0.71847,-1.521354 -0.62662,-1.203807 -0.71828,-1.684697 -0.71699,-3.761517 10e-4,-1.890946 0.12347,-2.65535 0.59388,-3.712472 l 0.59239,-1.331223 6.40845,-1.64004 6.40845,-1.64004 14.2875,-0.797968 c 7.85812,-0.438882 15.10422,-0.871381 16.10244,-0.961108 l 1.81495,-0.163139 -0.12858,1.154245 c -0.0707,0.634835 -0.33362,1.690027 -0.58423,2.344871 -0.67161,1.754903 -0.41264,3.470872 0.89683,5.942404 1.40789,2.657298 1.40044,2.973084 -0.0753,3.194388 -1.05124,0.157642 -1.18133,0.261198 -1.43303,1.140691 -0.50714,1.772074 -0.61602,3.093506 -0.35178,4.269554 0.14393,0.640572 0.19481,1.499073 0.11306,1.907778 -0.12888,0.644437 -0.27148,0.743101 -1.07398,0.743101 -0.77846,0 -0.87481,0.06092 -0.6069,0.38373 0.24517,0.295411 0.24849,0.720808 0.0144,1.848276 -0.16722,0.8055 -0.24344,1.562588 -0.16938,1.682416 0.074,0.119829 0.20127,1.275129 0.28269,2.567335 0.11428,1.813563 0.27958,2.541424 0.7247,3.191039 0.53572,0.781828 0.64079,0.82387 1.47988,0.592188 0.49677,-0.137165 0.95694,-0.19566 1.02262,-0.12999 0.0657,0.06567 0.15584,1.116147 0.20038,2.334392 0.0649,1.776492 0.23281,2.541924 0.84797,3.866446 0.82577,1.777998 0.95844,1.844522 2.81752,1.412801 1.08857,-0.252788 1.10177,-0.235542 1.01106,1.320086 -0.0345,0.591106 0.10025,1.073682 0.35989,1.289166 0.22824,0.189423 0.41499,0.549765 0.41499,0.800759 0,0.371599 -0.50365,0.54428 -2.71198,0.929828 -3.73706,0.652449 -4.09986,0.815086 -2.35582,1.056066 1.36331,0.188375 1.4084,0.220747 1.24626,0.894725 -0.36373,1.511917 -0.47786,4.463675 -0.17972,4.647941 0.41749,0.258019 0.37054,1.199134 -0.0682,1.367499 -0.3011,0.115544 -0.27785,0.370348 0.13229,1.449745 0.64507,1.697688 0.64666,4.258669 0.004,5.66951 -0.64723,1.419807 -1.83284,2.787377 -2.37372,2.738019 -0.24171,-0.02206 -1.86824,-0.127108 -3.61449,-0.233447 z m 4.32996,-0.931831 c 0.29255,-0.371919 0.79094,-1.211289 1.10752,-1.865265 0.70676,-1.459973 0.63734,-3.914383 -0.15613,-5.519674 l -0.51885,-1.049699 -4.7625,-0.986267 -4.7625,-0.986268 -10.18646,0.01675 c -5.60255,0.0092 -10.54365,0.107638 -10.98021,0.218723 -0.53842,0.137004 0.14246,0.224401 2.11667,0.27169 1.60073,0.03834 3.4462,0.08575 4.10104,0.105338 0.65484,0.01958 4.1766,0.06184 7.82613,0.09388 l 6.6355,0.05826 0.62835,1.341549 c 1.12011,2.391492 0.54203,5.676405 -1.22389,6.954636 -0.64774,0.468858 -1.06182,0.477838 -9.19042,0.199319 -4.68167,-0.160415 -10.28613,-0.369076 -12.45436,-0.463691 -2.33902,-0.102068 -3.88192,-0.07444 -3.79393,0.06794 0.0816,0.131985 0.90308,0.272711 1.82557,0.312724 1.49255,0.06474 11.10902,0.572352 19.13976,1.010309 4.30761,0.234913 13.731,0.815374 13.93757,0.858522 0.0986,0.02059 0.41859,-0.266858 0.71114,-0.638778 z m -10.21713,-2.168054 c 1.35761,-1.423082 1.65651,-3.790518 0.73492,-5.820833 l -0.51042,-1.124479 h -12.41741 -12.4174 l 0.39136,1.124479 c 0.47294,1.358834 0.30511,3.28654 -0.41237,4.736703 l -0.50366,1.017984 2.01732,0.02747 c 1.10953,0.01511 5.7678,0.174834 10.3517,0.354941 12.92521,0.507849 11.95688,0.531839 12.76596,-0.31627 z m 10.97536,-7.128666 c -0.25743,-0.06708 -0.61462,-0.06267 -0.79375,0.0098 -0.17913,0.07248 0.0315,0.127363 0.46806,0.121971 0.43656,-0.0054 0.58313,-0.06469 0.32569,-0.131774 z m 0.22783,-2.829602 0.0243,-2.217134 -3.01214,-0.404437 -3.01213,-0.404437 -6.62549,1.277721 c -3.64402,0.702746 -6.69689,1.349123 -6.78416,1.436391 -0.43734,0.43734 0.98638,0.679505 8.5373,1.452142 4.51115,0.461597 8.44021,0.876982 8.73125,0.923081 0.29104,0.0461 0.88636,0.09956 1.32292,0.118811 l 0.79375,0.03499 0.0243,-2.217132 z m -19.92528,0.361212 c -0.15256,-0.583383 -0.2609,-0.579128 -3.64699,0.143264 l -1.5875,0.33868 2.68721,0.02657 c 2.57299,0.02543 2.68126,0.0038 2.54728,-0.50851 z m 8.37599,-3.200858 c 12.86086,-2.52046 15.33575,-3.075591 15.19278,-3.407815 -0.0939,-0.218281 -0.22806,-0.731446 -0.29804,-1.140367 -0.0781,-0.456615 -0.25575,-0.694177 -0.46031,-0.615683 -0.18319,0.0703 -6.98496,1.448901 -15.11503,3.063563 -19.08372,3.790093 -17.29551,3.352638 -17.29551,4.231029 0,0.397795 0.0893,0.814027 0.19844,0.924957 0.32534,0.330681 1.73325,0.08868 17.77767,-3.055684 z m -23.53236,1.519785 c 2.69214,-0.506412 11.68136,-2.195031 19.97605,-3.752487 8.29468,-1.557454 15.19237,-2.933264 15.32819,-3.057348 0.13582,-0.124087 0.17186,-0.300699 0.0801,-0.39247 -0.0918,-0.09177 -7.43532,1.224294 -16.31899,2.924591 -8.88367,1.7003 -16.42064,3.053323 -16.74883,3.006719 -1.32987,-0.188835 -2.5486,-4.886602 -1.52276,-5.869701 0.2283,-0.218782 4.10567,-1.128271 9.12813,-2.141125 14.78448,-2.98151 22.99765,-4.662376 23.48561,-4.80645 0.25678,-0.07581 0.40746,-0.233966 0.33485,-0.351451 -0.11121,-0.179943 -12.59177,2.269926 -36.20165,7.106195 -2.73506,0.560252 -5.05678,1.102757 -5.15937,1.205563 -0.35891,0.359667 -0.0878,3.234751 0.44905,4.76219 0.62007,1.764208 1.25264,2.585091 1.85621,2.408799 0.23025,-0.06725 2.62129,-0.536612 5.31342,-1.043025 z m 19.12066,-4.76609 c 8.55183,-1.646013 15.60346,-3.047429 15.67029,-3.114257 0.0668,-0.06683 -0.12701,-0.76925 -0.43073,-1.560938 -0.30373,-0.791692 -0.5688,-2.059094 -0.58904,-2.81645 -0.033,-1.233205 -0.0921,-1.364136 -0.56597,-1.253726 -0.29104,0.06781 -7.29494,1.490057 -15.56421,3.160551 -8.26928,1.670497 -15.41303,3.1345 -15.875,3.253343 -0.69648,0.179171 -0.85419,0.361292 -0.92327,1.066237 -0.10321,1.053073 0.60683,3.573825 1.16346,4.130452 0.24205,0.242049 0.65211,0.354121 0.98951,0.270442 0.3169,-0.07859 7.57313,-1.489639 16.12496,-3.135654 z m 13.48924,2.838262 c -0.1819,-0.0734 -0.47956,-0.0734 -0.66146,0 -0.1819,0.0734 -0.0331,0.133453 0.33073,0.133453 0.3638,0 0.51263,-0.06006 0.33073,-0.133453 z m -38.98706,-5.261676 c 1.83395,-0.370922 3.60053,-0.729922 3.92574,-0.79778 l 0.59128,-0.123375 -0.54982,-0.549815 c -0.43026,-0.430265 -0.52943,-0.806127 -0.45606,-1.728578 0.0903,-1.135658 0.07,-1.172813 -0.55456,-1.016045 -0.35658,0.08949 -2.06344,0.450927 -3.79304,0.803188 -1.7296,0.352258 -3.25488,0.708549 -3.38951,0.791755 -0.59972,0.370647 0.0665,3.295054 0.75067,3.295054 0.0775,0 1.64135,-0.303482 3.4753,-0.674404 z m 21.69916,-4.883134 c 8.64538,-1.745541 15.76611,-3.173712 15.82386,-3.173712 0.0577,0 -0.0804,-0.264617 -0.3069,-0.588039 -0.22653,-0.323418 -0.41187,-0.918731 -0.41187,-1.322916 0,-0.874803 0.0707,-0.869299 -2.84708,-0.221544 -1.27176,0.282334 -7.8487,1.653416 -14.61542,3.046849 -16.69576,3.438062 -15.19739,3.043833 -15.29398,4.023924 -0.0984,0.998548 0.54567,1.731248 1.35634,1.542965 0.3169,-0.0736 7.64967,-1.561989 16.29505,-3.307527 z m -14.48982,-0.801383 c 2.81652,-0.586989 9.82392,-2.032783 15.57199,-3.212873 5.74807,-1.180092 10.5701,-2.263383 10.71563,-2.407316 0.31915,-0.315675 1.54923,-0.550471 -13.35716,2.549609 -8.10756,1.686132 -12.17806,2.42579 -12.47502,2.26686 -0.93821,-0.502115 -1.95941,-5.155189 -1.25119,-5.701051 0.19825,-0.152802 5.89685,-1.503634 12.66357,-3.001851 11.52814,-2.55244 13.92197,-3.157286 12.56771,-3.175471 -0.29104,-0.0039 -7.49364,1.540284 -16.00578,3.431538 -8.51214,1.891254 -15.50707,3.438643 -15.54428,3.438643 -0.0372,0 -0.0676,0.570299 -0.0676,1.267328 0,2.175674 1.1357,5.611839 1.8548,5.611839 0.11353,0 2.51086,-0.480264 5.32738,-1.067255 z m 13.71991,-3.700939 c 6.47567,-1.327957 11.90556,-2.454899 12.06642,-2.504316 0.19376,-0.05953 0.0844,-0.70037 -0.3239,-1.898773 -0.339,-0.994909 -0.61943,-2.263433 -0.62319,-2.818943 -0.006,-0.835168 -0.087,-0.986735 -0.46985,-0.875528 -0.71436,0.207492 -24.5814,5.457421 -24.81034,5.457421 -0.30528,0 0.0648,2.935496 0.50157,3.978857 0.49764,1.188675 0.69855,1.368747 1.34819,1.208362 0.29543,-0.07294 5.83542,-1.21912 12.3111,-2.54708 z m 15.21354,-2.449486 c 0.1782,-0.180859 0.10634,-0.21263 -0.22008,-0.0973 -0.26656,0.09418 -0.77258,0.171233 -1.12448,0.171233 -0.3519,0 -0.63982,0.116086 -0.63982,0.257969 0,0.315595 1.61208,0.04597 1.98438,-0.331899 z m 0.32483,-2.477734 c -0.0736,-0.384769 -0.0441,-1.012025 0.0654,-1.393901 0.22279,-0.776838 0.6994,-0.399078 -7.2694,-5.761707 l -3.96875,-2.670785 -15.47812,1.42674 c -8.51297,0.784707 -15.6443,1.489094 -15.84739,1.565303 -0.29603,0.111082 -0.33439,0.592262 -0.19343,2.426109 0.0967,1.25815 0.30654,2.445041 0.4663,2.637537 0.20309,0.244708 0.61944,0.297312 1.38405,0.174869 0.60148,-0.09632 7.5825,-1.024675 15.51338,-2.063018 l 14.4198,-1.887895 1.41444,0.781494 1.41444,0.781495 1.89285,-0.409157 c 1.04107,-0.225036 1.94056,-0.363811 1.99887,-0.308389 0.0583,0.05542 0.17737,0.81858 0.26458,1.695906 l 0.15857,1.595137 1.71979,1.045579 c 0.94588,0.575068 1.82297,1.049783 1.94907,1.054921 0.1261,0.0051 0.1691,-0.305469 0.0956,-0.690238 z m 1.69988,-7.49709 c -0.0527,-1.16119 0.0293,-2.470221 0.18221,-2.908958 0.25158,-0.721693 0.2203,-0.812204 -0.32824,-0.94988 -0.33348,-0.0837 -2.77022,0.09424 -5.41499,0.395416 -2.64477,0.301176 -4.87284,0.547593 -4.95128,0.547593 -0.40761,0 0.45521,0.705909 3.12023,2.552763 2.7436,1.901319 3.06791,2.055003 4.68663,2.22093 3.13017,0.320857 2.81424,0.537813 2.70544,-1.857864 z m -26.41102,-2.798816 c 12.30502,-1.083934 13.77537,-1.167616 14.31405,-0.814657 0.53803,0.352533 1.29793,0.313367 7.32068,-0.377322 3.69618,-0.423878 6.92869,-0.772134 7.18335,-0.773902 0.28556,-0.002 0.46302,-0.206028 0.46302,-0.532382 0,-0.291042 -0.14883,-0.529509 -0.33073,-0.529927 -0.30945,-7.15e-4 -3.39858,0.269022 -22.80688,1.99144 -8.77562,0.778804 -8.27414,0.860578 -9.80301,-1.598526 -0.69981,-1.1256 -0.79375,-1.514006 -0.79375,-3.281822 0,-2.436691 0.67286,-4.458477 1.54342,-4.637629 0.31528,-0.06488 6.52637,-0.488821 13.80241,-0.942089 17.88014,-1.113858 17.33021,-1.066259 17.33021,-1.500008 0,-0.20128 -0.16609,-0.429697 -0.36908,-0.507593 -0.203,-0.0779 -7.49557,0.285613 -16.20573,0.807798 l -15.83665,0.949426 -5.95313,1.536189 -5.95312,1.536189 -0.60028,1.43463 c -0.87314,2.086721 -0.74961,5.07421 0.29803,7.207762 0.74842,1.524184 0.76586,1.53828 1.71979,1.390122 0.53004,-0.08232 7.13487,-0.693286 14.6774,-1.357699 z m 13.80298,-2.135745 c 8.00364,-0.684011 14.63712,-1.314988 14.74106,-1.402171 0.10394,-0.08718 -0.15176,-0.834042 -0.56823,-1.659686 -0.99046,-1.963603 -1.2137,-3.671354 -0.70042,-5.358107 0.21934,-0.720814 0.34108,-1.368296 0.27053,-1.438849 -0.14165,-0.141646 -27.2444,1.508461 -29.34604,1.786686 -1.28456,0.170057 -1.32684,0.20446 -1.79246,1.45849 -0.62393,1.680451 -0.65356,4.051904 -0.0652,5.218183 0.58557,1.160729 1.96936,2.617777 2.49754,2.629774 0.22612,0.0051 6.95956,-0.550308 14.96321,-1.23432 z"
         id="path4533"
         inkscape:connector-curvature="0" />
      <path
         style="fill:#313131;stroke-width:0.26458332"
         d="m 158.06964,94.339241 c -9.74989,-0.551794 -17.75685,-1.013669 -17.79323,-1.026387 -0.31816,-0.111226 0.0646,-1.557335 0.57173,-2.160019 0.78978,-0.938599 1.28081,-3.058335 0.96419,-4.162324 -0.37824,-1.318834 -0.71314,-1.735934 -1.64436,-2.047957 -1.03654,-0.347314 -1.61286,-1.27839 -1.42605,-2.303876 l 0.13283,-0.729173 -1.4185,0.166717 -1.4185,0.166716 -0.6656,-1.157335 c -0.76447,-1.329237 -1.2473,-3.374456 -1.2473,-5.283385 v -1.321885 l -0.87272,0.163725 c -1.14236,0.214307 -1.98648,-0.458137 -2.29541,-1.828581 -0.44482,-1.973233 0.0647,-2.412627 3.56501,-3.074508 2.67346,-0.505529 2.57275,-0.440087 2.09599,-1.362054 -0.51742,-1.000575 -1.15928,-3.97665 -1.16536,-5.403366 l -0.005,-1.077722 -2.93389,-1.282517 c -1.77986,-0.778046 -3.08981,-1.520478 -3.33028,-1.887482 -0.51758,-0.789917 -1.20965,-6.625522 -0.86266,-7.273895 0.24416,-0.456205 1.7319,-1.022158 2.69506,-1.025228 0.57873,-0.0019 0.58688,0.07192 -0.17929,-1.623148 -0.86658,-1.917207 -1.07049,-3.58809 -0.68633,-5.62406 0.592,-3.137488 0.36859,-2.994307 7.57343,-4.853793 5.46071,-1.409349 6.75586,-1.652263 9.49792,-1.781391 4.33606,-0.204194 24.68226,-1.404906 27.05364,-1.596547 l 1.91823,-0.155019 v 0.903441 c 0,0.496893 -0.2528,1.474929 -0.56177,2.173414 -0.80371,1.816925 -0.58579,3.798211 0.66881,6.080681 0.52321,0.951864 0.95129,2.073286 0.95129,2.492048 0,0.677526 -0.11251,0.780396 -1.02155,0.933978 -0.90032,0.152107 -1.05737,0.292116 -1.32329,1.179679 -0.50994,1.702002 -0.63499,3.295397 -0.34194,4.356744 0.15397,0.557637 0.20862,1.37049 0.12145,1.80634 -0.15016,0.750807 -0.21315,0.785124 -1.19857,0.652952 -1.00499,-0.134799 -1.02486,-0.122691 -0.58896,0.358971 0.39097,0.432016 0.4101,0.661341 0.14352,1.720047 -0.21985,0.873095 -0.23367,1.800062 -0.0484,3.249443 0.14254,1.115327 0.251,2.346923 0.24102,2.736876 -0.01,0.389954 0.23659,1.121169 0.54792,1.62492 0.53611,0.867437 0.61798,0.904203 1.547,0.694677 0.53952,-0.121682 1.01428,-0.187894 1.05503,-0.14714 0.0408,0.04075 0.10871,1.07597 0.15101,2.300483 0.0612,1.77269 0.23346,2.579227 0.84518,3.957849 l 0.76827,1.731465 1.4106,-0.25568 c 1.66642,-0.302051 2.15815,-0.03609 1.65871,0.897125 -0.26468,0.494568 -0.22609,0.710092 0.24007,1.340607 0.93406,1.263386 0.77785,1.403601 -2.15651,1.935708 -3.72492,0.675462 -4.1125,0.853477 -2.38125,1.0937 0.76398,0.10601 1.38906,0.28685 1.38906,0.40187 0,0.115022 -0.18754,0.941157 -0.41675,1.835857 -0.35028,1.367282 -0.36407,1.832284 -0.0864,2.915562 0.2529,0.986782 0.25768,1.376358 0.0204,1.66229 -0.24065,0.28997 -0.20654,0.574556 0.15258,1.272995 0.7248,1.409639 0.64069,4.790599 -0.1573,6.323497 -0.62275,1.196276 -1.58984,2.408838 -1.8737,2.349307 -0.0838,-0.01757 -8.1295,-0.483415 -17.8794,-1.035212 z m 18.53741,-0.321908 c 1.67164,-1.982472 2.02863,-4.679881 0.93039,-7.029902 -0.3523,-0.75384 -0.72946,-1.370618 -0.83813,-1.370618 -0.10868,0 -2.23755,-0.422799 -4.73083,-0.939552 l -4.53324,-0.939548 -10.90051,0.07965 c -7.98782,0.05837 -11.0419,0.165878 -11.42967,0.402339 -0.42184,0.257233 1.7103,0.324316 10.51181,0.330729 l 11.04098,0.008 0.56389,1.105326 c 0.85692,1.679704 0.96956,3.87115 0.27295,5.310174 -0.31141,0.643265 -0.84047,1.427252 -1.17572,1.742196 -0.60798,0.571175 -0.62723,0.571979 -7.60443,0.317961 -15.91266,-0.579327 -17.97511,-0.619901 -17.97511,-0.353611 0,0.160298 2.38655,0.396513 6.01927,0.595771 3.3106,0.181588 10.84131,0.60022 16.7349,0.930293 5.89359,0.330076 11.092,0.616 11.552,0.635389 0.64251,0.02708 1.00444,-0.164063 1.56145,-0.824643 z m -9.8554,-2.628831 c 0.95458,-1.545312 1.02717,-3.58494 0.18625,-5.233281 l -0.54464,-1.067575 h -12.40571 -12.40572 l 0.41811,1.307465 c 0.34959,1.093192 0.36654,1.537909 0.10344,2.713585 -0.17307,0.773364 -0.48417,1.732817 -0.69133,2.132116 l -0.37665,0.726 0.9765,0.02532 c 0.53707,0.01392 4.90555,0.176326 9.70774,0.360878 4.80219,0.184553 9.97661,0.321985 11.49871,0.305404 l 2.76745,-0.03015 0.76585,-1.239768 z m 10.10341,-6.580619 c -0.58208,-0.120398 -1.35599,-0.213902 -1.71979,-0.207782 l -0.66146,0.01114 0.66146,0.211823 c 0.3638,0.116509 1.13771,0.210013 1.71979,0.207782 l 1.05833,-0.004 -1.05833,-0.218908 z m -34.19308,-0.959395 c 0.11151,-0.06618 0.12278,-0.249727 0.025,-0.407884 -0.12399,-0.200623 0.27466,-0.240871 1.3186,-0.133125 0.95533,0.0986 1.49632,0.05532 1.49632,-0.119716 0,-0.15326 0.26603,-0.20738 0.60329,-0.122735 0.33181,0.08328 0.86333,0.08342 1.18115,2.65e-4 0.4995,-0.130623 0.52685,-0.202118 0.2017,-0.527265 -0.20688,-0.206883 -0.31258,-0.541813 -0.23488,-0.744291 0.10193,-0.265637 -0.0485,-0.347305 -0.54041,-0.293312 -0.37492,0.0412 -0.68168,-0.02782 -0.68168,-0.153329 0,-0.12551 0.23813,-0.2282 0.52917,-0.2282 0.29104,0 0.52916,-0.127085 0.52916,-0.282414 0,-0.37592 -1.12736,-0.02103 -1.39681,0.439722 -0.15148,0.259019 -0.73109,0.326083 -2.18433,0.252738 -1.3753,-0.06941 -1.92413,-0.01246 -1.80093,0.186896 0.11429,0.184918 0.0134,0.223875 -0.28409,0.109715 -0.67713,-0.259839 -1.71656,0.07404 -2.02506,0.65047 -0.14792,0.276381 -0.17454,0.486712 -0.0592,0.4674 0.11537,-0.01931 0.56696,-0.01265 1.00352,0.01482 0.66144,0.0416 0.7075,0.08367 0.27632,0.252319 -0.51352,0.200859 -0.51352,0.204814 0,0.523203 0.47146,0.292315 0.45866,0.304771 -0.14403,0.14023 -0.3638,-0.09932 -0.74893,-0.313368 -0.85584,-0.475655 -0.24071,-0.365376 -0.25966,-0.09045 -0.0343,0.496927 0.13977,0.364244 0.39711,0.40754 1.52135,0.255974 0.74422,-0.100335 1.44436,-0.236575 1.55588,-0.302752 z m -0.97112,-0.715954 c 0.0881,-0.229582 -0.0451,-0.420442 -0.33669,-0.482452 -0.38654,-0.0822 -0.31411,-0.191998 0.36431,-0.552307 0.94842,-0.503706 2.19595,-0.59875 2.19595,-0.167299 0,0.162007 -0.2256,0.210807 -0.52916,0.114462 -0.61744,-0.195969 -1.5875,0.05744 -1.5875,0.414705 0,0.450924 2.07089,0.281554 2.33535,-0.190998 0.16919,-0.302323 0.39835,-0.374372 0.74075,-0.232886 0.43937,0.181557 0.40547,0.245052 -0.29798,0.55811 -0.43656,0.194283 -1.06947,0.358613 -1.40645,0.365178 -0.33699,0.0066 -0.84033,0.133749 -1.11853,0.282638 -0.40024,0.214199 -0.47539,0.191415 -0.36005,-0.109151 z m -2.00976,-0.530122 c 0,-0.05719 0.18478,-0.17489 0.41062,-0.261554 0.23546,-0.09035 0.34166,-0.046 0.24897,0.103984 -0.15538,0.25141 -0.65959,0.371859 -0.65959,0.15757 z m 6.61458,-0.160599 c 0.3193,-0.206344 0.27745,-0.257273 -0.21405,-0.260533 -0.33601,-0.0021 -0.54058,-0.117875 -0.4546,-0.256992 0.19242,-0.311349 1.26312,0.05197 1.40468,0.476646 0.0578,0.173355 -0.16518,0.30371 -0.51554,0.301411 -0.49566,-0.0033 -0.53913,-0.05461 -0.22049,-0.260532 z m 31.028,0.71797 c -0.0703,-0.623763 -0.006,-1.575326 0.14289,-2.114589 0.1489,-0.539261 0.18591,-1.032891 0.0823,-1.096958 -0.10366,-0.06406 -1.51923,-0.30209 -3.14572,-0.528947 l -2.95724,-0.412464 -6.29123,1.201629 c -3.46018,0.660897 -6.4996,1.263198 -6.75426,1.33845 -0.52671,0.155639 -0.63594,0.89476 -0.13229,0.895194 0.47647,5.29e-4 15.8388,1.572147 16.47031,1.685092 0.29104,0.05205 1.02056,0.110858 1.62115,0.130675 l 1.09198,0.03603 z m -18.328,-0.204472 c -0.65484,-0.133467 -1.33121,-0.43415 -1.50304,-0.668187 -0.28638,-0.390073 -0.53436,-0.385228 -2.97656,0.05815 -1.46528,0.26602 -2.66409,0.545394 -2.66403,0.620834 6e-5,0.07544 1.8753,0.158472 4.16719,0.184515 3.11446,0.03539 3.86631,-0.01394 2.97644,-0.195312 z M 158.89069,80.6258 c 5.07822,-0.998807 12.18265,-2.394111 15.78762,-3.100671 5.50122,-1.078219 6.52626,-1.34975 6.37873,-1.689716 -0.0967,-0.222782 -0.23251,-0.73605 -0.30185,-1.140592 -0.0902,-0.526452 -0.24881,-0.699773 -0.55789,-0.609733 -0.2375,0.06919 -7.39698,1.507474 -15.90995,3.196183 -8.51297,1.688711 -15.68648,3.131971 -15.94115,3.20725 -0.45955,0.135842 -0.66348,1.400053 -0.28663,1.776902 0.35602,0.35602 1.78301,0.140004 10.83112,-1.639623 z m -17.09292,0.266774 c 25.02996,-4.634526 35.98333,-6.797323 35.98333,-7.105084 0,-0.18783 -0.18464,-0.341511 -0.41032,-0.341511 -0.36161,0 -6.31302,1.127676 -26.66674,5.052822 -3.03243,0.584793 -5.77087,1.026597 -6.08542,0.981782 -0.84076,-0.119785 -1.59377,-1.863291 -1.71736,-3.976349 -0.0973,-1.662951 -0.0635,-1.795875 0.52073,-2.050828 0.50317,-0.219572 20.14948,-4.294489 30.12578,-6.2485 2.13596,-0.418362 2.91146,-0.725236 2.60563,-1.031076 -0.0755,-0.07547 -6.55644,1.166458 -14.40216,2.759839 -7.84571,1.593379 -17.10628,3.468847 -20.57904,4.167704 -7.33447,1.475983 -7.04351,1.279811 -6.53479,4.405929 0.44776,2.751473 1.47344,4.50284 2.50114,4.270703 0.307,-0.06935 2.40364,-0.467789 4.65922,-0.885431 z m 3.10334,0.331052 c -0.0879,-0.08792 -0.31612,-0.09732 -0.50712,-0.02088 -0.21107,0.08446 -0.14837,0.147156 0.15985,0.159851 0.27892,0.01148 0.43519,-0.05105 0.34727,-0.138964 z m 32.73447,-1.937398 c -0.13824,-0.134843 -1.14432,-0.313584 -2.23573,-0.397206 -2.39793,-0.183724 -2.16421,0.01717 0.39688,0.341148 1.01864,0.128858 1.90566,0.249349 1.97114,0.267756 0.0655,0.01841 0.006,-0.07686 -0.13229,-0.211698 z m -27.62133,-1.064885 c 2.97526,-0.575011 10.11253,-1.945962 15.8606,-3.046563 5.74807,-1.1006 10.71209,-2.05944 11.03115,-2.130756 l 0.58012,-0.129664 -0.68341,-1.492771 c -0.44661,-0.975516 -0.69051,-1.983568 -0.70389,-2.909189 -0.0113,-0.779031 -0.0328,-1.416421 -0.0478,-1.416421 -0.0277,0 -21.71083,4.41325 -28.64832,5.830912 -2.08327,0.425712 -3.91422,0.852172 -4.06876,0.947687 -0.42624,0.263432 -0.0443,3.109288 0.58215,4.337158 0.29605,0.580292 0.57209,1.055077 0.61343,1.055077 0.0414,0 2.50947,-0.470461 5.48473,-1.04547 z m -13.70832,-4.656158 c 4.79359,-0.921888 4.51906,-0.803341 3.71724,-1.605164 -0.55889,-0.558898 -0.64768,-0.844306 -0.53168,-1.709155 0.0766,-0.571021 0.0613,-1.037254 -0.034,-1.036071 -0.47078,0.0058 -7.78364,1.597226 -8.02491,1.746342 -0.66566,0.411398 0.33483,3.278592 1.14405,3.278592 0.12201,0 1.8002,-0.303543 3.7293,-0.674544 z m 18.19184,-4.207486 c 7.49432,-1.519315 14.80001,-3.006926 16.23485,-3.305805 1.43485,-0.298879 2.66199,-0.543415 2.72698,-0.543415 0.065,0 -0.0672,-0.264617 -0.29371,-0.588039 -0.22653,-0.323418 -0.41187,-0.918731 -0.41187,-1.322916 0,-0.404183 -0.10828,-0.734878 -0.24062,-0.734878 -0.13234,0 -2.2457,0.424265 -4.69635,0.942811 -2.45066,0.518544 -9.61114,2.003478 -15.9122,3.299849 -6.30105,1.296374 -11.56956,2.426949 -11.70781,2.512388 -0.58386,0.360847 -0.12953,2.510613 0.52916,2.503882 0.08,-7.94e-4 6.27724,-1.244563 13.77157,-2.763877 z m -0.94969,-3.591497 c 8.45321,-1.750023 15.54807,-3.252166 15.76635,-3.338094 0.21829,-0.08593 0.27241,-0.203711 0.12027,-0.261734 -0.20293,-0.0774 -21.29036,4.162422 -25.06751,5.04005 -0.26031,0.06048 -0.69366,-0.126568 -0.963,-0.415673 -0.78449,-0.842047 -1.56675,-4.517962 -1.11035,-5.217626 0.1413,-0.216617 3.4832,-1.088519 8.27103,-2.157915 4.41867,-0.986939 10.10998,-2.259217 12.64735,-2.827284 2.75683,-0.617197 4.65939,-1.170776 4.72766,-1.37558 0.0767,-0.229958 -0.0484,-0.292821 -0.38008,-0.191049 -0.27188,0.08343 -7.28089,1.647769 -15.57557,3.476319 -8.29469,1.828552 -15.28961,3.388157 -15.54428,3.465788 -1.24183,0.378571 0.11791,6.984659 1.43766,6.984659 0.16555,0 7.21725,-1.431838 15.67047,-3.181861 z m -4.42338,0.02461 c 2.7369,-0.57233 8.25041,-1.708287 12.25223,-2.524352 4.00183,-0.816065 7.42464,-1.534599 7.60626,-1.596742 0.24886,-0.08515 0.20037,-0.442423 -0.19678,-1.450004 -0.28985,-0.735358 -0.60468,-1.997881 -0.69961,-2.805604 -0.15562,-1.324129 -0.22735,-1.454957 -0.72925,-1.330029 -0.30616,0.07621 -5.73588,1.281784 -12.06603,2.679062 -6.33016,1.397277 -11.77727,2.606532 -12.10469,2.68723 -0.48483,0.119497 -0.59531,0.330012 -0.59531,1.134327 0,1.530509 0.94171,4.2467 1.47234,4.2467 0.0465,0 2.32393,-0.468267 5.06084,-1.040593 z m 23.34269,-3.891018 c 0.0606,-0.05251 0.0468,-0.158951 -0.0308,-0.23654 -0.2203,-0.220302 -2.32838,0.180412 -2.32838,0.442595 0,0.20987 2.08968,0.02736 2.35921,-0.206055 z m -31.46337,-1.542126 c 2.40109,-0.520472 5.08,-1.117393 5.95312,-1.326491 1.57471,-0.377114 4.94694,-1.109387 6.21771,-1.350164 0.3638,-0.06893 0.84005,-0.192047 1.05833,-0.273593 0.21829,-0.08155 0.69454,-0.198351 1.05834,-0.259565 0.72141,-0.121387 3.15734,-0.652292 6.12749,-1.335476 l 1.89416,-0.435687 -1.03426,-0.544384 c -0.56885,-0.299411 -1.10022,-0.527852 -1.18083,-0.507647 -0.19843,0.04974 -11.54142,1.535569 -16.78677,2.198915 -2.32833,0.29445 -4.94771,0.64461 -5.82083,0.778134 -0.87313,0.133524 -2.44837,0.323419 -3.50054,0.421989 -1.05216,0.09857 -1.86212,0.261583 -1.79991,0.362251 0.0622,0.100669 -0.23035,0.132622 -0.65016,0.07101 -0.4198,-0.06161 -1.12989,0.07087 -1.57798,0.294402 -0.44808,0.223536 -0.75597,0.311403 -0.68419,0.195261 0.0718,-0.116141 -0.10481,-0.424125 -0.39242,-0.684409 -0.58933,-0.533329 -0.70304,-0.209511 -0.17839,0.50799 0.40973,0.560335 5.96335,3.040832 6.53463,2.918656 0.21828,-0.04668 2.3614,-0.510718 4.7625,-1.03119 z m 30.91612,0.690213 c 0.55441,-0.15572 0.4333,-0.279037 -1.12448,-1.144868 -1.50055,-0.83403 -1.74581,-0.903284 -1.74581,-0.492961 0,0.262563 0.17859,0.625608 0.39688,0.806765 0.21828,0.181157 0.39687,0.493392 0.39687,0.693854 0,0.385945 0.96418,0.449654 2.07654,0.13721 z m 0.61095,-2.541548 0.0906,-1.4459 -5.68855,-3.838893 -5.68854,-3.838893 -15.47812,1.444393 c -8.51297,0.794417 -15.64347,1.446167 -15.84556,1.448335 -0.50416,0.0054 -0.26225,4.649495 0.26949,5.173472 0.30462,0.300175 2.83472,0.02877 15.84065,-1.699237 l 15.47813,-2.05647 0.92604,0.53451 c 0.50932,0.293981 1.12266,0.652027 1.36299,0.795658 0.29497,0.176295 1.04764,0.145915 2.31649,-0.0935 1.03376,-0.195056 1.9582,-0.276001 2.05432,-0.179879 0.0961,0.09612 0.1848,0.796514 0.19705,1.556426 l 0.0223,1.381657 1.84223,1.132111 c 1.01323,0.622661 1.92495,1.132111 2.02603,1.132111 0.10109,0 0.22459,-0.650656 0.27443,-1.445901 z m -43.25153,-2.724372 c -0.0662,-0.252965 -0.11801,0.01631 -0.11507,0.598398 0.003,0.582083 0.0571,0.789054 0.12041,0.459936 0.0633,-0.329119 0.0609,-0.805369 -0.005,-1.058334 z m 42.41612,-0.195352 c -0.18115,-0.218282 -0.3889,-0.396875 -0.46166,-0.396875 -0.0728,0 0.0159,0.178593 0.19708,0.396875 0.18116,0.218281 0.38891,0.396875 0.46167,0.396875 0.0728,0 -0.0159,-0.178594 -0.19709,-0.396875 z m -42.33196,-3.661733 c 0.14325,-0.142932 0.87585,-0.222029 7.74405,-0.836104 2.44097,-0.218242 4.94128,-0.453048 5.55625,-0.521789 1.09663,-0.122583 6.22816,-0.590119 14.58368,-1.328727 l 4.20513,-0.371724 1.1342,0.780351 c 0.62382,0.429193 1.25166,0.780351 1.39521,0.780351 0.14356,0 0.3007,0.107231 0.34921,0.238291 0.11022,0.297811 6.57048,4.688575 6.57048,4.465679 0,-0.04937 -0.66805,-0.562411 -1.48455,-1.140094 -0.81651,-0.577684 -1.81596,-1.318225 -2.22101,-1.645647 -0.40504,-0.327422 -0.80304,-0.595313 -0.88442,-0.595313 -0.0814,0 -1.22934,-0.779411 -2.551,-1.732025 l -2.40302,-1.732024 -2.57018,0.267652 c -1.41361,0.147209 -4.118,0.394253 -6.00977,0.548987 -1.89178,0.154734 -4.09443,0.341199 -4.8948,0.414367 -9.64539,0.881766 -12.95282,1.173089 -15.08125,1.328377 -3.07593,0.224415 -2.91414,0.197959 -3.63517,0.594446 -0.40989,0.225396 -0.55863,0.50684 -0.48268,0.913318 0.0604,0.32314 0.13678,1.123309 0.16979,1.778152 0.0556,1.10358 0.0716,1.07132 0.2181,-0.441265 0.087,-0.897539 0.21824,-1.691906 0.29175,-1.765259 z m 44.84551,-0.373085 c 0,-1.27335 0.1022,-2.642604 0.22712,-3.042786 0.22397,-0.717509 0.21112,-0.727553 -0.92604,-0.723901 -1.26113,0.0041 -10.02429,0.974021 -10.1767,1.12643 -0.0781,0.07805 4.63332,3.473152 5.98082,4.309887 0.34802,0.216103 2.20042,0.480892 4.23334,0.605128 0.65824,0.04023 0.66146,0.02916 0.66146,-2.274758 z M 147.9829,48.962132 c 12.04819,-1.071889 13.52386,-1.156528 14.05833,-0.806329 0.53377,0.349738 1.32359,0.309037 7.44091,-0.383448 3.76406,-0.426095 6.99258,-0.776966 7.17448,-0.779713 0.52932,-0.008 0.39823,-1.063111 -0.13229,-1.064825 -0.25466,-8.2e-4 -3.8563,0.296871 -8.00365,0.661542 -4.14734,0.364671 -10.86861,0.95167 -14.93616,1.304442 l -7.39553,0.641404 -0.73938,-0.526486 c -1.10643,-0.787841 -2.07873,-2.642076 -2.24863,-4.288254 -0.20661,-2.001832 0.72737,-5.140432 1.57994,-5.309357 0.3238,-0.06416 6.66091,-0.488993 14.08247,-0.944081 17.7119,-1.086089 17.06563,-1.024366 17.06563,-1.629874 0,-0.629352 1.22509,-0.660247 -17.19792,0.433715 l -15.47812,0.919095 -5.78649,1.535791 -5.78648,1.53579 -0.50632,0.986923 c -1.17919,2.298481 -1.08229,5.502473 0.23987,7.931732 l 0.69801,1.282467 1.20508,-0.151468 c 0.66279,-0.08331 7.26261,-0.690387 14.66625,-1.349066 z m 11.72653,-1.963684 c 6.51968,-0.576143 12.95529,-1.129007 14.30136,-1.228588 1.34607,-0.09958 2.44739,-0.276229 2.44739,-0.392552 0,-0.116324 -0.23345,-0.607173 -0.51878,-1.090775 -0.28533,-0.483603 -0.71259,-1.635774 -0.94947,-2.560382 -0.35389,-1.381391 -0.37584,-1.898884 -0.12309,-2.90264 0.16917,-0.671845 0.43481,-1.374824 0.59029,-1.562177 0.15549,-0.187353 0.23598,-0.380994 0.17886,-0.430313 -0.0774,-0.0668 -30.43506,1.836978 -30.87654,1.936312 -0.0446,0.01003 -0.33433,0.583777 -0.64394,1.275001 -0.64837,1.447552 -0.77225,4.317373 -0.22944,5.315075 0.18514,0.340297 0.75737,1.084438 1.27161,1.653646 0.73114,0.809284 1.12716,1.034925 1.81639,1.034925 0.48477,0 6.21569,-0.47139 12.73536,-1.047532 z"
         id="path4531"
         inkscape:connector-curvature="0" />
      <path
         style="fill:#050505;stroke-width:0.26458332"
         d="m 170.10818,94.978448 c -3.27421,-0.187769 -10.59656,-0.584131 -16.27187,-0.880801 -5.67531,-0.296669 -11.06289,-0.609293 -11.9724,-0.694716 -1.59238,-0.149566 -1.65364,-0.182428 -1.65364,-0.887005 0,-0.402426 0.24089,-0.949687 0.53531,-1.216136 0.68654,-0.621308 1.41967,-3.118789 1.18817,-4.047622 -0.29215,-1.172155 -0.97437,-2.439879 -1.29261,-2.401972 -1.22353,0.145737 -2.21455,-1.061564 -1.90003,-2.314708 0.15844,-0.631296 0.13768,-0.639932 -1.13326,-0.471336 -1.24315,0.164909 -1.3211,0.136361 -1.95921,-0.717487 -0.94225,-1.260816 -1.34352,-2.710135 -1.36921,-4.945361 l -0.0223,-1.93947 -0.96448,0.152228 c -1.24649,0.196736 -1.98248,-0.398844 -2.29929,-1.860619 -0.23137,-1.067615 -0.032,-1.860537 0.56741,-2.257123 0.14261,-0.09435 0.98622,-0.310409 1.8747,-0.480142 0.88848,-0.169733 2.0625,-0.424715 2.60893,-0.566627 l 0.99353,-0.258021 -0.41681,-0.806006 c -0.52215,-1.009737 -1.16269,-3.981172 -1.16877,-5.421857 l -0.005,-1.089605 -2.94481,-1.287288 c -1.675,-0.732207 -3.10524,-1.532147 -3.31687,-1.855143 -0.47615,-0.726692 -1.18533,-6.679422 -0.86669,-7.274806 0.28263,-0.528112 0.61902,-0.669016 2.14262,-0.897494 l 1.16732,-0.17505 -0.78578,-1.632171 c -1.0753,-2.233585 -1.13301,-5.154212 -0.14416,-7.296723 l 0.66055,-1.431219 5.81422,-1.564837 5.81422,-1.564837 16.40417,-1.002666 c 9.02229,-0.551466 16.49346,-0.952387 16.6026,-0.890934 0.37649,0.211984 0.19695,1.692012 -0.33073,2.726336 -0.95407,1.870136 -0.66005,4.195373 0.8401,6.643846 0.41107,0.670938 0.7474,1.578455 0.7474,2.016705 0,0.717715 -0.0996,0.812741 -1.00312,0.957222 -0.84388,0.134943 -1.0555,0.305267 -1.33311,1.072985 -0.48032,1.328306 -0.65284,3.30864 -0.39401,4.522783 0.12409,0.582084 0.18455,1.400185 0.13435,1.818003 -0.0865,0.72023 -0.14515,0.752444 -1.12894,0.620489 -1.12352,-0.150695 -1.28119,-0.02906 -0.60411,0.466025 0.37711,0.275751 0.3931,0.486207 0.12283,1.616668 -0.22738,0.951106 -0.2369,1.818178 -0.0355,3.233142 0.15138,1.063423 0.21405,2.194517 0.13925,2.513541 -0.0748,0.319027 0.0418,0.877705 0.25915,1.241507 0.21732,0.363802 0.47204,0.875879 0.56603,1.137949 0.13541,0.377521 0.34238,0.440193 0.99642,0.301734 0.45404,-0.09612 0.94458,-0.191477 1.0901,-0.211908 0.14974,-0.02103 0.32362,0.944012 0.4006,2.223397 0.10442,1.735421 0.31954,2.671443 0.92604,4.02935 0.43452,0.972841 0.92363,1.721345 1.08693,1.66334 0.16329,-0.058 0.83383,-0.185978 1.49007,-0.284387 1.3472,-0.202025 1.71147,0.07855 1.24168,0.956376 -0.25033,0.467744 -0.20267,0.702231 0.27368,1.346539 0.31725,0.42909 0.51954,0.929402 0.44955,1.1118 -0.07,0.182401 -1.00233,0.483804 -2.07186,0.669785 -1.06954,0.185981 -2.53992,0.4656 -3.26752,0.621374 -1.16428,0.249264 -1.2436,0.306382 -0.66146,0.476316 0.3638,0.106198 1.06229,0.204957 1.5522,0.219461 0.78611,0.02328 0.87343,0.0963 0.74343,0.621686 -0.75528,3.052281 -0.77424,3.241241 -0.45164,4.499975 0.2325,0.907161 0.24439,1.366862 0.0417,1.611117 -0.20639,0.248682 -0.13395,0.733145 0.26596,1.778622 0.94524,2.471137 0.42568,5.389062 -1.29985,7.300267 l -0.71949,0.796909 z m 6.41574,-0.56424 c 1.72486,-1.936893 2.2064,-5.47094 1.04551,-7.672916 -0.32606,-0.618464 -0.6475,-1.124479 -0.71432,-1.124479 -0.0668,0 -2.0587,-0.405885 -4.4264,-0.901962 l -4.3049,-0.901965 -10.58333,-0.09022 c -8.1564,-0.06954 -10.93702,-0.0091 -12.12567,0.263618 -0.84829,0.194614 -1.49564,0.400542 -1.43857,0.457618 0.0571,0.05707 5.011,0.111239 11.00872,0.120367 5.99772,0.0091 11.08522,0.08577 11.30556,0.170328 1.32143,0.507079 2.04399,4.582078 1.11916,6.311675 -0.74018,1.384271 -1.76694,2.233247 -2.55157,2.109763 -0.38668,-0.06085 -5.34649,-0.238244 -11.0218,-0.394202 -5.67531,-0.155959 -10.94383,-0.327663 -11.70781,-0.381564 -1.00661,-0.07102 -1.38907,-0.0043 -1.38907,0.242353 0,0.42032 1.20082,0.526852 12.17084,1.079752 4.5839,0.231034 11.01328,0.574159 14.2875,0.7625 8.58252,0.493691 8.84265,0.492278 9.32615,-0.05066 z m -10.32511,-2.116666 c 1.44649,-1.649736 1.76117,-4.138867 0.7691,-6.083488 l -0.56944,-1.116203 -12.43271,-0.07125 c -6.838,-0.03919 -12.43095,-0.01172 -12.4288,0.06104 0.002,0.07276 0.19087,0.668073 0.41935,1.322916 0.47436,1.359525 0.3486,2.682635 -0.42016,4.420532 l -0.50238,1.135718 0.58044,0.0254 c 6.05507,0.264928 18.54654,0.698961 20.97849,0.728925 2.74813,0.03386 3.25748,-0.02596 3.60611,-0.42359 z m 11.43951,-7.192915 c 0.0842,-0.136184 -0.41483,-0.320014 -1.10887,-0.408514 -0.69404,-0.0885 -1.67861,-0.225822 -2.18793,-0.30516 -1.45206,-0.22619 -0.73299,0.184557 0.9751,0.556995 2.01635,0.439653 2.14158,0.448104 2.3217,0.156679 z m -33.59159,-1.214178 c 4.41004,-0.85389 4.28607,-0.805633 3.70861,-1.443715 -0.30525,-0.337304 -0.42399,-0.788858 -0.34642,-1.3174 0.0649,-0.442304 0.0457,-0.804188 -0.0427,-0.804188 -0.59978,0 -7.35354,1.410065 -7.73719,1.615387 -0.60089,0.321588 -0.62233,1.489707 -0.0392,2.134092 0.54619,0.603536 0.34588,0.611815 4.45691,-0.184176 z M 177.38225,83.434 c -0.0917,-0.618463 -0.0461,-1.657032 0.10121,-2.307931 0.14734,-0.650896 0.24352,-1.207828 0.21372,-1.237621 -0.0298,-0.02979 -1.42208,-0.24711 -3.09398,-0.482922 l -3.03981,-0.42875 -6.81225,1.269498 c -5.65198,1.053274 -6.81238,1.344131 -6.81302,1.707689 -7.9e-4,0.494536 0.21886,0.533281 6.48152,1.142879 10.27717,1.000363 12.56478,1.251259 13.04694,1.430946 0.0453,0.01688 0.007,-0.475324 -0.0843,-1.093788 z m -18.18368,-0.543586 c -1.09204,-0.19317 -1.56024,-0.404876 -1.67164,-0.755862 -0.10933,-0.344477 -0.32414,-0.445987 -0.73206,-0.345937 -0.31752,0.07788 -1.68509,0.362378 -3.03904,0.632219 -1.35395,0.269838 -2.53465,0.563541 -2.62378,0.652671 -0.0891,0.08913 2.03067,0.144772 4.71068,0.123645 4.19203,-0.03305 4.66084,-0.0759 3.35584,-0.306736 z m 3.36899,-2.97093 c 7.13052,-1.400641 14.24748,-2.80076 15.81547,-3.111378 2.35464,-0.46645 2.81849,-0.635513 2.66476,-0.971254 -0.10237,-0.223573 -0.19465,-0.739357 -0.20506,-1.146183 -0.0154,-0.60244 -0.1171,-0.715721 -0.54809,-0.610526 -0.29104,0.07104 -7.2562,1.452745 -15.47812,3.070461 -8.22193,1.617715 -15.39545,3.0579 -15.94115,3.20041 -0.86003,0.2246 -0.99219,0.361723 -0.99219,1.029515 0,0.814628 0.63297,1.386636 1.32292,1.195512 0.21828,-0.06047 6.23094,-1.255916 13.36146,-2.656557 z m -11.02639,-0.802293 c 21.12287,-4.008546 25.75708,-4.877462 26.01306,-4.877462 0.12478,0 0.22687,-0.178593 0.22687,-0.396875 0,-0.558485 -0.48296,-0.514966 -5.76861,0.519798 -9.07931,1.777444 -27.11066,5.168744 -27.48193,5.168744 -0.65589,0 -1.669,-2.608802 -1.67188,-4.305152 -0.002,-1.33586 0.072,-1.557694 0.59273,-1.77201 0.32742,-0.134741 7.82836,-1.708065 16.66875,-3.496275 11.06485,-2.238166 16.07344,-3.355528 16.07344,-3.585803 0,-0.18398 -0.0686,-0.33451 -0.15234,-0.33451 -0.14256,0 -23.36172,4.677235 -35.6625,7.183803 -6.47351,1.319127 -6.29476,1.188201 -5.77337,4.228658 0.17459,1.018132 0.50943,2.230353 0.7441,2.693823 0.42268,0.834784 1.13545,1.768716 1.34987,1.768716 0.0612,0 6.74,-1.257956 14.84181,-2.795455 z m 26.35899,0.181747 c -0.37179,-0.343844 -4.18077,-0.838745 -4.44232,-0.577194 -0.12356,0.123553 0.6498,0.340308 1.71858,0.481674 2.68627,0.355317 3.01721,0.366922 2.72374,0.09552 z m -18.77218,-2.815219 c 7.27604,-1.3931 14.24119,-2.717051 15.47812,-2.942114 1.23693,-0.225062 2.38711,-0.449879 2.55596,-0.499591 0.20867,-0.06143 0.093,-0.62035 -0.36125,-1.744838 -0.39289,-0.972682 -0.66827,-2.179187 -0.66827,-2.927823 0,-0.700355 -0.0291,-1.273374 -0.0646,-1.273374 -0.0355,0 -4.45685,0.886886 -9.8252,1.970858 -5.36834,1.083971 -12.49907,2.517103 -15.84604,3.184736 -3.34698,0.667634 -6.36941,1.333344 -6.71652,1.479357 -0.58738,0.247092 -0.62149,0.371438 -0.49237,1.795354 0.0763,0.841434 0.39657,2.035302 0.71172,2.653046 0.50455,0.988984 0.6582,1.106091 1.28612,0.980234 0.39222,-0.07862 6.66625,-1.282745 13.9423,-2.675845 z m -22.3573,-2.93053 c 4.56988,-0.878859 4.49595,-0.853814 3.69475,-1.251723 -0.4253,-0.211227 -0.74004,-0.677929 -0.90512,-1.342139 -0.22586,-0.908738 -0.18712,-1.071724 0.36004,-1.514784 0.33722,-0.273063 0.52908,-0.49648 0.42637,-0.49648 -0.54826,0 -8.2765,1.68756 -8.66927,1.893043 -0.59265,0.310063 -0.62329,1.993728 -0.0511,2.810584 0.51975,0.742051 0.80177,0.736651 5.14437,-0.0985 z m 14.68801,-3.529267 c 5.67332,-1.154528 12.69637,-2.582622 15.60679,-3.173542 7.31626,-1.485469 6.57644,-1.25031 6.09517,-1.937427 -0.22365,-0.319302 -0.40663,-0.911244 -0.40663,-1.315429 0,-0.404183 -0.12056,-0.734878 -0.26791,-0.734878 -0.14735,0 -3.68945,0.712425 -7.87135,1.583166 -10.97631,2.28545 -24.36248,5.031417 -24.52739,5.031417 -0.0779,0 -0.14169,0.452438 -0.14169,1.005417 0,0.989558 0.36362,1.640417 0.91645,1.640417 0.15479,0 4.92325,-0.944613 10.59656,-2.099141 z m -4.7055,1.410121 c -0.0879,-0.08792 -0.31612,-0.09732 -0.50712,-0.02088 -0.21106,0.08446 -0.14837,0.147156 0.15986,0.159851 0.27891,0.01148 0.43518,-0.05105 0.34726,-0.138965 z m 2.91042,-0.529167 c -0.0879,-0.08792 -0.31612,-0.09732 -0.50712,-0.02088 -0.21107,0.08446 -0.14837,0.147156 0.15985,0.159851 0.27892,0.01148 0.43519,-0.05105 0.34727,-0.138964 z m 1.92374,-0.369313 c 0.53174,-0.170294 0.55769,-0.21336 0.13229,-0.219612 -0.29104,-0.0043 -0.76729,0.09455 -1.05833,0.219612 -0.67422,0.289721 0.0214,0.289721 0.92604,0 z m 2.23371,-0.504492 c 0.0816,-0.13195 -0.09,-0.177593 -0.38126,-0.101433 -0.6178,0.161557 -0.69589,0.341341 -0.14827,0.341341 0.20969,0 0.44798,-0.107958 0.52953,-0.239908 z m 1.13422,-0.184528 c -0.0879,-0.08792 -0.31613,-0.09732 -0.50712,-0.02088 -0.21107,0.08446 -0.14838,0.147156 0.15985,0.159851 0.27891,0.01148 0.43519,-0.05105 0.34727,-0.138965 z m 1.19613,-0.279958 c -0.1819,-0.0734 -0.47955,-0.0734 -0.66146,0 -0.1819,0.0734 -0.0331,0.133453 0.33073,0.133453 0.36381,0 0.51263,-0.06006 0.33073,-0.133453 z m 1.18512,-0.249209 c -0.0879,-0.08792 -0.31613,-0.09732 -0.50712,-0.02088 -0.21107,0.08446 -0.14838,0.147156 0.15985,0.159851 0.27891,0.01148 0.43519,-0.05105 0.34727,-0.138964 z m -8.26272,-2.594853 c 5.96635,-1.237578 13.02081,-2.691792 15.67656,-3.231587 2.65576,-0.539792 4.82865,-1.080574 4.82865,-1.20174 0,-0.121166 -0.15343,-0.2203 -0.34096,-0.2203 -0.18752,0 -5.51557,1.082035 -11.8401,2.404523 -6.32453,1.322485 -12.02502,2.423813 -12.66776,2.447396 -1.03852,0.0381 -1.22087,-0.04548 -1.63815,-0.750877 -0.25825,-0.436563 -0.59355,-1.566378 -0.74511,-2.5107 -0.24261,-1.511546 -0.22072,-1.766771 0.18294,-2.133418 0.2801,-0.254412 5.32253,-1.490972 12.95856,-3.177841 8.75894,-1.934929 12.50051,-2.865694 12.50157,-3.109933 7.9e-4,-0.207177 -0.1863,-0.293879 -0.46151,-0.213754 -0.25466,0.07414 -5.40412,1.217735 -11.44323,2.541314 -6.03912,1.32358 -13.00427,2.858653 -15.47813,3.411275 l -4.49791,1.004766 0.0114,2.094146 c 0.009,1.690081 0.14658,2.387248 0.71192,3.613213 0.43701,0.947663 0.83081,1.474795 1.04692,1.401366 0.19053,-0.06474 5.22797,-1.130269 11.19433,-2.367849 z m 9.58563,2.33027 c -0.0879,-0.08792 -0.31612,-0.09732 -0.50712,-0.02088 -0.21106,0.08446 -0.14837,0.147156 0.15986,0.159851 0.27891,0.01148 0.43518,-0.05105 0.34726,-0.138965 z m 1.46072,-0.279958 c -0.1819,-0.0734 -0.47955,-0.0734 -0.66146,0 -0.1819,0.0734 -0.0331,0.133453 0.33073,0.133453 0.36381,0 0.51263,-0.06006 0.33073,-0.133453 z m 1.32292,-0.264584 c -0.1819,-0.0734 -0.47956,-0.0734 -0.66146,0 -0.1819,0.0734 -0.0331,0.133453 0.33073,0.133453 0.3638,0 0.51263,-0.06006 0.33073,-0.133453 z m 1.32292,-0.264583 c -0.1819,-0.0734 -0.47956,-0.0734 -0.66146,0 -0.1819,0.0734 -0.0331,0.133453 0.33073,0.133453 0.3638,0 0.51263,-0.06006 0.33073,-0.133453 z m 2.50803,-0.513792 c -0.0879,-0.08792 -0.31613,-0.09732 -0.50712,-0.02088 -0.21107,0.08446 -0.14838,0.147155 0.15985,0.15985 0.27891,0.01148 0.43519,-0.05105 0.34727,-0.138964 z m 2.64583,-0.529167 c -0.0879,-0.08792 -0.31612,-0.09732 -0.50712,-0.02088 -0.21106,0.08446 -0.14837,0.147156 0.15985,0.159851 0.27892,0.01148 0.43519,-0.05104 0.34727,-0.138965 z m 1.05833,-0.264583 c -0.0879,-0.08792 -0.31612,-0.09732 -0.50712,-0.02088 -0.21106,0.08446 -0.14837,0.147155 0.15986,0.15985 0.27891,0.01148 0.43518,-0.05104 0.34726,-0.138964 z M 149.89386,65.66561 c 3.04147,-0.64118 8.62557,-1.793142 12.40912,-2.559912 3.78354,-0.766768 6.92515,-1.429168 6.98136,-1.471996 0.0562,-0.04283 -0.14948,-0.662893 -0.45708,-1.377921 -0.3076,-0.715029 -0.63787,-1.968808 -0.73393,-2.786177 -0.0961,-0.817368 -0.22688,-1.486124 -0.29069,-1.486124 -0.16716,0 -20.13543,4.411858 -22.92984,5.066194 l -2.34892,0.550023 0.13417,1.623661 c 0.14123,1.709094 0.87692,3.608038 1.39784,3.608038 0.16941,0 2.7965,-0.524602 5.83797,-1.165786 z m 20.67183,1.005933 c -0.0879,-0.08792 -0.31612,-0.09732 -0.50712,-0.02088 -0.21106,0.08446 -0.14837,0.147156 0.15986,0.159851 0.27891,0.01148 0.43518,-0.05104 0.34726,-0.138965 z m 1.05834,-0.264583 c -0.0879,-0.08792 -0.31613,-0.09732 -0.50712,-0.02088 -0.21107,0.08446 -0.14837,0.147156 0.15985,0.159851 0.27891,0.01148 0.43519,-0.05104 0.34727,-0.138965 z m 1.5875,-0.264584 c -0.0879,-0.08792 -0.31613,-0.09732 -0.50712,-0.02088 -0.21107,0.08446 -0.14837,0.147156 0.15985,0.15985 0.27891,0.01148 0.43519,-0.05104 0.34727,-0.138964 z m -0.5898,-4.394287 c 0.18349,-0.192297 -0.0598,-0.227063 -0.79375,-0.113438 -0.58209,0.09011 -1.2667,0.165148 -1.52136,0.166749 -0.25466,0.0016 -0.46302,0.135493 -0.46302,0.297537 0,0.363884 2.38332,0.06289 2.77813,-0.350848 z M 142.926,60.079744 c 3.67234,-0.802992 7.39135,-1.63562 8.26448,-1.850283 0.87312,-0.214664 3.55203,-0.815083 5.95312,-1.334266 2.40109,-0.519183 4.84099,-1.068139 5.42199,-1.219903 l 1.05635,-0.275934 -1.05635,-0.546164 c -1.25766,-0.650237 -1.60381,-0.640968 -8.06782,0.216052 -9.40679,1.247179 -11.02303,1.459657 -17.058,2.242501 -3.34278,0.43362 -6.41158,0.788399 -6.81957,0.788399 -0.9396,0 -1.12775,-0.482705 -1.367,-3.506991 -0.1783,-2.253838 -0.1668,-2.322424 0.42597,-2.540768 0.33507,-0.123422 6.86,-0.781255 14.49985,-1.461852 7.63984,-0.680597 14.64561,-1.3336 15.56838,-1.451118 1.12568,-0.143361 1.77924,-0.118994 1.98617,0.07405 0.16963,0.158246 1.02198,0.751936 1.89412,1.31931 0.87214,0.567374 1.93442,1.27129 2.36062,1.564259 4.22137,2.901697 6.59347,4.411462 6.72481,4.28012 0.0868,-0.08683 0.0257,-0.240689 -0.13583,-0.341918 -0.4177,-0.261773 -5.45197,-3.814463 -8.53024,-6.019812 l -2.60602,-1.867012 -5.12527,0.458868 c -2.81891,0.252378 -9.29247,0.825001 -14.3857,1.272496 -12.20016,1.071917 -12.35559,1.088683 -12.9303,1.394861 -0.44642,0.237826 -0.47669,0.474852 -0.30903,2.420098 0.30015,3.482486 0.60615,4.757059 1.2482,5.199158 0.71044,0.48919 5.51554,2.601873 5.97561,2.627326 0.18397,0.01019 3.33913,-0.638487 7.01146,-1.441478 z m 28.65903,1.195402 c 1.04256,0 1.2086,-0.512606 0.30703,-0.947859 -0.32629,-0.157523 -1.16908,-0.613571 -1.87286,-1.013444 -0.70379,-0.399871 -1.31574,-0.687709 -1.35988,-0.639639 -0.0441,0.04807 0.20331,0.725584 0.54989,1.505585 0.47287,1.064224 0.73513,1.377898 1.05078,1.256772 0.23135,-0.08878 0.82762,-0.161415 1.32504,-0.161415 z m 0.97465,-2.821045 0.1122,-1.365838 -5.71362,-3.865313 -5.71362,-3.865313 -15.70447,1.462473 c -8.63746,0.80436 -15.78395,1.511589 -15.88108,1.571621 -0.25818,0.159565 0.12146,4.909531 0.41593,5.204001 0.15685,0.156851 6.05463,-0.508123 15.83638,-1.785548 l 15.58645,-2.035479 1.4609,0.782529 1.46089,0.78253 1.78956,-0.380082 c 0.98425,-0.209045 1.87279,-0.296839 1.97453,-0.195098 0.10174,0.10174 0.16194,0.804566 0.13377,1.561835 l -0.0512,1.376852 2.04543,1.209047 c 1.12499,0.664976 2.06576,1.141226 2.09061,1.058334 0.0248,-0.08289 0.0957,-0.765341 0.15736,-1.516551 z m 1.64955,-6.902314 c 0,-1.27335 0.1022,-2.642604 0.22712,-3.042786 0.22643,-0.725395 0.22321,-0.727592 -1.05834,-0.723485 -1.45963,0.0047 -9.85139,0.932996 -10.02768,1.109289 -0.0635,0.06347 1.34674,1.14152 3.1338,2.395672 3.46243,2.429914 3.0772,2.289443 6.93135,2.527471 l 0.79375,0.04902 z m -27.38438,-2.4421 c 6.6212,-0.579784 12.59346,-1.125544 13.27169,-1.2128 0.89817,-0.115553 1.40896,-0.04345 1.88038,0.265439 0.60026,0.393301 1.15418,0.366098 7.6304,-0.374737 3.84074,-0.439353 7.07245,-0.799076 7.18159,-0.799383 0.10914,-3.18e-4 0.19844,-0.255058 0.19844,-0.566111 0,-0.54848 -0.0699,-0.56005 -2.3151,-0.383261 -5.84432,0.46018 -26.75875,2.275262 -27.61943,2.396981 -0.85732,0.121243 -1.08195,0.01684 -2.05286,-0.954062 -1.91358,-1.913586 -2.33198,-4.939068 -1.08145,-7.820176 0.39817,-0.91735 0.63306,-1.132328 1.36298,-1.247426 0.48505,-0.07648 6.7755,-0.502575 13.97878,-0.946866 17.12296,-1.056128 16.66875,-1.011812 16.66875,-1.626325 0,-0.654326 0.30532,-0.661502 -17.72709,0.416642 l -14.94895,0.893787 -5.75381,1.523642 c -6.44706,1.707219 -6.26208,1.59243 -6.96072,4.319482 -0.49813,1.9444 -0.21422,4.092006 0.80752,6.108312 l 0.69965,1.380699 1.37035,-0.159843 c 0.75368,-0.08791 6.78768,-0.634211 13.40888,-1.213994 z m 17.99167,-2.523763 c 6.18463,-0.529735 11.40982,-1.015726 11.61153,-1.079982 0.3081,-0.09815 0.30462,-0.189988 -0.0218,-0.574333 -1.59915,-1.883037 -2.14126,-6.233842 -0.95486,-7.663377 0.15864,-0.191147 0.23931,-0.396665 0.17927,-0.456706 -0.0839,-0.08385 -30.51122,1.836987 -30.87122,1.948859 -0.0446,0.01385 -0.33375,0.590725 -0.64263,1.281949 -0.37706,0.843772 -0.5678,1.828197 -0.58044,2.995641 -0.0159,1.467446 0.0934,1.908494 0.70016,2.825567 0.39544,0.597684 1.02264,1.368271 1.39379,1.712416 l 0.67481,0.625718 3.63329,-0.3263 c 1.99832,-0.179465 8.69346,-0.759719 14.8781,-1.289452 z"
         id="path4529"
         inkscape:connector-curvature="0" />
    </g>
    <g
       id="g4557"
       transform="matrix(0.98019713,0,0,0.98019713,3.8446843,15.439416)">
      <g
         transform="translate(0,16.564671)"
         id="g4549">
        <path
           style="fill:#000000;stroke-width:0.26458332"
           d="m 81.433582,65.707936 c 0.480824,-1.30395 0.933106,-3.00178 1.00507,-3.77295 0.111416,-1.19392 0.04288,-1.49576 -0.461532,-2.03268 -0.577323,-0.61453 -0.589915,-0.75488 -0.495522,-5.52248 0.05327,-2.69056 0.177155,-4.972226 0.275296,-5.070369 0.09814,-0.09814 0.811914,0.05764 1.586154,0.346181 l 1.407713,0.524624 0.132291,4.990924 c 0.08461,3.19206 0.247851,5.19242 0.452911,5.54996 0.413108,0.72029 1.981634,2.09625 2.975504,2.6102 5.230606,2.70485 15.788563,3.27225 22.202763,1.19321 2.90973,-0.94314 3.68863,-1.3252 4.93814,-2.42229 1.62239,-1.42448 1.70984,-1.78733 1.70984,-7.09469 0,-4.316735 0.0452,-4.800093 0.46302,-4.949341 1.99159,-0.711434 8.09147,-3.099168 9.00442,-3.524683 2.05157,-0.956207 1.8254,-1.935712 -0.61777,-2.675444 -0.86549,-0.262051 -6.69331,-2.048455 -12.95071,-3.969786 -6.25739,-1.921332 -11.67474,-3.49333 -12.03854,-3.49333 -0.3638,0 -5.781141,1.57168 -12.038536,3.492622 -6.257396,1.920942 -12.031927,3.686442 -12.832291,3.923332 -1.71355,0.507174 -2.116667,0.774223 -2.116667,1.402215 0,0.676167 0.51712,1.013329 3.243442,2.114723 1.704748,0.688691 2.407677,1.098899 2.321502,1.354759 -0.06798,0.201836 -0.166484,2.741154 -0.218903,5.642933 -0.08523,4.71832 -0.149074,5.3443 -0.604007,5.92266 -0.279786,0.35569 -0.508701,0.84231 -0.508701,1.08138 0,0.52166 1.104678,3.95608 1.796169,5.58427 l 0.494718,1.16486 z m 14.619739,-2.39165 c -3.516082,-0.42644 -7.150073,-1.8586 -8.357679,-3.29375 -0.683472,-0.81226 -0.695923,-0.8977 -0.695923,-4.77551 0,-2.17165 0.09766,-3.948449 0.21703,-3.948449 0.119369,0 3.125697,1.144129 6.680729,2.542509 3.555034,1.39838 6.761352,2.53797 7.125152,2.53244 0.3638,-0.005 3.57012,-1.14967 7.12516,-2.54251 3.55503,-1.39284 6.56136,-2.532439 6.68073,-2.532439 0.11936,0 0.21703,1.776799 0.21703,3.948449 0,3.87781 -0.0125,3.96325 -0.69593,4.77551 -1.363,1.61983 -5.33367,3.04413 -9.35824,3.35684 -1.09141,0.0848 -2.04391,0.21332 -2.11667,0.28558 -0.13589,0.13498 -4.79888,-0.10337 -6.821389,-0.34867 z M 94.460439,51.649809 c -3.594073,-1.407552 -7.249053,-2.824876 -8.122178,-3.149609 -1.352315,-0.502954 -1.489507,-0.610444 -0.926042,-0.725551 0.89672,-0.183188 4.295891,-0.646455 8.100224,-1.103965 8.249347,-0.992069 8.568517,-1.065213 8.568517,-1.963602 0,-0.869346 -0.68413,-1.165755 -2.319821,-1.005088 -1.207947,0.118652 -8.264414,1.022411 -12.893712,1.651366 -0.436562,0.05931 -1.508125,0.18618 -2.38125,0.281927 -0.873125,0.09575 -1.987994,0.337176 -2.477484,0.536509 -0.800986,0.326181 -1.012653,0.306621 -2.116666,-0.195598 l -1.226683,-0.558022 1.455208,-0.480843 c 1.191993,-0.393868 9.756558,-3.011512 19.116146,-5.842592 l 1.785932,-0.540208 1.78594,0.540208 c 8.76557,2.651403 17.92379,5.447464 19.11614,5.836278 l 1.45521,0.474528 -0.92604,0.426556 c -0.50932,0.234606 -2.47385,1.018207 -4.36562,1.741335 -1.89178,0.723129 -6.47568,2.507947 -10.18646,3.966263 -3.71078,1.458315 -6.78283,2.655485 -6.82678,2.660385 -0.044,0.005 -3.020507,-1.14273 -6.614581,-2.550277 z"
           id="path4507"
           inkscape:connector-curvature="0" />
        <path
           style="color:#000000;clip-rule:nonzero;display:inline;overflow:visible;visibility:visible;opacity:1;isolation:auto;mix-blend-mode:normal;color-interpolation:sRGB;color-interpolation-filters:linearRGB;solid-color:#000000;solid-opacity:1;vector-effect:none;fill:#ffffff;fill-opacity:1;fill-rule:nonzero;stroke:none;stroke-width:0;stroke-linecap:butt;stroke-linejoin:miter;stroke-miterlimit:4;stroke-dasharray:none;stroke-dashoffset:0;stroke-opacity:1;marker:none;marker-start:none;marker-mid:none;marker-end:none;color-rendering:auto;image-rendering:auto;shape-rendering:auto;text-rendering:auto;enable-background:accumulate"
           d="m 383.4914,240.60272 c -8.42001,-0.32856 -18.33331,-1.08708 -22.67452,-1.73494 -11.85125,-1.76863 -23.77465,-6.56837 -28.69667,-11.5518 -1.71763,-1.73905 -2.40264,-2.95358 -2.81942,-4.99884 -0.56993,-2.79679 -0.26119,-27.57218 0.35122,-28.18459 0.19428,-0.19428 4.04136,1.25464 28.45931,10.71862 9.10054,3.52721 19.56352,7.28924 22.22947,7.99274 l 1.64762,0.43478 3.27687,-1.06093 c 5.85546,-1.89577 11.9632,-4.17129 31.68742,-11.80557 11.2067,-4.33756 16.92472,-6.45001 17.06887,-6.30587 0.55273,0.55274 0.85266,24.31736 0.35071,27.78884 -0.30863,2.13452 -0.86736,3.24662 -2.56354,5.10251 -2.90581,3.17942 -7.7361,5.91071 -14.6035,8.25758 -6.26253,2.14015 -12.51069,3.39553 -21.15081,4.24962 -2.85097,0.28182 -5.65071,0.61393 -6.22165,0.73802 -1.43263,0.31137 -3.93886,0.45358 -6.34138,0.35983 z"
           id="path4545"
           inkscape:connector-curvature="0"
           transform="scale(0.26458333)" />
      </g>
      <path
         transform="scale(0.26458333)"
         inkscape:connector-curvature="0"
         id="path4551"
         d="m 376.28938,265.12783 c -2.94643,-1.14309 -14.51786,-5.6412 -25.71429,-9.9958 -11.19643,-4.3546 -22.25895,-8.65214 -24.58338,-9.55008 -2.32443,-0.89793 -4.09229,-1.76548 -3.92857,-1.92787 0.42763,-0.42418 12.30899,-2.11477 32.42316,-4.61347 25.04763,-3.11156 28.64112,-3.70836 30.33052,-5.03725 1.91735,-1.50818 1.3387,-4.89802 -1.00312,-5.87649 -2.60248,-1.08739 -5.75122,-0.78976 -43.59575,4.12091 -24.56774,3.18789 -26.17386,3.43185 -29.44758,4.47301 -3.78055,1.20234 -5.26864,1.08519 -9.30242,-0.73237 -1.66965,-0.75231 -3.15907,-1.47081 -3.30983,-1.59667 -0.15076,-0.12586 2.42066,-1.07393 5.71428,-2.10684 15.27429,-4.79012 77.40997,-23.60948 77.95119,-23.60948 0.60179,0 53.21582,15.90703 73.55341,22.23772 l 10.51619,3.27348 -2.83762,1.30144 c -1.56069,0.71579 -7.41798,3.08705 -13.01619,5.26948 -5.59822,2.18242 -23.15981,9.03533 -39.02576,15.22868 -15.86595,6.19335 -28.96417,11.25148 -29.10715,11.24029 -0.14297,-0.0112 -2.67067,-0.9556 -5.61709,-2.09869 z"
         style="color:#000000;clip-rule:nonzero;display:inline;overflow:visible;visibility:visible;opacity:1;isolation:auto;mix-blend-mode:normal;color-interpolation:sRGB;color-interpolation-filters:linearRGB;solid-color:#000000;solid-opacity:1;vector-effect:none;fill:#ffffff;fill-opacity:1;fill-rule:nonzero;stroke:none;stroke-width:0;stroke-linecap:butt;stroke-linejoin:miter;stroke-miterlimit:4;stroke-dasharray:none;stroke-dashoffset:0;stroke-opacity:1;marker:none;marker-start:none;marker-mid:none;marker-end:none;color-rendering:auto;image-rendering:auto;shape-rendering:auto;text-rendering:auto;enable-background:accumulate" />
    </g>
  </g>
</svg>
