<?xml version="1.0" encoding="UTF-8" standalone="no"?>
<!-- Created with Inkscape (http://www.inkscape.org/) -->

<svg
   xmlns:dc="http://purl.org/dc/elements/1.1/"
   xmlns:cc="http://creativecommons.org/ns#"
   xmlns:rdf="http://www.w3.org/1999/02/22-rdf-syntax-ns#"
   xmlns:svg="http://www.w3.org/2000/svg"
   xmlns="http://www.w3.org/2000/svg"
   xmlns:sodipodi="http://sodipodi.sourceforge.net/DTD/sodipodi-0.dtd"
   xmlns:inkscape="http://www.inkscape.org/namespaces/inkscape"
   version="1.1"
   id="svg2"
   xml:space="preserve"
   width="542.23999"
   height="399.85333"
   viewBox="0 0 542.23999 399.85333"
   sodipodi:docname="logo_DART.svg"
   inkscape:version="0.92.1 r15371"><metadata
     id="metadata8"><rdf:RDF><cc:Work
         rdf:about=""><dc:format>image/svg+xml</dc:format><dc:type
           rdf:resource="http://purl.org/dc/dcmitype/StillImage" /><dc:title></dc:title></cc:Work></rdf:RDF></metadata><defs
     id="defs6" /><sodipodi:namedview
     pagecolor="#ffffff"
     bordercolor="#666666"
     borderopacity="1"
     objecttolerance="10"
     gridtolerance="10"
     guidetolerance="10"
     inkscape:pageopacity="0"
     inkscape:pageshadow="2"
     inkscape:window-width="1920"
     inkscape:window-height="1057"
     id="namedview4"
     showgrid="false"
     inkscape:zoom="0.83469206"
     inkscape:cx="145.98075"
     inkscape:cy="336.07589"
     inkscape:window-x="-8"
     inkscape:window-y="-8"
     inkscape:window-maximized="1"
     inkscape:current-layer="g12" /><g
     id="g10"
     inkscape:groupmode="layer"
     inkscape:label="ink_ext_XXXXXX"
     transform="matrix(1.3333333,0,0,-1.3333333,0,399.85333)"><g
       id="g12"
       transform="scale(0.1)"><path
         d="M 1030.7,168.199 H 917.602 v 107.102 c 0,5.301 1.097,11.199 3.199,17.699 2.203,6.5 5.601,12.602 10.304,18.398 4.598,5.704 10.594,10.5 17.895,14.403 7.305,3.898 16.102,5.801 26.305,5.898 10.597,-0.097 19.398,-2 26.495,-5.898 7.2,-3.903 12.8,-8.602 17,-14.199 4.2,-5.602 7.2,-11.5 9.1,-17.704 1.9,-6.199 2.8,-11.796 2.8,-16.699 z m 19.1,-99.3006 v 9.3008 h -19.1 c -0.3,-6.1992 -1.4,-12.5976 -3.3,-19.3008 -1.8,-6.6992 -4.9,-12.7968 -9.3,-18.3984 -4.3,-5.6016 -10,-10.1992 -17,-14 -6.901,-3.6992 -15.596,-5.6016 -25.795,-5.6016 -10.203,0 -19,2 -26.305,5.9024 -7.301,3.8984 -13.297,8.6992 -17.895,14.3984 -4.703,5.8008 -8.101,11.9024 -10.304,18.4024 -2.102,6.5 -3.199,12.3984 -3.199,17.6992 V 149.102 H 1049.8 v 134.597 c 0,7.699 -1.3,15.602 -4,23.699 -2.6,8.102 -6.8,15.403 -12.5,22.102 -5.8,6.699 -13.4,12.102 -22.8,16.301 -9.5,4.199 -21.102,6.301 -34.699,6.301 -12.797,0 -23.903,-2.102 -33.598,-6.301 -9.601,-4.199 -17.601,-9.699 -24.199,-16.5 -6.504,-6.801 -11.402,-14.5 -14.602,-23.102 -3.3,-8.5 -4.902,-17 -4.902,-25.301 V 71.6992 c 0,-8.3008 1.602,-16.8008 4.902,-25.3008 3.2,-8.5976 8.098,-16.2968 14.602,-23.0976 C 924.602,16.5 932.602,11 942.203,6.80078 951.898,2.60156 963.004,0.5 975.801,0.5 c 13.597,0 25.199,2.30078 34.699,7 9.4,4.6016 17,10.3984 22.8,17.3984 5.7,7 9.9,14.4024 12.5,22.4024 2.7,7.8984 4,15.0976 4,21.5976"
         style="fill:#231f20;fill-opacity:1;fill-rule:evenodd;stroke:none"
         id="path14"
         inkscape:connector-curvature="0" /><path
         d="M 1485.9,8.39844 V 344.199 h -19.1 V 75.3984 c 0,-5.1992 -1.1,-11.0976 -3.2,-17.3984 -2.2,-6.3984 -5.6,-12.3984 -10.3,-17.8984 -4.6,-5.6016 -10.6,-10.3008 -17.9,-14 -7.3,-3.7032 -16.1,-5.6016 -26.3,-5.6016 -10.5,0 -19.4,1.8984 -26.5,5.8008 -7.2,3.8984 -12.8,8.5976 -17,14.1992 -4.2,5.6016 -7.2,11.5 -9.1,17.6992 C 1354.6,64.3984 1353.7,70 1353.7,75 v 269.199 h -19.1 V 68.5 c 0,-7.8008 1.3,-15.6992 4,-23.8008 2.6,-8 6.8,-15.3984 12.5,-22.0976 5.8,-6.7032 13.4,-12.1016 22.8,-16.30082 C 1383.4,2.10156 1395,0 1408.6,0 c 8.7,0 16.1,1.10156 22.1,3.30078 6.1,2.19922 11.3,4.89844 15.6,8.09762 4.4,3.3008 8.1,6.8008 11.2,10.5 3.1,3.7032 6.2,7.3008 9.3,10.7032 V 8.39844 h 19.1"
         style="fill:#231f20;fill-opacity:1;fill-rule:evenodd;stroke:none"
         id="path16"
         inkscape:connector-curvature="0" /><path
         d="m 1915.7,210.102 c 0,-14.301 -3.9,-24.903 -11.7,-31.704 -7.7,-6.796 -16.4,-10.199 -26,-10.199 h -68.4 V 325.5 h 66.5 c 15.5,0 26,-3.602 31.4,-10.898 5.5,-7.301 8.2,-16.704 8.2,-28.204 z M 1934.8,8.39844 V 119.301 c 0,10.801 -2.6,20.097 -7.7,27.699 -5.1,7.602 -11.3,12.602 -18.4,15.102 3.1,1.898 6.3,4 9.5,6.296 3.3,2.301 6.1,5.301 8.4,8.903 2.4,3.5 4.3,8.097 5.8,13.699 1.6,5.602 2.4,12.699 2.4,21.398 V 292 c 0,15.199 -3.9,27.801 -11.7,37.699 -7.7,9.903 -20.3,14.903 -37.7,14.903 h -94.9 V 8.39844 h 19.1 V 147.699 h 68.4 c 10.5,0 19.5,-2.199 26.7,-6.699 7.3,-4.602 11,-13.5 11,-26.801 V 8.39844 h 19.1"
         style="fill:#231f20;fill-opacity:1;fill-rule:evenodd;stroke:none"
         id="path18"
         inkscape:connector-curvature="0" /><path
         d="m 2357.5,79.6992 c 0,-6.5 -1,-13.1992 -3,-20 -2.1,-6.8008 -5.3,-13.0976 -9.8,-18.8984 -4.5,-5.6992 -10.4,-10.4024 -17.7,-13.9024 -7.3,-3.5976 -16.4,-5.3984 -27.2,-5.3984 -10,0 -18.4,1.8008 -25.4,5.3984 -7,3.5 -12.7,8 -17,13.5 -4.3,5.4024 -7.6,11.5 -9.8,18.1016 -2.1,6.6992 -3.2,13.1992 -3.2,19.3984 V 275.301 c 0,5.301 1.1,11.199 3.2,17.699 2.2,6.5 5.6,12.602 10.3,18.398 4.6,5.704 10.6,10.5 17.9,14.403 7.3,3.898 16,5.801 26.3,5.898 10.5,-0.097 19.4,-2 26.5,-5.898 7.2,-3.903 12.8,-8.602 17,-14.199 4.2,-5.602 7.2,-11.5 9.1,-17.704 1.8,-6.199 2.8,-11.796 2.8,-16.699 z m 19.1,-6 V 283.699 c 0,7.699 -1.3,15.602 -4,23.699 -2.6,8.102 -6.8,15.5 -12.6,22.102 -5.7,6.699 -13.3,12.102 -22.8,16.301 -9.4,4.199 -21,6.301 -34.6,6.301 -12.8,0 -24,-2.102 -33.6,-6.301 -9.6,-4.199 -17.7,-9.699 -24.2,-16.5 -6.5,-6.801 -11.4,-14.5 -14.6,-23 -3.3,-8.602 -4.9,-17 -4.9,-25.403 V 70.8984 c 0,-8.0976 1.4,-16.2968 4.2,-24.6992 2.7,-8.3984 7.1,-15.8984 13,-22.5976 5.9,-6.6016 13.6,-12.1016 23,-16.50004 9.5,-4.30078 20.9,-6.499997 34.3,-6.499997 13.9,0 25.8,2.097657 35.6,6.296877 9.7,4.20316 17.7,9.70316 23.7,16.49996 6.1,6.8008 10.5,14.7032 13.3,23.5 2.8,8.9024 4.2,17.8008 4.2,26.8008"
         style="fill:#231f20;fill-opacity:1;fill-rule:evenodd;stroke:none"
         id="path20"
         inkscape:connector-curvature="0" /><path
         d="m 2796.8,210.102 c 0,-14.301 -2.5,-24.903 -7.5,-31.704 -4.9,-6.796 -13.9,-10.199 -26.9,-10.199 h -71.7 V 325.5 h 66.5 c 15.5,0 26,-3.602 31.4,-10.898 5.5,-7.301 8.2,-16.704 8.2,-28.204 z m 19.1,-2.801 V 292 c 0,15.199 -3.9,27.801 -11.7,37.699 -7.7,9.903 -20.3,14.903 -37.6,14.903 h -95 V 8.39844 h 19.1 V 149.102 h 79.6 c 16.1,0 27.7,5.199 34.9,15.597 7.1,10.403 10.7,24.602 10.7,42.602"
         style="fill:#231f20;fill-opacity:1;fill-rule:evenodd;stroke:none"
         id="path22"
         inkscape:connector-curvature="0" /><path
         d="m 3235,168.199 h -113.2 v 107.102 c 0,5.301 1.1,11.199 3.3,17.699 2.2,6.5 5.6,12.602 10.2,18.398 4.7,5.704 10.7,10.5 18,14.403 7.2,3.898 16,5.801 26.3,5.898 10.5,-0.097 19.3,-2 26.5,-5.898 7.1,-3.903 12.8,-8.602 17,-14.199 4.2,-5.602 7.2,-11.5 9.1,-17.704 1.8,-6.199 2.8,-11.796 2.8,-16.699 z m 19,-99.3006 v 9.3008 h -19 c -0.4,-6.1992 -1.4,-12.5976 -3.3,-19.3008 -1.9,-6.6992 -5,-12.7968 -9.3,-18.3984 -4.4,-5.6016 -10,-10.1992 -17,-14 -7,-3.6992 -15.6,-5.6016 -25.8,-5.6016 -10.3,0 -19.1,2 -26.3,5.9024 -7.3,3.8984 -13.3,8.6992 -18,14.3984 -4.6,5.8008 -8,11.9024 -10.2,18.4024 -2.2,6.5 -3.3,12.3984 -3.3,17.6992 V 149.102 H 3254 v 134.597 c 0,7.699 -1.3,15.602 -3.9,23.699 -2.6,8.102 -6.8,15.403 -12.6,22.102 -5.7,6.699 -13.3,12.102 -22.8,16.301 -9.5,4.199 -21,6.301 -34.7,6.301 -12.7,0 -23.9,-2.102 -33.5,-6.301 -9.6,-4.199 -17.7,-9.699 -24.2,-16.5 -6.5,-6.801 -11.4,-14.5 -14.7,-23.102 -3.2,-8.5 -4.9,-17 -4.9,-25.301 V 71.6992 c 0,-8.3008 1.7,-16.8008 4.9,-25.3008 3.3,-8.5976 8.2,-16.2968 14.7,-23.0976 C 3128.8,16.5 3136.9,11 3146.5,6.80078 3156.1,2.60156 3167.3,0.5 3180,0.5 c 13.7,0 25.2,2.30078 34.7,7 9.5,4.6016 17.1,10.3984 22.8,17.3984 5.8,7 10,14.4024 12.6,22.4024 2.6,7.8984 3.9,15.0976 3.9,21.5976"
         style="fill:#231f20;fill-opacity:1;fill-rule:evenodd;stroke:none"
         id="path24"
         inkscape:connector-curvature="0" /><path
         d="m 1172.9,2354.4 647.9,547.5 686.9,97 c -20.5,-393.6 1123.2,-733.6 1271,-801.1 l -2605.8,156.6"
         style="fill:#99cd29;fill-opacity:1;fill-rule:evenodd;stroke:none"
         id="path26"
         inkscape:connector-curvature="0" /><path
         d="M 1150.4,2318 4066.8,2151.1 C 3523,2131.4 2393.6,2141 1300.9,2140.7 L 1150.4,2318"
         style="fill:#ca741f;fill-opacity:1;fill-rule:evenodd;stroke:none"
         id="path28"
         inkscape:connector-curvature="0" /><path
         d="m 1385.3,1463.2 187.6,-238.4 c 632.9,401.6 1388.5,653.2 2207.5,860.6 -692.1,6.7 -1606.9,-201.8 -2395.1,-622.2"
         style="fill:#1a80b9;fill-opacity:1;fill-rule:evenodd;stroke:none"
         id="path30"
         inkscape:connector-curvature="0" /><path
         d="m 868.699,2101 2550.101,2.9 C 2086.3,1954.7 1485.5,1596.6 731.5,1122.1 L 0,1386.1 868.699,2101"
         style="fill:#9f4078;fill-opacity:1;fill-rule:evenodd;stroke:none"
         id="path32"
         inkscape:connector-curvature="0" /><path
         d="m 1255.3,430.398 c 38.6,0 66.4,8.301 83.6,25.102 17.1,16.699 25.7,43.5 25.7,80.398 V 1145.8 c 0,31.7 -7.5,57.7 -22.5,77.8 -15,20.2 -44,30.3 -86.8,30.2 H 1071.4 V 430.398 Z M 1018.7,377.602 V 1249.8 l 77.1,46.1 18.7,10.7 H 1281 c 48,0 82.8,-13.7 104.2,-41.1 21.4,-27.5 32.1,-62.2 32.2,-104.3 V 520.398 c -0.1,-48.898 -11.6,-84.898 -34.8,-108.097 -23.1,-23.102 -55.3,-34.699 -96.4,-34.699 h -267.5"
         style="fill:#231f20;fill-opacity:1;fill-rule:evenodd;stroke:none"
         id="path34"
         inkscape:connector-curvature="0" /><path
         d="m 1255.3,430.398 c 38.6,0 66.4,8.301 83.6,25.102 17.1,16.699 25.7,43.5 25.7,80.398 V 1145.8 c 0,31.7 -7.5,57.7 -22.5,77.8 -15,20.2 -44,30.3 -86.8,30.2 H 1071.4 V 430.398 Z M 1018.7,377.602 V 1249.8 l 77.1,46.1 18.7,10.7 H 1281 c 48,0 82.8,-13.7 104.2,-41.1 21.4,-27.5 32.1,-62.2 32.2,-104.3 V 520.398 c -0.1,-48.898 -11.6,-84.898 -34.8,-108.097 -23.1,-23.102 -55.3,-34.699 -96.4,-34.699 z"
         style="fill:none;stroke:#231f20;stroke-width:18.10000038;stroke-linecap:butt;stroke-linejoin:miter;stroke-miterlimit:4;stroke-dasharray:none;stroke-opacity:1"
         id="path36"
         inkscape:connector-curvature="0" /><path
         d="M 1967,673.602 V 1120.2 c 0,13.7 -2.8,29.2 -8.4,46.3 -5.6,17.2 -14.8,33.5 -27.7,49 -12.9,15.4 -29.6,28.5 -50.2,39.2 -20.6,10.7 -45.5,16.1 -74.7,16.1 -28.3,0 -52.4,-5.4 -72.1,-16.1 -19.8,-10.7 -35.4,-24 -47,-39.9 -11.6,-15.9 -20,-32.8 -25.1,-50.8 -5.2,-18 -7.8,-34.3 -7.8,-48.9 V 673.602 Z m -365.8,-296 V 1130.5 c 0,11.5 1.1,23.2 3.1,34.9 l 8.2,31.3 30,19.5 c 44.5,28.2 89.6,55.6 135.3,82.1 l 49.9,28.2 6.9,-0.2 c 26.2,-2.2 49.3,-7.6 69.2,-16.3 26.7,-11.6 48.5,-26.6 65.7,-45 17.2,-18.5 29.8,-38.9 38,-61.2 8.2,-22.3 12.2,-44.2 12.2,-65.6 V 377.602 H 1967 V 620.801 H 1654 V 377.602 h -52.8"
         style="fill:#231f20;fill-opacity:1;fill-rule:evenodd;stroke:none"
         id="path38"
         inkscape:connector-curvature="0" /><path
         d="M 1967,673.602 V 1120.2 c 0,13.7 -2.8,29.2 -8.4,46.3 -5.6,17.2 -14.8,33.5 -27.7,49 -12.9,15.4 -29.6,28.5 -50.2,39.2 -20.6,10.7 -45.5,16.1 -74.7,16.1 -28.3,0 -52.4,-5.4 -72.1,-16.1 -19.8,-10.7 -35.4,-24 -47,-39.9 -11.6,-15.9 -20,-32.8 -25.1,-50.8 -5.2,-18 -7.8,-34.3 -7.8,-48.9 V 673.602 Z m -365.8,-296 V 1130.5 c 0,11.5 1.1,23.2 3.1,34.9 l 8.2,31.3 30,19.5 c 44.5,28.2 89.6,55.6 135.3,82.1 l 49.9,28.2 6.9,-0.2 c 26.2,-2.2 49.3,-7.6 69.2,-16.3 26.7,-11.6 48.5,-26.6 65.7,-45 17.2,-18.5 29.8,-38.9 38,-61.2 8.2,-22.3 12.2,-44.2 12.2,-65.6 V 377.602 H 1967 V 620.801 H 1654 V 377.602 Z"
         style="fill:none;stroke:#231f20;stroke-width:18.10000038;stroke-linecap:butt;stroke-linejoin:miter;stroke-miterlimit:4;stroke-dasharray:none;stroke-opacity:1"
         id="path40"
         inkscape:connector-curvature="0" /><path
         d="m 2469.6,819 c 26.6,0 50.6,9.5 72,28.301 21.4,18.898 32.1,48.097 32.1,87.5 V 1145.8 c 0,31.7 -7.5,57.7 -22.5,77.8 -15,20.2 -43.9,30.3 -86.8,30.2 H 2280.6 V 819 Z M 2227.8,377.602 V 1306.6 h 262.4 c 48,0 82.7,-13.7 104.2,-41.1 21.4,-27.5 32.1,-62.2 32.1,-104.2 V 941.301 c 0,-24.102 -2.1,-43.801 -6.4,-59.199 -4.3,-15.5 -9.7,-28.102 -16.1,-38 -6.4,-9.801 -14.1,-18 -23.1,-24.403 -9,-6.5 -17.8,-12.199 -26.4,-17.398 19.7,-6.801 36.6,-20.801 50.8,-41.801 14.1,-21 21.2,-46.602 21.2,-76.602 V 377.602 h -52.8 v 292.199 c 0,36.898 -10,61.597 -30.2,74 -20.1,12.398 -44.8,18.699 -73.9,18.699 h -189 V 377.602 h -52.8"
         style="fill:#231f20;fill-opacity:1;fill-rule:evenodd;stroke:none"
         id="path42"
         inkscape:connector-curvature="0" /><path
         d="m 2469.6,819 c 26.6,0 50.6,9.5 72,28.301 21.4,18.898 32.1,48.097 32.1,87.5 V 1145.8 c 0,31.7 -7.5,57.7 -22.5,77.8 -15,20.2 -43.9,30.3 -86.8,30.2 H 2280.6 V 819 Z M 2227.8,377.602 V 1306.6 h 262.4 c 48,0 82.7,-13.7 104.2,-41.1 21.4,-27.5 32.1,-62.2 32.1,-104.2 V 941.301 c 0,-24.102 -2.1,-43.801 -6.4,-59.199 -4.3,-15.5 -9.7,-28.102 -16.1,-38 -6.4,-9.801 -14.1,-18 -23.1,-24.403 -9,-6.5 -17.8,-12.199 -26.4,-17.398 19.7,-6.801 36.6,-20.801 50.8,-41.801 14.1,-21 21.2,-46.602 21.2,-76.602 V 377.602 h -52.8 v 292.199 c 0,36.898 -10,61.597 -30.2,74 -20.1,12.398 -44.8,18.699 -73.9,18.699 h -189 V 377.602 Z"
         style="fill:none;stroke:#231f20;stroke-width:18.10000038;stroke-linecap:butt;stroke-linejoin:miter;stroke-miterlimit:4;stroke-dasharray:none;stroke-opacity:1"
         id="path44"
         inkscape:connector-curvature="0" /><path
         d="M 2928.5,377.602 V 1253.8 h -153.1 v 52.8 h 359.1 v -52.8 H 2981.3 V 377.602 h -52.8"
         style="fill:#231f20;fill-opacity:1;fill-rule:evenodd;stroke:none"
         id="path46"
         inkscape:connector-curvature="0" /><path
         d="M 2928.5,377.602 V 1253.8 h -153.1 v 52.8 h 359.1 v -52.8 H 2981.3 V 377.602 Z"
         style="fill:none;stroke:#231f20;stroke-width:18.10000038;stroke-linecap:butt;stroke-linejoin:miter;stroke-miterlimit:4;stroke-dasharray:none;stroke-opacity:1"
         id="path48"
         inkscape:connector-curvature="0" /></g></g></svg>