<?xml version="1.0" encoding="UTF-8" standalone="no"?>
<!-- Created with Inkscape (http://www.inkscape.org/) -->

<svg
   xmlns:dc="http://purl.org/dc/elements/1.1/"
   xmlns:cc="http://creativecommons.org/ns#"
   xmlns:rdf="http://www.w3.org/1999/02/22-rdf-syntax-ns#"
   xmlns:svg="http://www.w3.org/2000/svg"
   xmlns="http://www.w3.org/2000/svg"
   xmlns:sodipodi="http://sodipodi.sourceforge.net/DTD/sodipodi-0.dtd"
   xmlns:inkscape="http://www.inkscape.org/namespaces/inkscape"
   width="16.934414mm"
   height="15.240398mm"
   viewBox="0 0 60.003829 54.001411"
   id="svg2"
   version="1.1"
   inkscape:version="0.91 r13725"
   sodipodi:docname="logoThese-fr.svg">
  <defs
     id="defs4">
    <clipPath
       clipPathUnits="userSpaceOnUse"
       id="clipPath4149">
      <rect
         style="color:#000000;clip-rule:nonzero;display:inline;overflow:visible;visibility:visible;opacity:1;isolation:auto;mix-blend-mode:normal;color-interpolation:sRGB;color-interpolation-filters:linearRGB;solid-color:#000000;solid-opacity:1;fill:#e16600;fill-opacity:1;fill-rule:nonzero;stroke:none;stroke-width:0.50066173;stroke-linecap:round;stroke-linejoin:round;stroke-miterlimit:10;stroke-dasharray:none;stroke-dashoffset:0;stroke-opacity:1;marker:none;marker-start:none;marker-mid:none;marker-end:none;color-rendering:auto;image-rendering:auto;shape-rendering:auto;text-rendering:auto;enable-background:accumulate"
         id="rect4151"
         width="66.417526"
         height="71.720833"
         x="51.51778"
         y="533.64886" />
    </clipPath>
  </defs>
  <sodipodi:namedview
     id="base"
     pagecolor="#ffffff"
     bordercolor="#666666"
     borderopacity="1.0"
     inkscape:pageopacity="0.0"
     inkscape:pageshadow="2"
     inkscape:zoom="1.4"
     inkscape:cx="-27.198921"
     inkscape:cy="-58.361106"
     inkscape:document-units="px"
     inkscape:current-layer="layer1"
     showgrid="false"
     fit-margin-top="0"
     fit-margin-left="0"
     fit-margin-right="0"
     fit-margin-bottom="0"
     inkscape:window-width="1920"
     inkscape:window-height="1048"
     inkscape:window-x="0"
     inkscape:window-y="0"
     inkscape:window-maximized="1" />
  <metadata
     id="metadata7">
    <rdf:RDF>
      <cc:Work
         rdf:about="">
        <dc:format>image/svg+xml</dc:format>
        <dc:type
           rdf:resource="http://purl.org/dc/dcmitype/StillImage" />
        <dc:title></dc:title>
      </cc:Work>
    </rdf:RDF>
  </metadata>
  <g
     inkscape:label="Calque 1"
     inkscape:groupmode="layer"
     id="layer1"
     transform="translate(-38.109947,-420.06363)">
    <g
       id="g4257"
       transform="translate(-50.892857,-3.5714286)">
      <path
         style="fill:#f4f9fb"
         d="m 89.002914,466.68647 c 0,-6.62351 0.111278,-10.95 0.281636,-10.95 0.1549,0 0.373408,0.61194 0.485574,1.35987 0.169976,1.13341 0.476554,1.6205 1.84101,2.925 2.225879,2.12806 3.247586,2.60593 7.647013,3.57663 1.985723,0.43814 3.024933,1.57454 3.851543,4.21177 0.92789,2.96037 1.62227,4.12446 3.05938,5.12886 1.21823,0.85142 1.21989,0.85166 1.98894,0.27751 1.10649,-0.82606 1.33059,-2.11483 1.00048,-5.75342 -0.40034,-4.41255 -1.85736,-7.71177 -4.79488,-10.85731 -1.52711,-1.63525 -2.42079,-2.28207 -4.650296,-3.36574 -4.969888,-2.41566 -6.812138,-2.51894 -8.913884,-0.49971 -0.658063,0.63222 -1.196478,1.29508 -1.196478,1.47302 0,0.17794 -0.135008,0.32352 -0.300019,0.32352 -0.196129,0 -0.300019,-5.35 -0.300019,-15.45 l 0,-15.45 10.500669,0 10.500667,0 0.001,1.125 c 10e-4,1.44947 0.59316,2.38523 3.37998,5.34528 1.43101,1.51996 2.76051,2.62868 3.57403,2.98051 0.71248,0.30813 1.56542,0.78223 1.89545,1.05356 1.05685,0.86891 4.14701,1.49565 7.37436,1.49565 4.02553,0 6.51522,-0.73562 8.55037,-2.52635 1.47201,-1.29522 1.47637,-1.30459 1.47637,-3.17142 0,-1.84664 -0.0185,-1.88837 -1.35008,-3.03649 -0.74255,-0.64026 -1.46469,-1.16448 -1.60477,-1.16493 -0.14007,-4.5e-4 -0.70843,-0.21612 -1.26302,-0.47927 -1.08922,-0.51684 -3.46478,-0.46914 -5.08272,0.10206 -1.96899,0.69513 -5.7346,1.93228 -6.30667,2.072 -0.38686,0.0945 -1.02619,-0.18558 -1.76637,-0.77376 -0.63803,-0.50701 -1.25678,-0.92184 -1.375,-0.92184 -0.11823,0 -0.57915,-0.3375 -1.02428,-0.75 -0.44512,-0.4125 -0.93736,-0.75 -1.09387,-0.75 -0.15651,0 -0.28456,-0.135 -0.28456,-0.3 0,-0.19646 5.85037,-0.3 16.95108,-0.3 l 16.95108,0 0,27 0,27 -15.00096,0 c -13.96925,0 -16.3618,-0.12768 -14.35096,-0.76586 1.39983,-0.44426 4.56652,-4.02163 5.93596,-6.70579 0.92907,-1.821 1.54944,-2.06265 5.58915,-2.17707 3.40123,-0.0963 3.63085,-0.14332 4.70097,-0.96189 1.14194,-0.87351 1.4508,-1.91051 0.85109,-2.85754 -0.51488,-0.81307 -6.36873,-2.42618 -8.81737,-2.42975 -2.65635,-0.004 -8.9098,1.71432 -8.9098,2.44805 0,0.15426 -0.43877,0.4681 -0.97506,0.69743 -1.45759,0.62329 -4.5765,3.97281 -5.45341,5.85662 -0.42137,0.90519 -0.76744,2.08993 -0.76905,2.63275 -0.003,1.13163 1.01358,3.31145 1.66073,3.55976 1.48827,0.57107 -0.77046,0.70329 -12.01432,0.70329 l -12.450796,0 0,-10.95 z m 53.224936,-5.76625 c 1.53654,-1.15894 1.82857,-1.89099 1.82857,-4.58375 0,-3.11326 -0.71916,-4.86534 -3.35074,-8.16333 -1.53048,-1.91805 -1.73831,-2.33593 -1.69669,-3.41143 0.0261,-0.67409 0.25585,-1.72439 0.51057,-2.33398 0.53851,-1.28875 0.95295,-5.18776 0.67088,-6.31154 -0.10659,-0.42467 -0.51967,-0.98563 -0.91795,-1.24658 -0.62419,-0.40896 -0.83185,-0.41803 -1.50433,-0.0657 -1.4008,0.73391 -3.33262,3.47268 -4.67436,6.62692 l -1.2998,3.05564 0.009,3.78954 c 0.008,3.34678 0.085,3.91175 0.65586,4.83541 0.35553,0.57523 0.64642,1.2387 0.64642,1.47439 0,0.23568 0.43878,1.23983 0.97506,2.23145 0.98613,1.82339 2.7142,3.62003 4.30577,4.47661 1.02882,0.55371 2.84616,0.37694 3.8413,-0.37365 z M 95.489246,447.96303 c 4.36853,-1.41996 7.134604,-3.42822 9.414824,-6.83546 2.35942,-3.5256 2.78476,-4.97221 2.81995,-9.59089 0.0344,-4.51463 -0.18244,-5.06891 -2.48641,-6.35583 -1.65178,-0.92263 -2.75267,-0.71065 -4.61926,0.88945 -2.465893,2.11384 -2.742566,2.94849 -2.822973,8.51617 -0.03813,2.64 -0.0744,4.8935 -0.08062,5.00778 -0.0062,0.11428 -1.02594,0.87384 -2.266064,1.68792 -2.80152,1.83905 -4.34565,3.7494 -4.34565,5.3763 0,0.6369 0.16201,1.32 0.360023,1.518 0.5215,0.52147 2.0076,0.44268 4.026175,-0.21344 z"
         id="path4263"
         inkscape:connector-curvature="0" />
      <path
         style="fill:#3ab3e4"
         d="m 113.41283,476.94334 c -1.74642,-1.78777 -2.00367,-3.69529 -0.83648,-6.20267 0.87691,-1.88381 3.99582,-5.23333 5.45341,-5.85662 0.53629,-0.22933 0.97506,-0.54317 0.97506,-0.69743 0,-0.73373 6.25345,-2.45192 8.9098,-2.44805 2.44864,0.004 8.30249,1.61668 8.81737,2.42975 0.59971,0.94703 0.29085,1.98403 -0.85109,2.85754 -1.07012,0.81857 -1.29974,0.86556 -4.70097,0.96189 -4.03971,0.11442 -4.66008,0.35607 -5.58915,2.17707 -1.36944,2.68416 -4.53613,6.26153 -5.93596,6.70579 -0.3575,0.11346 -0.65,0.33219 -0.65,0.48608 0,0.15388 -1.11382,0.27162 -2.47515,0.26165 -2.13736,-0.0157 -2.56273,-0.10778 -3.11684,-0.675 z m 21.86803,-10.11312 c 2.37187,-1.48936 1.62203,-3.00442 -1.60239,-3.23764 -1.50303,-0.10871 -1.91514,-0.0299 -2.46391,0.47158 -0.36245,0.33117 -1.06403,0.81767 -1.55906,1.0811 -1.45429,0.77393 -2.33037,1.64943 -2.14191,2.14051 0.13855,0.36104 0.78662,0.44957 3.25757,0.445 2.90004,-0.005 3.16989,-0.0593 4.5097,-0.90055 z m -29.22913,6.05843 c -1.32773,-0.9662 -2.03645,-2.18967 -2.94204,-5.07891 -0.82661,-2.63723 -1.86582,-3.77363 -3.851543,-4.21177 -4.399427,-0.9707 -5.421134,-1.44857 -7.647013,-3.57663 -1.364456,-1.3045 -1.671034,-1.79159 -1.84101,-2.925 -0.112166,-0.74793 -0.330674,-1.35987 -0.485574,-1.35987 -0.403714,0 -0.347334,-0.84285 0.09339,-1.3961 2.946973,-3.69943 4.621925,-3.87781 10.335376,-1.10073 5.435954,2.64219 8.835884,7.70261 9.433584,14.04083 0.34948,3.70598 0.15068,5.06034 -0.85938,5.85481 -0.93268,0.73359 -0.88095,0.7393 -2.23579,-0.24663 z m 2.75245,-1.75158 c 0,-1.95177 -1.96765,-4.79249 -4.00149,-5.77699 -0.70856,-0.34298 -1.38067,-0.62361 -1.49358,-0.62361 -0.69286,0 0.44915,4.85706 1.53792,6.54087 0.2457,0.37998 0.92809,0.93781 1.51643,1.23962 0.96303,0.49403 1.13808,0.50397 1.75521,0.0996 0.49376,-0.3235 0.68551,-0.73735 0.68551,-1.47952 z m 29.58237,-9.8432 c -1.59157,-0.85658 -3.31964,-2.65322 -4.30576,-4.47661 -0.53629,-0.99162 -0.97507,-1.99577 -0.97507,-2.23145 0,-0.23569 -0.29089,-0.89916 -0.64642,-1.47439 -0.57089,-0.92366 -0.64752,-1.48863 -0.65586,-4.83541 l -0.009,-3.78954 1.2998,-3.05564 c 1.34174,-3.15424 3.27356,-5.89301 4.67436,-6.62692 0.67248,-0.35233 0.88014,-0.34326 1.50433,0.0657 0.39828,0.26095 0.81136,0.82191 0.91795,1.24658 0.28207,1.12378 -0.13237,5.02279 -0.67088,6.31154 -0.25472,0.60959 -0.48448,1.65989 -0.51057,2.33398 -0.0416,1.0755 0.16621,1.49338 1.69669,3.41143 2.63158,3.29799 3.35074,5.05007 3.35074,8.16333 0,2.69276 -0.29203,3.42481 -1.82857,4.58375 -0.99514,0.75059 -2.81248,0.92736 -3.8413,0.37365 z m 0.76743,-18.7574 c 0.30584,-0.9075 0.63819,-2.73 0.73856,-4.05 0.17428,-2.29208 0.14849,-2.43151 -0.57369,-3.1007 -0.91871,-0.85133 -1.63123,-0.58757 -2.58608,0.95732 -1.34024,2.16841 -0.41801,8.18212 1.21755,7.93946 0.48706,-0.0723 0.78541,-0.50507 1.20366,-1.74608 z m -47.690909,5.64 c -0.198013,-0.198 -0.360023,-0.8811 -0.360023,-1.518 0,-1.6269 1.54413,-3.53725 4.34565,-5.3763 1.240124,-0.81408 2.259852,-1.57364 2.266064,-1.68792 0.0062,-0.11428 0.04249,-2.36778 0.08062,-5.00778 0.08041,-5.56768 0.35708,-6.40233 2.822968,-8.51617 1.86659,-1.6001 2.96748,-1.81208 4.61926,-0.88945 2.30397,1.28692 2.5208,1.8412 2.48641,6.35583 -0.0352,4.61868 -0.46053,6.06529 -2.81995,9.59089 -1.53507,2.2938 -4.47673,4.90711 -6.492111,5.76746 -3.51835,1.50196 -6.228536,2.00174 -6.948883,1.28144 z m 2.383379,-0.247 c 1.96159,-0.54482 4.157037,-4.06129 4.157037,-6.65838 0,-1.32228 -2.787853,0.13508 -5.175329,2.70543 -1.201825,1.29388 -1.425091,1.72034 -1.425091,2.7221 0,1.53015 0.485392,1.77467 2.443383,1.23085 z m 27.2136,-12.85346 c -0.93225,-0.26925 -1.94481,-0.70046 -2.25014,-0.95825 -0.30532,-0.25779 -1.13806,-0.72117 -1.85053,-1.02972 -1.30943,-0.56709 -5.29571,-4.49036 -6.40278,-6.30157 -0.6859,-1.12216 -0.75177,-3.15 -0.10232,-3.15 0.24752,0 0.45003,0.135 0.45003,0.3 0,0.165 -0.13501,0.3 -0.30002,0.3 -0.42426,0 -0.37298,1.28827 0.075,1.8842 0.20627,0.27439 1.04964,0.97519 1.87416,1.55734 1.42088,1.0032 1.62748,1.05846 3.95755,1.05846 1.35213,0 2.5426,-0.13621 2.64549,-0.30268 0.36661,-0.59315 -0.2122,-1.51601 -1.29855,-2.07043 -0.60679,-0.30967 -1.35352,-0.83976 -1.6594,-1.17796 -0.30588,-0.33821 -0.94717,-0.7008 -1.42509,-0.80576 -0.90896,-0.19963 -1.20609,-0.74317 -0.40626,-0.74317 0.4826,0 0.62929,0.0957 2.05628,1.34147 0.47787,0.41719 0.96559,0.75853 1.08382,0.75853 0.11822,0 0.73697,0.41483 1.375,0.92184 0.74018,0.58818 1.37951,0.86824 1.76637,0.77376 0.57207,-0.13972 4.33768,-1.37687 6.30667,-2.072 1.61794,-0.5712 3.9935,-0.6189 5.08272,-0.10206 0.55459,0.26315 1.12295,0.47883 1.26302,0.47927 0.14008,4.5e-4 0.86222,0.52467 1.60477,1.16493 1.33153,1.14812 1.35008,1.18985 1.35008,3.03649 0,1.86683 -0.004,1.8762 -1.47637,3.17142 -2.10295,1.85039 -4.52137,2.5372 -8.77085,2.49089 -2.0142,-0.022 -3.89933,-0.22195 -4.94865,-0.525 z"
         id="path4261"
         inkscape:connector-curvature="0" />
      <path
         style="fill:#1a262a"
         d="m 106.36346,472.51696 c -0.58834,-0.30181 -1.27073,-0.85964 -1.51643,-1.23962 -1.08877,-1.68381 -2.23078,-6.54087 -1.53792,-6.54087 0.11291,0 0.78502,0.28063 1.49358,0.62361 3.01095,1.45748 5.12061,6.07415 3.31598,7.25651 -0.61713,0.40434 -0.79218,0.3944 -1.75521,-0.0996 z m 21.15013,-5.23119 c -0.18846,-0.49108 0.68762,-1.36658 2.14191,-2.14051 0.49503,-0.26343 1.19661,-0.74993 1.55906,-1.0811 0.54877,-0.50142 0.96088,-0.58029 2.46391,-0.47158 3.22442,0.23322 3.97426,1.74828 1.60239,3.23764 -1.33981,0.8413 -1.60966,0.89519 -4.5097,0.90055 -2.47095,0.005 -3.11902,-0.084 -3.25757,-0.445 z M 91.778091,448.03779 c -0.211397,-0.0853 -0.375024,-0.66959 -0.375024,-1.33917 0,-1.00176 0.223266,-1.42822 1.425091,-2.7221 1.565929,-1.68587 3.788764,-3.24005 4.634029,-3.24005 0.64958,0 0.679792,0.53538 0.146273,2.59201 -0.800828,3.08708 -3.81565,5.52221 -5.830369,4.70931 z m 44.926239,-5.05511 c -0.84179,-1.9637 -0.8277,-5.25443 0.0284,-6.63959 0.95485,-1.54489 1.66737,-1.80865 2.58608,-0.95732 0.72218,0.66919 0.74797,0.80862 0.57369,3.1007 -0.24211,3.18415 -1.07419,5.66729 -1.94222,5.79608 -0.52049,0.0772 -0.76502,-0.17788 -1.24599,-1.29987 z m -24.15088,-15.30467 c -2.27621,-1.6071 -2.79566,-2.63795 -1.82058,-3.61297 0.47243,-0.4724 3.17163,-0.60211 3.17163,-0.15241 0,0.15189 0.39103,0.36205 0.86895,0.46701 0.47792,0.10496 1.11921,0.46755 1.42509,0.80576 0.30588,0.3382 1.05261,0.86829 1.6594,1.17796 1.08635,0.55442 1.66516,1.47728 1.29855,2.07043 -0.10289,0.16647 -1.29336,0.30268 -2.64549,0.30268 -2.33007,0 -2.53667,-0.0553 -3.95755,-1.05846 z"
         id="path4259"
         inkscape:connector-curvature="0" />
    </g>
  </g>
</svg>
