<?xml version="1.0" encoding="UTF-8" standalone="no"?>
<!-- Created with Inkscape (http://www.inkscape.org/) -->

<svg
   xmlns:dc="http://purl.org/dc/elements/1.1/"
   xmlns:cc="http://creativecommons.org/ns#"
   xmlns:rdf="http://www.w3.org/1999/02/22-rdf-syntax-ns#"
   xmlns:svg="http://www.w3.org/2000/svg"
   xmlns="http://www.w3.org/2000/svg"
   xmlns:sodipodi="http://sodipodi.sourceforge.net/DTD/sodipodi-0.dtd"
   xmlns:inkscape="http://www.inkscape.org/namespaces/inkscape"
   width="67.73333mm"
   height="24.271111mm"
   viewBox="0 0 239.99999 85.999998"
   id="svg2"
   version="1.1"
   inkscape:version="0.91 r13725"
   sodipodi:docname="logoKaggle.svg">
  <defs
     id="defs4" />
  <sodipodi:namedview
     id="base"
     pagecolor="#ffffff"
     bordercolor="#666666"
     borderopacity="1.0"
     inkscape:pageopacity="0.0"
     inkscape:pageshadow="2"
     inkscape:zoom="0.98994949"
     inkscape:cx="226.32174"
     inkscape:cy="239.89332"
     inkscape:document-units="px"
     inkscape:current-layer="layer1"
     showgrid="false"
     inkscape:window-width="1920"
     inkscape:window-height="1057"
     inkscape:window-x="-8"
     inkscape:window-y="-8"
     inkscape:window-maximized="1"
     fit-margin-top="0"
     fit-margin-left="0"
     fit-margin-right="0"
     fit-margin-bottom="0" />
  <metadata
     id="metadata7">
    <rdf:RDF>
      <cc:Work
         rdf:about="">
        <dc:format>image/svg+xml</dc:format>
        <dc:type
           rdf:resource="http://purl.org/dc/dcmitype/StillImage" />
        <dc:title></dc:title>
      </cc:Work>
    </rdf:RDF>
  </metadata>
  <g
     inkscape:label="Calque 1"
     inkscape:groupmode="layer"
     id="layer1"
     transform="translate(-101.04965,-411.71939)">
    <g
       id="g4185"
       transform="translate(-73.23606,99.500026)">
      <path
         style="fill:#fbfdfe"
         d="m 174.28571,355.21936 0,-43 120,0 120,0 0,43 0,43 -120,0 -120,0 0,-43 z"
         id="path4189"
         inkscape:connector-curvature="0" />
      <path
         style="fill:#23befe"
         d="m 262.78571,396.06882 c -4.70038,-2.56106 -8.48682,-5.42553 -8.49317,-6.42515 -0.004,-0.59162 1.07974,-2.09646 2.40777,-3.34408 l 2.4146,-2.2684 3.81753,2.59409 c 4.09185,2.78048 9.91656,3.43335 13.50367,1.51359 2.45896,-1.316 4.8496,-6.73574 4.8496,-10.99438 0,-2.59551 -0.30305,-3.01522 -1.75,-2.42367 -8.57654,3.50629 -15.58339,2.90074 -20.94918,-1.81048 -5.04616,-4.43059 -7.2569,-9.81996 -7.2569,-17.69098 0,-15.68551 11.26898,-25.10703 24.7165,-20.66442 2.74481,0.90679 4.87987,1.16568 5.07291,0.61511 0.18334,-0.52288 2.09584,-0.95069 4.25,-0.95069 l 3.91667,0 0,24.84272 c 0,23.95561 -0.0819,25.00009 -2.29375,29.25 -3.00678,5.7773 -8.90688,8.91949 -16.66814,8.87687 -3.04596,-0.0167 -6.43811,-0.52078 -7.53811,-1.12013 z m 16.04545,-30.30401 c 2.20157,-2.20156 2.45455,-3.28843 2.45455,-10.54545 0,-7.25702 -0.25298,-8.34389 -2.45455,-10.54546 -1.96715,-1.96715 -3.47168,-2.45454 -7.57692,-2.45454 -4.36977,0 -5.56768,0.4453 -8.1532,3.03082 -2.93083,2.93083 -3.01819,3.28079 -2.64819,10.60799 0.34397,6.8116 0.6636,7.81885 3.16351,9.96918 3.97773,3.4215 11.76277,3.3895 15.2148,-0.0625 z m 26.81395,29.40338 c -2.27734,-1.12727 -4.86138,-2.84603 -5.74233,-3.81947 -1.48389,-1.63968 -1.39135,-1.97144 1.25788,-4.50955 l 2.8596,-2.73968 3.77227,2.55994 c 6.00059,4.07211 14.0409,3.04276 16.38291,-2.0974 0.61065,-1.34022 1.11027,-4.16258 1.11027,-6.27189 l 0,-3.8351 -3.75,1.33826 c -15.48171,5.52499 -29.03507,-8.31221 -25.29423,-25.82394 2.81215,-13.16432 13.03749,-19.48622 24.80345,-15.33495 2.64102,0.9318 4.34805,1.07768 4.99857,0.42716 0.54334,-0.54334 2.50762,-0.84262 4.36505,-0.66505 l 3.37716,0.32284 0.26896,22.82273 c 0.16072,13.63797 -0.15169,24.38491 -0.7763,26.70453 -1.31851,4.89655 -5.43537,9.84194 -9.66385,11.60871 -4.85989,2.0306 -13.11688,1.71485 -17.96941,-0.68714 z m 17.00574,-29.02141 c 2.48742,-1.9566 2.634,-2.55815 2.61955,-10.75 -0.008,-4.77258 -0.34592,-9.17255 -0.75,-9.77772 -1.39983,-2.09643 -5.1247,-3.3997 -9.7167,-3.3997 -3.66659,0 -5.10093,0.52596 -6.98842,2.56259 -4.49146,4.84637 -4.3998,15.06131 0.18402,20.50888 2.09127,2.48533 3.18704,2.92853 7.24044,2.92853 3.31781,0 5.58082,-0.63287 7.41111,-2.07258 z m -101.94995,9.65117 c -6.65283,-2.89664 -9.88186,-10.68556 -6.97202,-16.81759 2.12943,-4.48744 7.49858,-7.41441 16.40115,-8.94103 7.89983,-1.35468 8.6696,-2.39696 4.70113,-6.36543 -3.02433,-3.02432 -7.20312,-3.17999 -12.52208,-0.46646 l -3.89696,1.98808 -2.06321,-2.62294 c -2.68171,-3.40924 -2.6082,-4.02125 0.6868,-5.71779 9.12158,-4.69654 18.03953,-4.51514 23.73179,0.48273 4.51815,3.96698 5.74084,9.89828 5.33533,25.88184 l -0.31712,12.5 -3.37716,0.32284 c -1.85743,0.17757 -3.79745,-0.0974 -4.31114,-0.61114 -0.57865,-0.57865 -2.33743,-0.43283 -4.62284,0.38326 -4.71513,1.68372 -8.88127,1.67838 -12.77367,-0.0164 z m 13.63447,-8.10427 c 2.61886,-1.35427 2.95034,-2.04285 2.95034,-6.12883 l 0,-4.60315 -5.04026,0.66861 c -6.8496,0.90863 -9.88938,2.46053 -10.63447,5.42921 -1.28407,5.11614 6.38864,7.9105 12.72439,4.63416 z m 135.78869,8.34388 c -5.22912,-1.3925 -11.37379,-7.03491 -13.37895,-12.28534 -2.61223,-6.84003 -1.70023,-16.31254 2.08668,-21.67323 4.08246,-5.77906 9.39571,-8.36423 17.14379,-8.34135 5.23929,0.0155 6.83999,0.47618 10.42323,3 5.45359,3.84118 8.8869,10.26938 8.8869,16.639 l 0,4.84272 -15.5,0 c -8.525,0 -15.5,0.24735 -15.5,0.54966 0,1.5779 3.27339,6.52842 5.21679,7.88964 2.67203,1.87156 10.76919,2.05683 15.47788,0.35415 2.99995,-1.0848 3.56074,-0.98249 5.55712,1.01389 2.99168,2.99169 1.56287,5.1775 -4.8365,7.39889 -5.45812,1.89466 -10.07856,2.07618 -15.57694,0.61197 z m 16.16165,-26.27115 c 0,-1.9584 -2.88656,-5.95415 -5.14503,-7.12205 -5.99168,-3.09842 -12.38261,-1.17292 -15.38636,4.6357 l -1.51997,2.9393 11.02568,0 c 6.06412,0 11.02568,-0.20383 11.02568,-0.45295 z m -210.28574,25.83387 c -0.39284,-0.39284 -0.71426,-14.58925 -0.71426,-31.54759 l 0,-30.83333 4.5,0 4.5,0 0,18.72792 0,18.72792 8.27089,-8.22792 c 8.0197,-7.97804 8.4145,-8.22792 13,-8.22792 2.71435,0 4.72911,0.45929 4.72911,1.07806 0,0.59293 -3.6,4.46468 -8,8.60388 -4.4,4.13921 -8,7.9298 -8,8.42353 0,0.49374 3.825,5.58277 8.5,11.30896 4.675,5.72619 8.5,10.90047 8.5,11.49841 0,0.63415 -2.03062,1.08716 -4.87325,1.08716 l -4.87325,0 -6.83685,-8.96485 c -6.36866,-8.35091 -6.9566,-8.85648 -8.58532,-7.38251 -1.28744,1.16512 -1.8253,3.46295 -2.03989,8.71485 l -0.29144,7.13251 -3.53574,0.29759 c -1.94466,0.16368 -3.85716,-0.0238 -4.25,-0.41667 z m 166,0 c -0.39284,-0.39284 -0.71426,-14.61513 -0.71426,-31.60508 l 0,-30.89084 4.25,0.3075 4.25,0.3075 0,31 0,31 -3.53574,0.29759 c -1.94466,0.16368 -3.85716,-0.0238 -4.25,-0.41667 z"
         id="path4187"
         inkscape:connector-curvature="0" />
    </g>
    <path
       style="fill:#000000"
       d=""
       id="path4147"
       inkscape:connector-curvature="0" />
  </g>
</svg>
