<?xml version="1.0" encoding="UTF-8" standalone="no"?>
<!-- Created with Inkscape (http://www.inkscape.org/) -->

<svg
   xmlns:dc="http://purl.org/dc/elements/1.1/"
   xmlns:cc="http://creativecommons.org/ns#"
   xmlns:rdf="http://www.w3.org/1999/02/22-rdf-syntax-ns#"
   xmlns:svg="http://www.w3.org/2000/svg"
   xmlns="http://www.w3.org/2000/svg"
   xmlns:sodipodi="http://sodipodi.sourceforge.net/DTD/sodipodi-0.dtd"
   xmlns:inkscape="http://www.inkscape.org/namespaces/inkscape"
   width="15.623868mm"
   height="15.166062mm"
   viewBox="0 0 15.623868 15.166062"
   version="1.1"
   id="svg4683"
   inkscape:version="0.92.1 r15371"
   sodipodi:docname="logo_vulg.svg">
  <defs
     id="defs4677" />
  <sodipodi:namedview
     id="base"
     pagecolor="#ffffff"
     bordercolor="#666666"
     borderopacity="1.0"
     inkscape:pageopacity="0.0"
     inkscape:pageshadow="2"
     inkscape:zoom="3.959798"
     inkscape:cx="56.117809"
     inkscape:cy="19.438304"
     inkscape:document-units="mm"
     inkscape:current-layer="g4532"
     showgrid="false"
     inkscape:window-width="1920"
     inkscape:window-height="1057"
     inkscape:window-x="-8"
     inkscape:window-y="-8"
     inkscape:window-maximized="1"
     fit-margin-top="0"
     fit-margin-left="0"
     fit-margin-right="0"
     fit-margin-bottom="0" />
  <metadata
     id="metadata4680">
    <rdf:RDF>
      <cc:Work
         rdf:about="">
        <dc:format>image/svg+xml</dc:format>
        <dc:type
           rdf:resource="http://purl.org/dc/dcmitype/StillImage" />
        <dc:title></dc:title>
      </cc:Work>
    </rdf:RDF>
  </metadata>
  <g
     inkscape:label="Calque 1"
     inkscape:groupmode="layer"
     id="layer1"
     transform="translate(-55.271165,-17.723346)">
    <g
       id="g4532"
       transform="translate(-30.994048,-20.410714)"
       style="opacity:1;vector-effect:none;fill:#5f2644;fill-opacity:1;stroke:none;stroke-width:0.02999266;stroke-linecap:butt;stroke-linejoin:miter;stroke-miterlimit:4;stroke-dasharray:none;stroke-dashoffset:0;stroke-opacity:1;marker:none;marker-start:none;marker-mid:none;marker-end:none">
      <g
         id="g4541"
         transform="matrix(0.82906058,0,0,1,36.572015,20.980658)"
         style="vector-effect:none;fill:#5f2644;fill-opacity:1;stroke:none;stroke-width:0.54913217;stroke-linecap:butt;stroke-linejoin:miter;stroke-miterlimit:4;stroke-dasharray:none;stroke-dashoffset:0;stroke-opacity:1;marker:none;marker-start:none;marker-mid:none;marker-end:none">
        <path
           style="vector-effect:none;fill:#5f2644;fill-opacity:1;stroke:none;stroke-width:0.54913217;stroke-linecap:butt;stroke-linejoin:miter;stroke-miterlimit:4;stroke-dasharray:none;stroke-dashoffset:0;stroke-opacity:1;marker:none;marker-start:none;marker-mid:none;marker-end:none"
           d="m 68.428875,32.136772 c 0.156369,-0.14808 0.181826,-0.226634 0.167882,-0.518024 -0.02516,-0.525829 -0.204184,-0.700707 -0.799349,-0.780843 -0.809013,-0.108931 -1.282931,-0.247343 -1.693924,-0.494729 -0.681936,-0.410475 -0.667725,-0.393851 -0.586541,-0.686096 0.07029,-0.253029 0.06684,-0.260596 -0.24921,-0.547785 l -0.320483,-0.291212 -0.894323,0.503005 -0.894326,0.503003 0.211469,0.155675 c 0.437816,0.3223 2.638874,1.61272 3.212623,1.883471 0.598689,0.282519 1.216834,0.46938 1.506835,0.455503 0.08526,-0.0041 0.237972,-0.08596 0.339347,-0.181968 z m -6.206221,-1.843076 c 0.560993,-0.330354 0.563823,-0.343728 0.156277,-0.737894 -0.574545,-0.555682 -0.897993,-1.139151 -1.047519,-1.889631 l -0.06151,-0.308705 -0.266753,0.167186 c -0.146718,0.09195 -0.354036,0.276737 -0.460708,0.410634 -0.176036,0.220958 -0.189685,0.278825 -0.147766,0.626407 0.08167,0.677255 0.681149,1.611764 1.180645,1.8405 0.257299,0.117828 0.265266,0.116492 0.647332,-0.108495 z m -1.491535,-0.36371 c -0.154693,-0.215949 -0.345109,-0.58443 -0.423147,-0.818847 l -0.141892,-0.426213 -0.121627,0.165823 c -0.343063,0.467722 0.213211,1.507985 0.791584,1.480308 l 0.176341,-0.0084 z m 3.28324,-0.794937 c 1.981312,-1.126549 4.235234,-2.087715 6.413065,-2.734794 1.61065,-0.478558 1.500278,-0.433069 1.326944,-0.546891 -1.78896,-1.174746 -3.636039,-3.616423 -4.098386,-5.417706 l -0.101829,-0.396734 -0.324398,0.757274 c -1.006003,2.348412 -2.813182,4.497167 -5.08783,6.049483 l -0.653106,0.445708 0.05822,0.282538 c 0.09509,0.461424 0.320758,0.966415 0.604181,1.352045 0.283417,0.385625 0.706928,0.761306 0.844135,0.748801 0.04569,-0.0042 0.504248,-0.247042 1.019001,-0.539724 z m 9.857972,-2.960082 c 1.1244,-0.711991 -0.433521,-4.229272 -2.832155,-6.394088 -0.693358,-0.625768 -1.413684,-1.082425 -1.968942,-1.248222 -0.455244,-0.135936 -0.655502,-0.133574 -0.96044,0.01133 -1.391558,0.661241 0.676881,4.907789 3.371675,6.922123 0.941017,0.7034 1.933561,0.997801 2.389862,0.708861 z M 72.783388,25.57106 c -0.456092,-0.190719 -1.00344,-0.589292 -1.547704,-1.062263 l -0.345548,-0.300286 0.334743,-0.291012 0.477216,-0.48 -0.37299,-0.304405 c -0.418795,-0.341787 -1.065328,-1.188508 -1.201037,-1.572916 -0.04917,-0.139279 -0.116036,-0.25196 -0.14859,-0.250402 -0.03255,0.0016 -0.300646,0.139066 -0.595761,0.305576 l -0.379853,0.255496 -0.258303,-0.424876 c -0.280798,-0.548017 -0.437265,-1.123997 -0.456568,-1.527386 -0.09049,-1.890936 1.813678,-1.018743 3.843093,1.717492 1.045403,1.409504 1.845008,2.830612 1.646948,3.543596 -0.153133,0.551251 -0.286933,0.687739 -0.995646,0.391386 z m -0.760726,-2.482076 c 0.220252,-0.242392 -0.609575,-1.574675 -1.176287,-1.888521 -0.557576,-0.308788 -0.673378,-0.01614 -0.269903,0.682094 0.443902,0.768188 1.240537,1.43275 1.44619,1.206427 z"
           id="path4497"
           inkscape:connector-curvature="0"
           sodipodi:nodetypes="ccccscccccccccscccccccccccsccccssccssccccccccccccccccccsccccccscccccc" />
        <path
           style="opacity:1;vector-effect:none;fill:#5f2644;fill-opacity:1;stroke:#5f2644;stroke-width:0.21965286;stroke-linecap:butt;stroke-linejoin:miter;stroke-miterlimit:4;stroke-dasharray:none;stroke-dashoffset:0;stroke-opacity:1;marker:none;marker-start:none;marker-mid:none;marker-end:none"
           d="m 70.040523,17.281535 c 1.533466,0.754867 2.826984,1.913484 3.99222,3.146669 1.140691,1.290007 1.98214,2.900585 2.142954,4.63274 -0.295951,0.510174 -0.407156,-0.334264 -0.382557,-0.573283 -0.281401,-1.552653 -1.176304,-2.92356 -2.206829,-4.088024 -0.906429,-0.992112 -1.938693,-1.87813 -3.076166,-2.594717 -0.176627,-0.167899 -0.749336,-0.271599 -0.699717,-0.411282 0.07618,-0.03854 0.160616,-0.06055 0.230095,-0.112103 z"
           id="path4499"
           inkscape:connector-curvature="0" />
        <path
           style="opacity:1;vector-effect:none;fill:#5f2644;fill-opacity:1;stroke:#5f2644;stroke-width:0.21965286;stroke-linecap:butt;stroke-linejoin:miter;stroke-miterlimit:4;stroke-dasharray:none;stroke-dashoffset:0;stroke-opacity:1;marker:none;marker-start:none;marker-mid:none;marker-end:none"
           d="m 72.780706,17.281535 c 1.228399,0.611304 2.269155,1.544398 3.182272,2.556138 0.807141,0.958807 1.395123,2.137118 1.512014,3.396222 -0.352028,0.372258 -0.256408,-0.482894 -0.329008,-0.679309 -0.537462,-1.952548 -2.022146,-3.467884 -3.620747,-4.626781 -0.192538,-0.253528 -0.930876,-0.36001 -0.830607,-0.599662 l 0.08608,-0.04661 z"
           id="path4504"
           inkscape:connector-curvature="0" />
        <path
           style="opacity:1;vector-effect:none;fill:#5f2644;fill-opacity:1;stroke:#5f2644;stroke-width:0.21965286;stroke-linecap:butt;stroke-linejoin:miter;stroke-miterlimit:4;stroke-dasharray:none;stroke-dashoffset:0;stroke-opacity:1;marker:none;marker-start:none;marker-mid:none;marker-end:none"
           d="m 75.618617,17.281535 c 1.007205,0.531043 1.894239,1.319036 2.509562,2.279153 0.288792,0.482097 0.485188,1.024317 0.538238,1.58546 -0.334866,0.09215 -0.121565,-0.659997 -0.359664,-0.86981 -0.483853,-1.183656 -1.461101,-2.093666 -2.514717,-2.775314 -0.08909,-0.04254 -0.483891,-0.148722 -0.173419,-0.219489 z"
           id="path4506"
           inkscape:connector-curvature="0" />
      </g>
    </g>
  </g>
</svg>
