<?xml version="1.0" encoding="UTF-8" standalone="no"?>
<svg
   xmlns:dc="http://purl.org/dc/elements/1.1/"
   xmlns:cc="http://creativecommons.org/ns#"
   xmlns:rdf="http://www.w3.org/1999/02/22-rdf-syntax-ns#"
   xmlns:svg="http://www.w3.org/2000/svg"
   xmlns="http://www.w3.org/2000/svg"
   id="svg8"
   version="1.1"
   viewBox="0 0 59.159836 52.350235"
   height="52.350235mm"
   width="59.159836mm">
  <defs
     id="defs2" />
  <metadata
     id="metadata5">
    <rdf:RDF>
      <cc:Work
         rdf:about="">
        <dc:format>image/svg+xml</dc:format>
        <dc:type
           rdf:resource="http://purl.org/dc/dcmitype/StillImage" />
        <dc:title></dc:title>
      </cc:Work>
    </rdf:RDF>
  </metadata>
  <g
     transform="translate(-64.532866,-117.44191)"
     id="layer1">
    <path
       id="path832"
       d="m 79.233057,169.3612 c -0.689444,-0.42822 -1.555446,-1.86205 -9.327923,-15.44408 -2.456642,-4.29287 -4.563069,-7.92428 -4.68095,-8.0698 -0.117881,-0.14552 -0.35733,-0.74655 -0.53211,-1.33563 -0.357266,-1.20414 -0.199633,-1.70645 1.374607,-4.38035 2.475482,-4.20468 3.539793,-6.04994 7.843422,-13.5986 4.053357,-7.10968 4.799158,-8.26418 5.599692,-8.66833 0.853197,-0.43074 2.006294,-0.46096 15.13995,-0.39688 l 14.216415,0.0694 0.77287,0.79375 c 0.42508,0.43657 2.8286,4.36563 5.34115,8.73125 2.51255,4.36563 5.50072,9.55811 6.64039,11.53886 1.92082,3.33836 2.07213,3.71114 2.07213,5.10478 0,1.42992 -0.13974,1.74543 -2.85791,6.45282 -1.57185,2.72216 -4.56327,7.92594 -6.64761,11.56397 -2.08433,3.63802 -4.1339,6.942 -4.55459,7.34218 l -0.7649,0.72761 -14.481765,-0.007 c -12.712379,-0.006 -14.563757,-0.058 -15.152868,-0.42388 z m 18.649548,-2.69039 c -0.13825,-0.11598 -1.26339,-0.52407 -2.50032,-0.90686 -1.23692,-0.38279 -4.00465,-1.24771 -6.150505,-1.92205 -2.145853,-0.67434 -4.011433,-1.15815 -4.145733,-1.07515 -0.318895,0.19709 -2.139174,3.45376 -2.139174,3.82721 0,0.20058 2.300188,0.28774 7.593542,0.28774 4.17645,0 7.48043,-0.0949 7.34219,-0.21089 z m 9.993485,-3.69365 c 2.63285,-11.36356 3.38119,-14.65573 3.38119,-14.87474 0,-0.13652 -1.27992,0.47815 -2.84427,1.36593 -19.243827,10.92104 -19.142614,10.86049 -18.771865,11.23123 0.21266,0.21266 16.536675,5.3239 17.118225,5.35992 0.29414,0.0182 0.5832,-0.77963 1.11672,-3.08234 z m -26.034778,-2.52658 c -0.337827,-0.30392 -2.340813,-2.16617 -4.45108,-4.13834 -2.110267,-1.97216 -4.121889,-3.82388 -4.47027,-4.11492 l -0.633421,-0.52916 0.341495,0.66145 c 0.41156,0.79718 6.523806,11.51216 7.073896,12.4008 0.382693,0.61821 0.404278,0.59691 1.570818,-1.55021 l 1.182793,-2.17704 z m 5.280863,-2.25864 c 0.977803,-0.55926 3.2661,-1.88076 5.08511,-2.93667 1.81901,-1.0559 3.72401,-2.15956 4.23334,-2.45256 0.50932,-0.29301 1.69995,-0.98203 2.64583,-1.53116 3.037955,-1.76367 3.802225,-2.20298 8.451505,-4.858 3.73791,-2.13456 4.50317,-2.66899 4.20996,-2.94009 -0.35108,-0.3246 -26.359044,-15.22093 -26.574701,-15.22093 -0.06032,0 -0.10968,6.96516 -0.10968,15.47813 0,8.51297 0.06318,15.47812 0.140407,15.47812 0.07722,0 0.940427,-0.45757 1.918229,-1.01684 z m 29.036235,-6.30066 3.80398,-6.57312 -2.27789,-0.0771 c -1.25284,-0.0424 -2.36348,0.0171 -2.4681,0.13229 -0.10461,0.11514 -0.80315,2.88826 -1.5523,6.16247 -0.74916,3.27423 -1.43615,6.25079 -1.52665,6.61459 -0.0905,0.3638 -0.0787,0.58327 0.0262,0.48771 0.10492,-0.0956 1.90255,-3.13165 3.99474,-6.74688 z m -34.005287,-8.16062 c 0,-6.91224 -0.07565,-12.56771 -0.168108,-12.56771 -0.207499,0 -3.432501,2.89124 -8.827726,7.91412 -2.255573,2.09992 -4.279635,3.98353 -4.497916,4.18581 -0.347546,0.32207 -0.199558,0.55063 1.190625,1.83884 3.804901,3.52582 8.599001,8.01443 10.186458,9.53736 0.945885,0.90743 1.809089,1.652 1.918229,1.65458 0.109141,0.003 0.198438,-5.65076 0.198438,-12.563 z m 37.557077,-1.579 c 0.12881,-0.0796 -0.57635,-1.54285 -1.56703,-3.25163 -5.11651,-8.8253 -6.10767,-10.46014 -5.97407,-9.85375 0.76968,3.4934 2.84235,12.63237 2.91727,12.86309 0.0986,0.3037 4.17854,0.51749 4.62383,0.24229 z m -8.45292,-3.02086 c 0,-0.12883 -0.83783,-3.90907 -1.86184,-8.40052 -1.02402,-4.49146 -1.93187,-8.49371 -2.01745,-8.89389 -0.0856,-0.40019 -0.23002,-0.72708 -0.32097,-0.72644 -0.0909,6.3e-4 -1.35599,0.39917 -2.81119,0.88564 -1.45521,0.48646 -5.415595,1.75834 -8.800875,2.8264 -3.79189,1.19634 -6.06062,2.03634 -5.90912,2.18784 0.32054,0.32054 21.263055,12.33327 21.523015,12.34571 0.10914,0.005 0.19843,-0.0959 0.19843,-0.22474 z m -35.931331,-5.98348 c 1.364206,-1.30968 3.516948,-3.36525 4.783872,-4.56791 l 2.303498,-2.18667 -1.107672,-1.98052 c -0.609219,-1.08929 -1.175387,-1.98052 -1.25815,-1.98052 -0.131446,0 -6.824178,11.26981 -7.675479,12.92464 -0.499872,0.9717 0.136588,0.49574 2.953931,-2.20902 z m 16.352176,-10.35981 c 2.98317,-0.93983 5.66208,-1.81303 5.95312,-1.94044 0.3195,-0.13986 -2.48478,-0.23874 -7.0776,-0.24955 -5.481917,-0.0129 -7.606772,0.0655 -7.606772,0.28062 0,0.29307 1.420827,2.94879 1.931402,3.61005 0.149675,0.19385 0.496696,0.267 0.817932,0.17241 0.306876,-0.0904 2.998739,-0.93325 5.981918,-1.87309 z"
       style="fill:#2e7891;fill-opacity:0.90980392;stroke-width:0.26458332" />
  </g>
</svg>
