<?xml version="1.0" encoding="UTF-8" standalone="no"?>
<!-- Created with Inkscape (http://www.inkscape.org/) -->

<svg
   xmlns:dc="http://purl.org/dc/elements/1.1/"
   xmlns:cc="http://creativecommons.org/ns#"
   xmlns:rdf="http://www.w3.org/1999/02/22-rdf-syntax-ns#"
   xmlns:svg="http://www.w3.org/2000/svg"
   xmlns="http://www.w3.org/2000/svg"
   xmlns:sodipodi="http://sodipodi.sourceforge.net/DTD/sodipodi-0.dtd"
   xmlns:inkscape="http://www.inkscape.org/namespaces/inkscape"
   width="56.321159mm"
   height="48.768303mm"
   viewBox="0 0 56.321159 48.768303"
   version="1.1"
   id="svg8"
   inkscape:version="0.92.1 r15371"
   sodipodi:docname="logo_keyboard.svg">
  <defs
     id="defs2" />
  <sodipodi:namedview
     id="base"
     pagecolor="#ffffff"
     bordercolor="#666666"
     borderopacity="1.0"
     inkscape:pageopacity="0.0"
     inkscape:pageshadow="2"
     inkscape:zoom="1.4"
     inkscape:cx="168.50074"
     inkscape:cy="275.1765"
     inkscape:document-units="mm"
     inkscape:current-layer="layer1"
     showgrid="false"
     inkscape:window-width="1920"
     inkscape:window-height="1057"
     inkscape:window-x="-8"
     inkscape:window-y="-8"
     inkscape:window-maximized="1"
     fit-margin-top="0"
     fit-margin-left="0"
     fit-margin-right="0"
     fit-margin-bottom="0" />
  <metadata
     id="metadata5">
    <rdf:RDF>
      <cc:Work
         rdf:about="">
        <dc:format>image/svg+xml</dc:format>
        <dc:type
           rdf:resource="http://purl.org/dc/dcmitype/StillImage" />
        <dc:title></dc:title>
      </cc:Work>
    </rdf:RDF>
  </metadata>
  <g
     inkscape:label="Calque 1"
     inkscape:groupmode="layer"
     id="layer1"
     transform="translate(-67.239261,54.281549)">
    <path
       style="opacity:1;vector-effect:none;fill:#333333;fill-opacity:1;stroke-width:0.26458332;stroke-linecap:butt;stroke-linejoin:miter;stroke-miterlimit:4;stroke-dasharray:none;stroke-dashoffset:0;stroke-opacity:1"
       d="M 67.961084,-6.0188613 67.33646,-6.5244793 67.2578,-18.255841 c -0.04326,-6.45225 -0.0082,-12.11802 0.07801,-12.590601 0.317229,-1.739818 -1.143696,-1.654304 28.262252,-1.654304 26.477578,0 26.570458,0.0019 27.265218,0.54837 l 0.69714,0.54837 -0.004,12.350069 c -0.002,6.792537 -0.0915,12.4810707 -0.19844,12.6411877 -0.58807,0.880719 -1.17411,0.899504 -28.061218,0.899504 -25.902013,0 -26.729926,-0.01531 -27.335632,-0.505616 z m 54.488086,-0.605634 c 0.23769,-0.237693 0.3175,-3.361078 0.3175,-12.4261067 0,-11.700638 -0.0172,-12.117838 -0.51177,-12.382502 -0.34297,-0.183549 -9.21607,-0.273892 -26.900518,-0.273892 -24.18372,0 -26.429186,0.03659 -26.872609,0.437882 -0.455026,0.411793 -0.483855,1.143699 -0.483855,12.284228 0,10.4166247 0.05018,11.8965237 0.415774,12.2621167 0.372473,0.372473 3.191379,0.415774 27.06688,0.415774 20.375848,0 26.725858,-0.07476 26.968598,-0.3175 z M 71.172918,-11.334078 v -1.5875 h 3.96875 3.96875 v 1.5875 1.5874997 h -3.96875 -3.96875 z m 9.789583,0 v -1.5875 h 14.419801 14.419788 v 1.5875 1.5874997 H 95.382302 80.962501 Z m 30.691669,0 v -1.5875 h 3.96875 3.96875 v 1.5875 1.5874997 h -3.96875 -3.96875 z m -40.481252,-5.027083 v -1.5875 h 3.96875 3.96875 v 1.5875 1.5875 h -3.96875 -3.96875 z m 9.789583,0 v -1.5875 h 1.5875 1.5875 v 1.5875 1.5875 h -1.5875 -1.5875 z m 5.027083,0 v -1.5875 h 1.719792 1.719796 v 1.5875 1.5875 h -1.719796 -1.719792 z m 5.291668,0 v -1.5875 h 1.5875 1.5875 v 1.5875 1.5875 h -1.5875 -1.5875 z m 5.02709,0 v -1.5875 h 1.71979 1.71979 v 1.5875 1.5875 h -1.71979 -1.71979 z m 5.269618,1.47783 c -0.0606,-0.06032 -0.0695,-0.774695 -0.0196,-1.5875 l 0.0906,-1.47783 h 1.56301 1.56301 v 1.5875 1.5875 h -1.5434 c -0.84887,0 -1.59301,-0.04935 -1.65364,-0.10967 z m 5.04913,-1.47783 v -1.5875 h 1.5875 1.5875 v 1.5875 1.5875 h -1.5875 -1.5875 z m 5.02708,0 v -1.5875 h 3.96875 3.96875 v 1.5875 1.5875 h -3.96875 -3.96875 z m -40.304863,-3.615973 c -0.09701,-0.09701 -0.176389,-0.87092 -0.176389,-1.719793 v -1.543402 h 2.778125 2.778125 v 1.719791 1.719793 h -2.601736 c -1.430955,0 -2.681111,-0.07937 -2.778125,-0.176389 z m 7.419877,0.01154 c -0.103363,-0.103363 -0.187933,-0.888145 -0.187933,-1.743962 v -1.556028 l 1.653646,0.07877 1.653646,0.07877 v 1.5875 1.587502 l -1.465713,0.07769 c -0.806143,0.04273 -1.550284,-0.0069 -1.653646,-0.110242 z m 5.103734,-1.554948 v -1.719791 h 1.5875 1.5875 v 1.719791 1.719793 h -1.5875 -1.5875 z m 5.027084,0 v -1.745042 l 1.65365,0.07877 1.65365,0.07877 v 1.5875 1.587502 l -1.65365,0.07877 -1.65365,0.07877 z m 5.13525,1.355446 c -0.0769,-0.200391 -0.10293,-0.944532 -0.0578,-1.653647 l 0.082,-1.289299 1.65364,-0.07877 1.65365,-0.07877 v 1.732417 1.732418 h -1.5958 c -1.1111,0 -1.63827,-0.110666 -1.73562,-0.364347 z m 5.1835,-1.355446 v -1.719791 h 1.587498 1.5875 v 1.719791 1.719793 h -1.5875 -1.587498 z m 5.140348,1.368745 c -0.0797,-0.207705 -0.10803,-0.957831 -0.0629,-1.666946 l 0.082,-1.289299 1.66661,-0.07911 1.6666,-0.07911 -0.0791,1.666608 -0.0791,1.666608 -1.52456,0.07945 c -1.1317,0.05897 -1.56189,-0.01787 -1.66947,-0.298202 z m 5.1784,-1.368745 v -1.719791 h 1.5875 1.5875 v 1.719791 1.719793 h -1.5875 -1.5875 z m 5.20348,1.543404 c -0.097,-0.09701 -0.17639,-0.87092 -0.17639,-1.719793 v -1.543402 h 2.51354 2.51354 v 1.719791 1.719793 h -2.33715 c -1.28544,0 -2.41653,-0.07937 -2.51354,-0.176389 z m -43.568062,-6.702775 v -1.5875 h 1.719792 1.719791 v 1.5875 1.5875 H 72.89271 71.172918 Z m 5.027083,0 v -1.5875 h 1.719792 1.719792 v 1.5875 1.5875 h -1.719792 -1.719792 z m 5.027084,0 v -1.5875 h 1.587499 1.5875 v 1.5875 1.5875 h -1.5875 -1.587499 z m 5.027083,0 v -1.5875 h 1.587499 1.587505 v 1.5875 1.5875 h -1.587505 -1.587499 z m 5.027084,0 v -1.5875 h 1.5875 1.5875 v 1.5875 1.5875 h -1.5875 -1.5875 z m 5.02709,0 v -1.5875 h 1.5875 1.5875 v 1.5875 1.5875 h -1.5875 -1.5875 z m 4.869788,1.220895 c -0.0774,-0.201633 -0.1034,-0.886243 -0.0578,-1.521354 l 0.0828,-1.154749 1.65364,-0.07877 1.65365,-0.07877 v 1.600125 1.600125 h -1.5958 c -1.11586,0 -1.63812,-0.110258 -1.73649,-0.366605 z m 4.91979,-1.220895 v -1.5875 h 1.71979 1.71979 v 1.5875 1.5875 h -1.71979 -1.71979 z m 5.02708,0 v -1.5875 h 1.71979 1.7198 v 1.5875 1.5875 h -1.7198 -1.71979 z m 5.02709,0 v -1.5875 h 1.71979 1.71979 v 1.5875 1.5875 h -1.71979 -1.71979 z"
       id="path4586"
       inkscape:connector-curvature="0" />
    <g
       transform="matrix(0.42034883,0,0,0.42034883,557.72036,-753.28647)"
       id="g3"
       style="opacity:1;vector-effect:none;fill:#333333;fill-opacity:1;stroke-width:0.62943751;stroke-linecap:butt;stroke-linejoin:miter;stroke-miterlimit:4;stroke-dasharray:none;stroke-dashoffset:0;stroke-opacity:1">
      <path
         inkscape:connector-curvature="0"
         d="m -1134.6598,1662.9163 c -13.601,0 -24.63,11.0267 -24.63,24.6299 0,10.8821 7.0573,20.1144 16.8435,23.3713 1.2308,0.2279 1.6829,-0.5345 1.6829,-1.1849 0,-0.587 -0.023,-2.5276 -0.033,-4.5857 -6.8521,1.4901 -8.2979,-2.906 -8.2979,-2.906 -1.1205,-2.8467 -2.7347,-3.6039 -2.7347,-3.6039 -2.2349,-1.5287 0.1685,-1.4972 0.1685,-1.4972 2.473,0.1737 3.7755,2.5385 3.7755,2.5385 2.1967,3.7651 5.7618,2.6765 7.1675,2.0472 0.2211,-1.5917 0.8591,-2.6786 1.5637,-3.2936 -5.4707,-0.6226 -11.2218,-2.7347 -11.2218,-12.1722 0,-2.6888 0.9623,-4.8861 2.538,-6.611 -0.2557,-0.6206 -1.0989,-3.1255 0.2386,-6.5183 0,0 2.0684,-0.6616 6.7747,2.525 1.9648,-0.5458 4.0719,-0.8195 6.165,-0.829 2.093,0.01 4.2017,0.2832 6.17,0.829 4.7012,-3.1866 6.7665,-2.525 6.7665,-2.525 1.3406,3.3928 0.4974,5.8977 0.2417,6.5183 1.5793,1.7249 2.5348,3.9221 2.5348,6.611 0,9.4602 -5.7618,11.5428 -11.2465,12.1527 0.8834,0.7644 1.6704,2.2632 1.6704,4.561 0,3.2955 -0.028,5.9479 -0.028,6.7592 0,0.6556 0.4432,1.4236 1.6915,1.1818 9.7812,-3.2605 16.8296,-12.4896 16.8296,-23.3682 0,-13.6032 -11.0275,-24.6299 -24.6299,-24.6299 z"
         id="path5"
         style="clip-rule:evenodd;vector-effect:none;fill:#333333;fill-opacity:1;fill-rule:evenodd;stroke-width:0.62943751;stroke-linecap:butt;stroke-linejoin:miter;stroke-miterlimit:4;stroke-dasharray:none;stroke-dashoffset:0;stroke-opacity:1" />
      <path
         inkscape:connector-curvature="0"
         d="m -1149.9611,1698.2793 c -0.054,0.1227 -0.2469,0.1593 -0.4222,0.075 -0.1788,-0.08 -0.2788,-0.2473 -0.2211,-0.37 0.053,-0.126 0.2457,-0.161 0.4242,-0.077 0.1789,0.081 0.2809,0.2489 0.2191,0.3716 z m -0.3031,-0.2246"
         id="path7"
         style="vector-effect:none;fill:#333333;fill-opacity:1;stroke-width:0.62943751;stroke-linecap:butt;stroke-linejoin:miter;stroke-miterlimit:4;stroke-dasharray:none;stroke-dashoffset:0;stroke-opacity:1" />
      <path
         inkscape:connector-curvature="0"
         d="m -1148.9634,1699.3922 c -0.1174,0.1086 -0.3473,0.058 -0.5031,-0.1139 -0.1613,-0.1718 -0.1912,-0.4016 -0.072,-0.5118 0.1211,-0.1088 0.3438,-0.058 0.505,0.1139 0.1614,0.1737 0.1928,0.4015 0.07,0.5118 z m -0.235,-0.2522"
         id="path9"
         style="vector-effect:none;fill:#333333;fill-opacity:1;stroke-width:0.62943751;stroke-linecap:butt;stroke-linejoin:miter;stroke-miterlimit:4;stroke-dasharray:none;stroke-dashoffset:0;stroke-opacity:1" />
      <path
         inkscape:connector-curvature="0"
         d="m -1147.9922,1700.8105 c -0.151,0.1051 -0.3979,0.01 -0.5505,-0.2123 -0.151,-0.2191 -0.151,-0.4819 0,-0.5872 0.1526,-0.1051 0.396,-0.01 0.5505,0.2068 0.1506,0.2228 0.1506,0.4856 0,0.5927 z m 0,0"
         id="path11"
         style="vector-effect:none;fill:#333333;fill-opacity:1;stroke-width:0.62943751;stroke-linecap:butt;stroke-linejoin:miter;stroke-miterlimit:4;stroke-dasharray:none;stroke-dashoffset:0;stroke-opacity:1" />
      <path
         inkscape:connector-curvature="0"
         d="m -1146.6619,1702.1812 c -0.1351,0.1489 -0.4227,0.1086 -0.6329,-0.094 -0.2155,-0.1984 -0.2753,-0.4803 -0.1403,-0.6293 0.1371,-0.149 0.4263,-0.1072 0.6381,0.094 0.2139,0.1983 0.2788,0.4819 0.1351,0.6294 z m 0,0"
         id="path13"
         style="vector-effect:none;fill:#333333;fill-opacity:1;stroke-width:0.62943751;stroke-linecap:butt;stroke-linejoin:miter;stroke-miterlimit:4;stroke-dasharray:none;stroke-dashoffset:0;stroke-opacity:1" />
      <path
         inkscape:connector-curvature="0"
         d="m -1144.8265,1702.9769 c -0.06,0.1927 -0.3365,0.2804 -0.6154,0.1984 -0.2788,-0.085 -0.4608,-0.3103 -0.4047,-0.5051 0.058,-0.1943 0.3361,-0.2855 0.6169,-0.1979 0.2785,0.084 0.4609,0.3082 0.4032,0.5046 z m 0,0"
         id="path15"
         style="vector-effect:none;fill:#333333;fill-opacity:1;stroke-width:0.62943751;stroke-linecap:butt;stroke-linejoin:miter;stroke-miterlimit:4;stroke-dasharray:none;stroke-dashoffset:0;stroke-opacity:1" />
      <path
         inkscape:connector-curvature="0"
         d="m -1142.8107,1703.1243 c 0.01,0.2031 -0.2299,0.3716 -0.5226,0.3752 -0.2944,0.01 -0.533,-0.1577 -0.5361,-0.3577 0,-0.2052 0.2313,-0.3717 0.5258,-0.3768 0.2927,-0.01 0.5329,0.1577 0.5329,0.3593 z m 0,0"
         id="path17"
         style="vector-effect:none;fill:#333333;fill-opacity:1;stroke-width:0.62943751;stroke-linecap:butt;stroke-linejoin:miter;stroke-miterlimit:4;stroke-dasharray:none;stroke-dashoffset:0;stroke-opacity:1" />
      <path
         inkscape:connector-curvature="0"
         d="m -1140.9351,1702.8052 c 0.035,0.198 -0.1686,0.4015 -0.4594,0.4557 -0.2859,0.053 -0.5504,-0.07 -0.587,-0.2665 -0.035,-0.2031 0.1716,-0.4066 0.4573,-0.4592 0.2912,-0.051 0.552,0.068 0.5891,0.27 z m 0,0"
         id="path19"
         style="vector-effect:none;fill:#333333;fill-opacity:1;stroke-width:0.62943751;stroke-linecap:butt;stroke-linejoin:miter;stroke-miterlimit:4;stroke-dasharray:none;stroke-dashoffset:0;stroke-opacity:1" />
    </g>
    <g
       id="g4550"
       transform="matrix(0.38663415,0,0,0.38663415,64.631746,1.8869354)"
       style="opacity:1;vector-effect:none;fill:#333333;fill-opacity:1;stroke-width:0.76666713;stroke-linecap:butt;stroke-linejoin:miter;stroke-miterlimit:4;stroke-dasharray:none;stroke-dashoffset:0;stroke-opacity:1">
      <g
         id="g4588">
        <path
           inkscape:connector-curvature="0"
           id="path4554"
           d="m 104.10141,-93.219069 c -0.097,-0.09701 -0.17639,-1.935186 -0.17639,-4.084828 v -3.908443 l -1.25677,-0.17821 c -12.240795,-1.73579 -22.825742,-9.28945 -24.824478,-17.7153 -0.81555,-3.43803 -0.428278,-7.82602 0.959891,-10.87606 0.272399,-0.59851 1.193577,-2.02726 2.047063,-3.175 4.158736,-5.59256 11.358616,-9.59305 20.693044,-11.49774 2.68317,-0.54751 3.77742,-0.62087 9.26042,-0.62087 5.48299,0 6.57725,0.0734 9.26042,0.62087 8.03683,1.63992 15.46582,5.38021 19.302,9.71802 3.40252,3.84745 4.82855,7.30677 4.83602,11.73145 0.007,4.05939 -0.99592,6.93898 -3.65763,10.50331 -1.18601,1.58821 -4.29512,4.42945 -6.0229,5.50398 -0.37949,0.23601 -0.40302,0.84311 -0.21792,5.62178 l 0.20751,5.357203 0.86864,0.896208 c 0.59194,0.610727 0.84044,1.095541 0.78011,1.521968 l -0.0885,0.62576 h -4.36355 -4.36354 l -0.50984,-1.058333 c -0.41012,-0.851329 -0.53346,-1.824712 -0.63058,-4.976511 -0.10722,-3.479385 -0.16887,-3.899575 -0.55057,-3.752025 -2.00266,0.7741 -7.72521,1.83653 -11.47619,2.13062 l -2.05053,0.16077 v 3.813887 3.813884 h -3.92465 c -2.15856,0 -4.00403,-0.07937 -4.10104,-0.17639 z m 15.43403,-12.240781 c 2.57111,-0.27087 6.08542,-1.06263 6.08542,-1.37102 0,-0.11429 -0.43696,-0.54128 -0.97103,-0.94887 l -0.97102,-0.74106 -5.77585,-0.0885 -5.77586,-0.0885 v 1.5923 c 0,1.53393 0.0267,1.59632 0.72761,1.70251 1.36396,0.20662 4.42742,0.18056 6.68073,-0.0568 z m -3.23855,-26.68492 12.36667,0.076 1.49265,0.73302 c 3.5883,1.76216 5.81348,6.10872 5.41189,10.57128 -0.31791,3.53266 -1.86229,6.12193 -4.61996,7.7457 -1.25698,0.74014 -1.68095,1.19062 -1.12054,1.19062 0.1309,0 0.84233,0.40669 1.58095,0.90374 l 1.34295,0.90374 1.30147,-1.03624 c 1.67532,-1.33391 3.65188,-4.23273 4.14209,-6.0748 1.91705,-7.20365 -3.18377,-13.66419 -13.06671,-16.54988 -2.97212,-0.86782 -8.34672,-1.51195 -10.75229,-1.28863 -1.01864,0.0946 -2.32833,0.21822 -2.91041,0.27479 -3.90097,0.37909 -8.92486,2.12785 -12.038546,4.19047 -1.787437,1.18406 -4.396395,3.94198 -5.166248,5.46121 -1.053027,2.07805 -1.406327,4.48396 -0.987888,6.72732 0.466259,2.49974 1.174357,3.85459 3.084486,5.90175 1.686979,1.808 3.524049,3.13592 5.980066,4.32267 l 1.45521,0.70315 0.0687,-12.416 0.0687,-12.41601 z m 9.23911,15.93398 c 1.74498,-1.27719 2.39152,-4.83499 1.28876,-7.09177 -0.94364,-1.93114 -1.30231,-2.01718 -8.4138,-2.0183 l -6.28386,-9.9e-4 v 4.91211 4.9121 l 6.3313,-0.0835 c 5.90728,-0.0779 6.38127,-0.12004 7.0776,-0.62969 z"
           style="vector-effect:none;fill:#9f9f9f;fill-opacity:1;stroke-width:0.76666713;stroke-linecap:butt;stroke-linejoin:miter;stroke-miterlimit:4;stroke-dasharray:none;stroke-dashoffset:0;stroke-opacity:1" />
        <path
           inkscape:connector-curvature="0"
           id="path4552"
           d="m 104.1896,-112.77112 v -19.46386 l 11.9724,0.0926 c 13.93933,0.10775 13.50519,0.035 16.22888,2.71954 1.9472,1.91921 2.71698,3.71891 2.93748,6.86768 0.31884,4.55316 -1.47536,7.97499 -5.10668,9.73922 -0.63868,0.31029 -1.16124,0.63916 -1.16124,0.73081 0,0.0916 0.60471,0.44986 1.34381,0.79604 1.59371,0.74645 2.75001,1.97767 3.15218,3.35642 0.16033,0.54968 0.39979,3.34908 0.53213,6.2209 0.13233,2.871816 0.3538,5.43299 0.49215,5.691502 0.13835,0.258511 0.5007,0.695499 0.80522,0.971087 0.30452,0.275587 0.55368,0.780269 0.55368,1.121518 v 0.620451 h -4.24684 -4.24683 l -0.44262,-0.992188 c -0.34456,-0.77239 -0.47707,-2.164434 -0.59819,-6.28385 -0.0858,-2.91642 -0.28782,-5.60267 -0.45017,-5.98453 -0.80226,-1.8869 -2.59083,-2.34985 -9.07838,-2.34985 h -4.74948 v 7.80521 7.805208 h -3.96875 -3.96875 z m 19.80623,-2.74237 c 2.41979,-0.46748 3.44444,-1.94921 3.4644,-5.00983 0.016,-2.45371 -0.62539,-3.75414 -2.2362,-4.53392 -0.99469,-0.48152 -1.63383,-0.52919 -7.09504,-0.52919 h -6.00189 v 5.15938 5.15937 l 5.35782,-0.0115 c 2.94679,-0.006 5.8767,-0.11177 6.51091,-0.23429 z"
           style="vector-effect:none;fill:#333333;fill-opacity:1;stroke-width:0.76666713;stroke-linecap:butt;stroke-linejoin:miter;stroke-miterlimit:4;stroke-dasharray:none;stroke-dashoffset:0;stroke-opacity:1" />
      </g>
    </g>
  </g>
</svg>
