<?xml version="1.0" encoding="UTF-8" standalone="no"?>
<!-- Created with Inkscape (http://www.inkscape.org/) -->

<svg
   xmlns:dc="http://purl.org/dc/elements/1.1/"
   xmlns:cc="http://creativecommons.org/ns#"
   xmlns:rdf="http://www.w3.org/1999/02/22-rdf-syntax-ns#"
   xmlns:svg="http://www.w3.org/2000/svg"
   xmlns="http://www.w3.org/2000/svg"
   xmlns:sodipodi="http://sodipodi.sourceforge.net/DTD/sodipodi-0.dtd"
   xmlns:inkscape="http://www.inkscape.org/namespaces/inkscape"
   width="11.840029mm"
   height="12.950412mm"
   viewBox="0 0 11.840029 12.950412"
   version="1.1"
   id="svg4683"
   inkscape:version="0.92.1 r15371"
   sodipodi:docname="logo_planet.svg">
  <defs
     id="defs4677" />
  <sodipodi:namedview
     id="base"
     pagecolor="#ffffff"
     bordercolor="#666666"
     borderopacity="1.0"
     inkscape:pageopacity="0.0"
     inkscape:pageshadow="2"
     inkscape:zoom="1.4"
     inkscape:cx="-0.25289438"
     inkscape:cy="75.405193"
     inkscape:document-units="mm"
     inkscape:current-layer="layer1"
     showgrid="false"
     inkscape:window-width="1920"
     inkscape:window-height="1057"
     inkscape:window-x="-8"
     inkscape:window-y="-8"
     inkscape:window-maximized="1"
     fit-margin-top="0"
     fit-margin-left="0"
     fit-margin-right="0"
     fit-margin-bottom="0" />
  <metadata
     id="metadata4680">
    <rdf:RDF>
      <cc:Work
         rdf:about="">
        <dc:format>image/svg+xml</dc:format>
        <dc:type
           rdf:resource="http://purl.org/dc/dcmitype/StillImage" />
        <dc:title></dc:title>
      </cc:Work>
    </rdf:RDF>
  </metadata>
  <g
     inkscape:label="Calque 1"
     inkscape:groupmode="layer"
     id="layer1"
     transform="translate(-16.99761,-19.45784)">
    <path
       style="fill:#00668e;fill-opacity:1;stroke-width:0.10730243"
       d="m 27.491195,29.861994 c 0.437337,-0.608499 0.823436,-1.365007 1.03547,-2.028848 0.131937,-0.413071 0.04335,-0.443248 -0.803206,-0.273589 l -0.628203,0.125899 -0.0088,0.826363 c -0.0048,0.4545 -0.05767,1.115141 -0.11743,1.468091 -0.05976,0.352951 -0.0664,0.609487 -0.01475,0.570085 0.0516,-0.03949 0.29325,-0.349006 0.536885,-0.688001 z M 24.67403,31.65485 c -0.320857,-0.08061 -0.892072,-0.289596 -1.269373,-0.464424 l -0.685999,-0.317865 -0.235004,0.372677 c -0.387034,0.613777 -0.560672,0.976987 -0.508807,1.064323 0.146095,0.246043 2.125219,-0.0017 2.97143,-0.372017 l 0.311129,-0.136133 z m 1.731409,-1.795149 c 0.121191,-0.949517 0.121384,-1.875894 3.85e-4,-1.869898 -0.05001,0.0025 -0.391434,0.180372 -0.758717,0.395322 l -0.667771,0.390849 0.583933,0.983302 c 0.321138,0.540828 0.620026,0.957077 0.66416,0.925013 0.04412,-0.03206 0.124236,-0.403103 0.178029,-0.824547 z m -1.364907,0.276817 -0.581518,-0.979217 -0.541052,0.487723 c -0.781682,0.704638 -0.782009,0.705888 -0.253739,0.960099 0.60207,0.289723 1.616094,0.59814 1.806363,0.549407 0.124042,-0.03177 0.04619,-0.216039 -0.430059,-1.018009 z m 3.783066,-3.82683 c 0.0851,-1.051889 -0.228078,-2.76184 -0.629695,-3.438128 l -0.153278,-0.258085 -1.024118,0.744025 -1.024117,0.744025 0.355422,0.834285 c 0.195488,0.458854 0.417282,1.125377 0.492886,1.481155 l 0.137465,0.646875 0.903202,-0.135918 0.903202,-0.135916 z m -7.311262,5.535417 c 0.08604,-0.200929 0.29107,-0.563018 0.455621,-0.804643 0.164554,-0.241623 0.304531,-0.450081 0.311064,-0.463236 0.0066,-0.01313 -0.27169,-0.272802 -0.618284,-0.576988 -0.346589,-0.30419 -0.819012,-0.807563 -1.049829,-1.118611 l -0.419667,-0.565545 -1.031378,0.749299 -1.031376,0.7493 0.179519,0.299937 c 0.430382,0.718783 1.764966,1.717592 2.639527,1.975455 l 0.408313,0.120391 0.156435,-0.365326 z m 4.822997,-4.896423 c -0.07779,-0.497104 -0.524261,-1.802126 -0.741941,-2.168679 l -0.161235,-0.271467 -1.043384,0.758021 -1.043383,0.758023 0.686712,1.156361 0.686712,1.15636 0.415395,-0.296028 c 0.2284,-0.162928 0.606358,-0.384676 0.839753,-0.49303 0.41809,-0.194111 0.423422,-0.202952 0.361358,-0.599558 z m -3.263295,2.702424 c 0.167975,-0.178225 0.489844,-0.461456 0.715256,-0.629418 l 0.409849,-0.305366 -0.686704,-1.156366 -0.686712,-1.15636 -1.054615,0.766181 -1.054615,0.766181 0.38325,0.505068 c 0.435975,0.574551 1.380927,1.499111 1.553642,1.520117 0.06339,0.0077 0.252682,-0.131799 0.420622,-0.310085 z m 4.459399,-7.892598 C 27.11977,21.071 26.027943,20.216344 25.101516,19.856429 l -0.563749,-0.219012 -0.394234,0.7295 c -0.21683,0.401221 -0.452402,0.771754 -0.523494,0.823402 -0.07429,0.05398 -0.07735,0.134041 -0.0072,0.188289 0.529301,0.40922 1.27754,1.157115 1.621856,1.621114 l 0.41354,0.557293 1.031376,-0.749299 1.031377,-0.749298 z M 24.962896,23.7183 C 24.765511,23.386019 23.754691,22.298055 23.413604,22.050878 23.13522,21.849141 23.118818,21.852994 22.795612,22.196135 22.613,22.390005 22.278819,22.685469 22.05298,22.85271 l -0.410621,0.304068 0.686703,1.156365 0.686712,1.15636 1.043384,-0.758022 1.043385,-0.758022 z m -3.14737,0.987574 -0.678566,-1.14265 -0.718346,0.441422 c -0.395075,0.242808 -0.778906,0.468107 -0.852913,0.500743 -0.181042,0.07974 0.115955,1.367769 0.511536,2.218433 l 0.306086,0.658216 1.055392,-0.766746 1.055392,-0.766746 z m -2.252049,2.414024 c -0.24823,-0.533805 -0.571587,-1.59038 -0.700892,-2.290197 -0.01713,-0.09277 -0.08479,-0.121476 -0.15908,-0.0675 -0.07108,0.05166 -0.472101,0.143595 -0.891131,0.204329 l -0.761878,0.110419 -0.0422,0.659236 c -0.06934,1.083344 0.206119,2.531092 0.613053,3.22204 l 0.177575,0.301368 1.031377,-0.749299 1.031377,-0.749299 z m 2.594236,-5.086344 c 0.541313,-0.594482 0.521828,-0.524976 0.191887,-0.684496 -0.572456,-0.276781 -1.809532,-0.674325 -1.970248,-0.633162 -0.137487,0.03521 -0.07519,0.187476 0.413219,1.009908 l 0.575111,0.968442 0.319683,-0.247616 c 0.17582,-0.136197 0.387472,-0.322088 0.470346,-0.413078 z m -1.880435,0.08204 c -0.494096,-0.831999 -0.59635,-0.95699 -0.680222,-0.831355 -0.09745,0.145983 -0.259663,1.56056 -0.25708,2.241889 0.0016,0.42288 0.0349,0.420072 0.899229,-0.07583 l 0.619566,-0.355513 z m 3.26285,-1.788637 c 0.209546,-0.367582 0.354683,-0.712637 0.322526,-0.766785 -0.151093,-0.254501 -2.110216,-3.27e-4 -3.00193,0.38945 l -0.34362,0.150204 0.80136,0.201424 c 0.440746,0.110781 1.015593,0.326555 1.277433,0.479496 0.261843,0.15294 0.495688,0.26378 0.519656,0.246307 0.02399,-0.01743 0.215027,-0.332515 0.424576,-0.700094 z m -4.769762,3.231751 c -0.02285,-0.325854 0.02648,-0.994516 0.109628,-1.485907 l 0.151172,-0.89344 -0.261113,0.289141 c -0.669914,0.741828 -1.667052,2.637275 -1.518758,2.886992 0.03035,0.05115 0.300083,0.05733 0.599368,0.01376 0.954443,-0.138914 0.966079,-0.14917 0.919703,-0.810551 z"
       id="path5241"
       inkscape:connector-curvature="0" />
  </g>
</svg>
