<?xml version="1.0" encoding="UTF-8" standalone="no"?>
<!-- Created with Inkscape (http://www.inkscape.org/) -->

<svg
   xmlns:dc="http://purl.org/dc/elements/1.1/"
   xmlns:cc="http://creativecommons.org/ns#"
   xmlns:rdf="http://www.w3.org/1999/02/22-rdf-syntax-ns#"
   xmlns:svg="http://www.w3.org/2000/svg"
   xmlns="http://www.w3.org/2000/svg"
   xmlns:sodipodi="http://sodipodi.sourceforge.net/DTD/sodipodi-0.dtd"
   xmlns:inkscape="http://www.inkscape.org/namespaces/inkscape"
   width="53.622223mm"
   height="38.946907mm"
   viewBox="0 0 190 138.00085"
   id="svg2"
   version="1.1"
   inkscape:version="0.91 r13725"
   sodipodi:docname="logoDepsy.svg">
  <defs
     id="defs4" />
  <sodipodi:namedview
     id="base"
     pagecolor="#ffffff"
     bordercolor="#666666"
     borderopacity="1.0"
     inkscape:pageopacity="0.0"
     inkscape:pageshadow="2"
     inkscape:zoom="0.7"
     inkscape:cx="269.7819"
     inkscape:cy="295.65135"
     inkscape:document-units="px"
     inkscape:current-layer="g4155"
     showgrid="false"
     inkscape:window-width="1920"
     inkscape:window-height="1057"
     inkscape:window-x="-8"
     inkscape:window-y="-8"
     inkscape:window-maximized="1"
     fit-margin-top="0"
     fit-margin-left="0"
     fit-margin-right="0"
     fit-margin-bottom="0" />
  <metadata
     id="metadata7">
    <rdf:RDF>
      <cc:Work
         rdf:about="">
        <dc:format>image/svg+xml</dc:format>
        <dc:type
           rdf:resource="http://purl.org/dc/dcmitype/StillImage" />
        <dc:title></dc:title>
      </cc:Work>
    </rdf:RDF>
  </metadata>
  <g
     inkscape:label="Calque 1"
     inkscape:groupmode="layer"
     id="layer1"
     transform="translate(-220.14286,-55.219072)">
    <g
       id="g4155"
       transform="translate(46.428571,-243.57143)">
      <path
         style="fill:#00adee"
         d="m 173.71429,363.79077 c 0,-65.67001 97,-65 97,-65 0,0 93,0.22739 93,65 0,72.33737 -93,73 -93,73 0,0 -97,0.94522 -97,-73 z m 112.9995,49.04655 c 30.62634,-7.98688 53.77658,-31.31543 60.9064,-61.37551 1.15175,-4.85592 2.0941,-9.01842 2.0941,-9.25 0,-0.23157 -1.96875,-0.42104 -4.375,-0.42104 -4.11537,0 -4.41271,0.18855 -5.01047,3.17733 -1.17846,5.89231 -4.69365,16.82275 -5.40688,16.8126 -0.75257,-0.0107 -8.20765,-17.23985 -8.20765,-18.96839 0,-0.56184 -2.21369,-1.02154 -4.91931,-1.02154 l -4.91931,0 5.5095,13.25 c 3.03022,7.2875 5.90062,14.2437 6.37867,15.45822 1.77791,4.51694 -14.07912,20.49258 -26.97873,27.18053 -13.3347,6.91354 -20.57534,8.62434 -36.07082,8.52272 -11.79226,-0.0773 -14.512,-0.42452 -21.5,-2.74468 -8.22434,-2.73065 -22.5,-10.07677 -22.5,-11.57828 0,-0.46399 0.675,-1.40382 1.5,-2.08851 0.825,-0.68469 1.5,-1.57375 1.5,-1.9757 0,-0.91813 -17.92104,-4.4366 -18.6885,-3.66914 -0.65308,0.65309 2.52371,14.76299 3.77933,16.78605 0.67491,1.08743 1.27495,0.9282 3.0046,-0.79734 l 2.16127,-2.15612 4.75433,3.41564 c 8.2864,5.95319 20.76354,10.71939 35.98897,13.74761 5.62709,1.11918 22.75321,-0.15394 30.9995,-2.30445 z m -17.9995,-33.04655 c 0,-3.85 0.3375,-6.98405 0.75,-6.96456 0.4125,0.0195 1.875,0.67854 3.25,1.46456 9.12154,5.21434 22,-4.11985 22,-15.94539 0,-5.42086 -3.637,-12.46496 -7.89788,-15.29654 -4.03113,-2.67889 -10.7588,-3.00409 -15.15178,-0.73239 -1.69115,0.87453 -2.95034,1.08793 -2.95034,0.5 0,-0.56412 -2.025,-1.02568 -4.5,-1.02568 l -4.5,0 0,22.5 0,22.5 4.5,0 4.5,0 z m 4.36455,-13.16938 c -2.74895,-1.33109 -4.69788,-5.00859 -4.69788,-8.86458 0,-7.89343 9.59747,-12.02112 14.82803,-6.37726 6.91787,7.46451 -1.14333,19.59341 -10.13015,15.24184 z m -65.61455,7.18034 c 2.65185,-1.61686 3.25,-1.7082 3.25,-0.49626 0,1.09369 1.18646,1.4853 4.5,1.4853 l 4.5,0 0,-23 0,-23 -4.5,0 -4.5,0 0,7.52568 0,7.52568 -2.95034,-1.52568 c -7.12546,-3.68472 -16.22024,-0.80956 -20.49049,6.47772 -3.05541,5.21411 -2.85704,14.47872 0.41215,19.2498 4.94363,7.21476 13.36718,9.66693 19.77868,5.75776 z m -10.82692,-8.93404 c -3.31191,-3.31191 -3.81528,-7.45091 -1.46007,-12.0054 2.39931,-4.63975 8.36907,-5.56465 12.90213,-1.99894 2.12431,1.67098 2.63486,2.91463 2.63486,6.41821 0,5.75566 -0.69518,7.30022 -4.07152,9.0462 -4.19612,2.16989 -6.74781,1.79753 -10.0054,-1.46007 z m 51.37658,9.30249 c 3.79891,-1.92369 6.70034,-4.34114 6.70034,-5.58267 0,-0.49131 -1.4625,-1.51562 -3.25,-2.27625 -2.78495,-1.18507 -3.56692,-1.17816 -5.46482,0.0483 -2.28694,1.47785 -7.89743,1.901 -10.74038,0.81006 -0.89032,-0.34165 -2.28191,-1.90356 -3.09242,-3.4709 l -1.47365,-2.84975 13.26064,-0.2791 13.26063,-0.2791 -0.32343,-4 c -0.78059,-9.654 -7.25316,-15.45411 -17.27869,-15.48355 -6.08764,-0.0179 -10.52304,2.19976 -14.12231,7.06094 -4.16708,5.62807 -4.16688,15.22078 4.4e-4,20.84304 4.7406,6.3957 15.5163,9.00736 22.52365,5.45898 z m -16.29966,-21.30683 c 0,-1.61358 5.17414,-5.07258 7.58781,-5.07258 3.20759,0 6.7893,1.77295 8.22456,4.07116 1.15432,1.84837 0.84961,1.92884 -7.3039,1.92884 -4.67966,0 -8.50847,-0.41734 -8.50847,-0.92742 z m 80.98896,21.43313 c 3.87318,-2.0029 6.01104,-5.26513 6.01104,-9.17245 0,-4.08801 -3.04283,-7.6586 -9.49267,-11.13909 -2.74597,-1.48179 -4.9013,-3.14417 -4.78961,-3.69417 0.35793,-1.76266 4.3839,-1.71801 6.36023,0.0705 1.82771,1.65405 2.0247,1.61075 4.41753,-0.97116 3.24424,-3.5006 3.16224,-4.22776 -0.74548,-6.61034 -4.76999,-2.90832 -12.12651,-2.70344 -15.25479,0.42484 -3.07875,3.07875 -4.0296,6.88363 -2.58788,10.35553 1.04411,2.51438 2.78175,3.95779 10.34267,8.5914 5.61827,3.44308 2.11182,7.13589 -4.00574,4.21863 -3.51915,-1.67817 -3.61164,-1.66661 -6.03239,0.75414 -2.78166,2.78166 -2.40369,3.96873 2.14724,6.74373 3.76417,2.29527 9.66129,2.48062 13.62985,0.4284 z"
         id="path4157"
         inkscape:connector-curvature="0"
         sodipodi:nodetypes="cccccssssscsscssssssssssscsssscsssssscccccsssssssscccccccsssssssssssssssscccsssssssssscsssssssssssscc" />
    </g>
    <path
       style="fill:#000000"
       d=""
       id="path4147"
       inkscape:connector-curvature="0" />
  </g>
</svg>
