<?xml version="1.0" encoding="UTF-8" standalone="no"?>
<!-- Created with Inkscape (http://www.inkscape.org/) -->

<svg
   xmlns:dc="http://purl.org/dc/elements/1.1/"
   xmlns:cc="http://creativecommons.org/ns#"
   xmlns:rdf="http://www.w3.org/1999/02/22-rdf-syntax-ns#"
   xmlns:svg="http://www.w3.org/2000/svg"
   xmlns="http://www.w3.org/2000/svg"
   xmlns:sodipodi="http://sodipodi.sourceforge.net/DTD/sodipodi-0.dtd"
   xmlns:inkscape="http://www.inkscape.org/namespaces/inkscape"
   width="36.124443mm"
   height="36.124443mm"
   viewBox="0 0 128 127.99999"
   id="svg2"
   version="1.1"
   inkscape:version="0.91 r13725"
   sodipodi:docname="logoPublons.svg">
  <defs
     id="defs4" />
  <sodipodi:namedview
     id="base"
     pagecolor="#ffffff"
     bordercolor="#666666"
     borderopacity="1.0"
     inkscape:pageopacity="0.0"
     inkscape:pageshadow="2"
     inkscape:zoom="0.98994949"
     inkscape:cx="-151.88448"
     inkscape:cy="31.099122"
     inkscape:document-units="px"
     inkscape:current-layer="layer1"
     showgrid="false"
     inkscape:window-width="1920"
     inkscape:window-height="1057"
     inkscape:window-x="-8"
     inkscape:window-y="-8"
     inkscape:window-maximized="1"
     fit-margin-top="0"
     fit-margin-left="0"
     fit-margin-right="0"
     fit-margin-bottom="0" />
  <metadata
     id="metadata7">
    <rdf:RDF>
      <cc:Work
         rdf:about="">
        <dc:format>image/svg+xml</dc:format>
        <dc:type
           rdf:resource="http://purl.org/dc/dcmitype/StillImage" />
        <dc:title></dc:title>
      </cc:Work>
    </rdf:RDF>
  </metadata>
  <g
     inkscape:label="Calque 1"
     inkscape:groupmode="layer"
     id="layer1"
     transform="translate(-531.62955,-429.29458)">
    <g
       id="g4147"
       transform="translate(135,115.71429)">
      <path
         style="fill:#6f8fb0"
         d="m 396.62955,377.58029 0,-64 64,0 64,0 0,64 0,64 -64,0 -64,0 0,-64 z m 63.5,34.9231 c 0,-0.80878 -1.18605,-1.55959 -2.74756,-1.73929 -3.51005,-0.40393 -3.91455,-2.0663 -3.54479,-14.56775 l 0.29235,-9.88393 8.16496,-0.11607 c 7.38405,-0.10496 8.57837,-0.40669 12.48746,-3.1548 12.37512,-8.69978 13.89919,-30.59182 2.68562,-38.57659 -4.96692,-3.53676 -13.04946,-3.73884 -19.11753,-0.47798 l -4.77948,2.5684 -0.94577,-2.48755 c -0.52017,-1.36815 -1.36495,-2.48754 -1.87729,-2.48754 -1.77315,0 -14.11797,5.91982 -14.11797,6.77012 0,0.46957 1.35698,1.85702 3.0155,3.08322 l 3.01551,2.22946 -0.26551,28.19529 c -0.25709,27.30253 -0.32883,28.2067 -2.2655,28.55566 -2.46007,0.44328 -3.8988,1.71187 -3.20854,2.82912 0.28446,0.46042 5.62275,0.80253 11.86287,0.76023 9.10988,-0.0617 11.34567,-0.35733 11.34567,-1.5 z m -0.47944,-30.03914 c -5.76283,-2.29929 -6.02056,-3.07052 -6.02056,-18.0159 l 0,-13.82195 2.67133,-1.75033 c 1.46924,-0.96268 4.44029,-1.75033 6.60234,-1.75033 7.28881,0 11.70964,7.65806 11.72075,20.30342 0.0108,12.24246 -6.24072,18.5195 -14.97386,15.03509 z"
         id="path4155"
         inkscape:connector-curvature="0" />
      <path
         style="fill:#4a749d"
         d="m 396.62955,377.58029 0,-64 64,0 64,0 0,64 0,64 -64,0 -64,0 0,-64 z m 64.5,35 c 0,-1.90645 -0.59355,-2.58329 -2.5,-2.85082 -1.375,-0.19294 -2.83061,-0.86794 -3.23469,-1.5 -0.40407,-0.63205 -0.74158,-5.53668 -0.75,-10.89918 l -0.0153,-9.75 7.03984,0 c 8.24211,0 12.9926,-1.99504 17.80697,-7.47831 4.80245,-5.46969 6.43248,-10.07944 6.54936,-18.52169 0.0857,-6.19368 -0.31144,-8.22478 -2.28039,-11.66117 -5.60424,-9.78108 -17.4514,-12.76485 -26.8306,-6.75743 -1.99324,1.27668 -2.32189,1.21852 -3.28518,-0.5814 -1.44921,-2.70786 -3.64743,-2.52321 -11.40678,0.95818 -7.54593,3.38563 -8.34434,5.37104 -3.57722,8.89552 l 3.01599,2.22983 -0.26599,27.20823 c -0.26486,27.09125 -0.27536,27.20957 -2.44338,27.51827 -3.24504,0.46206 -4.88445,2.80808 -3.29806,4.71957 1.03673,1.24917 3.48834,1.47834 13.37245,1.25 l 12.10299,-0.2796 0,-2.5 z m -4.31144,-33.03896 c -2.03301,-1.89403 -2.18856,-2.95611 -2.18856,-14.94329 0,-12.20136 0.12107,-12.98915 2.22251,-14.46105 1.22237,-0.85618 3.88237,-1.5567 5.9111,-1.5567 2.87922,0 4.24825,0.6651 6.23907,3.03105 6.30485,7.4929 6.16654,25.46927 -0.22228,28.88846 -3.36557,1.8012 -9.52986,1.30727 -11.96184,-0.95847 z"
         id="path4153"
         inkscape:connector-curvature="0" />
      <path
         style="fill:#326497"
         d="m 396.62955,377.58029 0,-64 64,0 64,0 0,64 0,64 -64,0 -64,0 0,-64 z m 65.2554,37.1446 c 1.79351,-1.79352 0.2669,-4.6368 -3.00748,-5.6014 l -3.24792,-0.95679 -6.2e-4,-10.04321 -6.2e-4,-10.0432 5.16892,0.35786 c 6.96355,0.48212 12.13813,-1.23754 17.05141,-5.66663 6.06036,-5.46314 8.7641,-12.01182 8.74918,-21.19123 -0.0199,-12.24068 -5.0494,-19.78067 -14.53256,-21.78658 -4.52444,-0.95702 -11.78184,0.12813 -15.01205,2.24464 -2.01201,1.31832 -2.2609,1.27233 -2.72532,-0.50362 -0.75137,-2.87321 -5.04327,-2.41757 -12.69834,1.34809 -7.74888,3.81182 -8.78854,6.28773 -4.05545,9.65798 l 3.05545,2.17568 0,26.9319 0,26.93191 -2.46482,0 c -3.01432,0 -5.03529,3.19703 -3.65331,5.77928 0.84742,1.58341 2.35526,1.75276 13.69681,1.53838 7.00951,-0.1325 13.16404,-0.66038 13.67672,-1.17306 z m -2.22717,-34.2578 c -1.35947,-0.54254 -2.81508,-1.52651 -3.23469,-2.18661 -0.4196,-0.66011 -0.76981,-6.88259 -0.77823,-13.82775 -0.0166,-13.68876 0.23314,-14.37213 5.64798,-15.4551 2.30194,-0.46039 3.68405,0.004 6.12544,2.05834 3.73472,3.14256 5.19809,7.73136 5.20569,16.32398 0.0101,11.41507 -4.85398,16.32454 -12.96619,13.08714 z"
         id="path4151"
         inkscape:connector-curvature="0" />
      <path
         style="fill:#2d5b88"
         d="m 450.62955,429.08029 -12.46999,-12.5 11.61255,0 c 9.20224,0 11.87604,-0.31749 12.88202,-1.52961 1.9513,-2.35119 -0.22944,-6.24831 -3.7205,-6.64875 l -2.80408,-0.32164 -0.2847,-9.62495 -0.28471,-9.62494 6.28471,0.0286 c 15.00492,0.0684 24.43839,-9.93901 25.57481,-27.13071 l 0.48599,-7.35196 18.36195,18.34183 18.36195,18.34183 0,25.26013 0,25.26014 -30.76501,0 -30.765,0 -12.46999,-12.5 z m 7.05482,-50.44518 c -1.84179,-1.84179 -2.05482,-3.28282 -2.05482,-13.89983 0,-10.20527 0.25316,-12.07412 1.82874,-13.5 2.29815,-2.0798 7.04582,-2.13158 9.93437,-0.10836 5.15973,3.61402 6.80376,20.52653 2.55121,26.24484 -2.69851,3.62862 -9.22198,4.30087 -12.2595,1.26335 z"
         id="path4149"
         inkscape:connector-curvature="0" />
    </g>
  </g>
</svg>
