<?xml version="1.0" encoding="UTF-8" standalone="no"?>
<!-- Created with Inkscape (http://www.inkscape.org/) -->

<svg
   xmlns:dc="http://purl.org/dc/elements/1.1/"
   xmlns:cc="http://creativecommons.org/ns#"
   xmlns:rdf="http://www.w3.org/1999/02/22-rdf-syntax-ns#"
   xmlns:svg="http://www.w3.org/2000/svg"
   xmlns="http://www.w3.org/2000/svg"
   xmlns:sodipodi="http://sodipodi.sourceforge.net/DTD/sodipodi-0.dtd"
   xmlns:inkscape="http://www.inkscape.org/namespaces/inkscape"
   width="15.288009mm"
   height="15.562577mm"
   viewBox="0 0 54.17011 55.14299"
   id="svg2"
   version="1.1"
   inkscape:version="0.91 r13725"
   sodipodi:docname="logoImpactstory.svg">
  <defs
     id="defs4" />
  <sodipodi:namedview
     id="base"
     pagecolor="#ffffff"
     bordercolor="#666666"
     borderopacity="1.0"
     inkscape:pageopacity="0.0"
     inkscape:pageshadow="2"
     inkscape:zoom="1.979899"
     inkscape:cx="47.331261"
     inkscape:cy="22.531921"
     inkscape:document-units="px"
     inkscape:current-layer="layer1"
     showgrid="false"
     inkscape:window-width="1920"
     inkscape:window-height="1057"
     inkscape:window-x="-8"
     inkscape:window-y="-8"
     inkscape:window-maximized="1"
     fit-margin-top="0"
     fit-margin-left="0"
     fit-margin-right="0"
     fit-margin-bottom="0" />
  <metadata
     id="metadata7">
    <rdf:RDF>
      <cc:Work
         rdf:about="">
        <dc:format>image/svg+xml</dc:format>
        <dc:type
           rdf:resource="http://purl.org/dc/dcmitype/StillImage" />
        <dc:title></dc:title>
      </cc:Work>
    </rdf:RDF>
  </metadata>
  <g
     inkscape:label="Calque 1"
     inkscape:groupmode="layer"
     id="layer1"
     transform="translate(-378.68298,-355.18814)">
    <path
       style="fill:#ff3000;fill-opacity:1"
       d="m 400.94721,410.26834 c -0.79909,0.30664 -2.75721,-0.53999 -4.35138,-1.8814 -1.59417,-1.3414 -4.58967,-3.14554 -6.65666,-4.00918 -2.78725,-1.16459 -4.26548,-2.67964 -5.7218,-5.86434 -1.08,-2.36174 -2.88452,-5.42997 -4.01004,-6.8183 -1.7643,-2.17624 -1.89139,-2.96892 -0.9219,-5.75 0.83268,-2.38863 0.83268,-4.06291 0,-6.45155 -0.9708,-2.78483 -0.84301,-3.57081 0.93484,-5.75 1.13264,-1.38832 2.95925,-4.42212 4.05913,-6.74178 1.4641,-3.0878 3.12953,-4.75323 6.21733,-6.21733 2.31966,-1.09988 5.35346,-2.92649 6.74178,-4.05913 2.17919,-1.77785 2.96517,-1.90564 5.75,-0.93484 2.33574,0.81424 4.08075,0.82647 6.32445,0.0443 1.88487,-0.65707 3.74991,-0.73167 4.76119,-0.19045 0.91438,0.48936 2.49164,1.80593 3.50502,2.9257 1.01338,1.11976 3.11475,2.31537 4.66971,2.6569 1.55497,0.34153 3.25323,1.15453 3.77392,1.80668 0.52069,0.65215 1.27734,2.31072 1.68145,3.68572 0.4041,1.375 1.74997,3.625 2.99083,5 2.00011,2.21634 2.24266,3.48371 2.13766,11.16979 -0.10025,7.33786 -0.44456,9.02779 -2.24117,11 -1.16749,1.28162 -2.55064,3.66715 -3.07366,5.30119 -0.64517,2.01569 -2.42811,3.78415 -5.54501,5.5 -2.52674,1.39096 -5.69535,3.32848 -7.04136,4.30559 -1.99499,1.44823 -2.97327,1.57659 -5.29324,0.69454 -1.56527,-0.59512 -3.8342,-0.83399 -5.04208,-0.53083 -1.20787,0.30315 -2.84993,0.80208 -3.64901,1.10872 z m 7.76708,-3.23978 c 2.2,-0.29313 5.35,-1.08943 7,-1.76955 1.65,-0.68012 4.5268,-2.52389 6.3929,-4.09726 1.86609,-1.57337 4.4492,-5.12906 5.74023,-7.90154 1.44605,-3.10537 2.35108,-6.91611 2.3571,-9.92484 0.005,-2.68619 -0.54028,-6.73619 -1.21255,-9 -0.74192,-2.49833 -3.0582,-5.95973 -5.89348,-8.80712 -3.47237,-3.48719 -6.11945,-5.11213 -10.31453,-6.33167 -3.7883,-1.10129 -7.02831,-1.40998 -9.85652,-0.93907 -2.31723,0.38583 -5.81885,1.515 -7.78136,2.50926 -1.96252,0.99426 -5.19962,3.61352 -7.19357,5.82058 -2.09844,2.32272 -4.28088,6.22024 -5.18178,9.25391 -0.85604,2.8826 -1.55644,5.97774 -1.55644,6.87809 0,0.90035 0.7004,3.99549 1.55644,6.87809 0.89984,3.0301 3.08288,6.93068 5.17485,9.24623 1.99012,2.20284 4.8751,4.65502 6.41106,5.44929 1.53596,0.79428 4.49478,1.85464 6.57515,2.35636 2.08038,0.50172 5.5825,0.67238 7.7825,0.37924 z m -2.90728,-3.34925 c -3.55026,-0.0233 -7.3446,-0.70001 -9.09272,-1.62159 -1.65,-0.86986 -4.05629,-2.53934 -5.34732,-3.70997 -1.29102,-1.17062 -3.24852,-3.88618 -4.35,-6.03458 -1.31249,-2.55998 -2.00268,-5.87061 -2.00268,-9.60628 0,-3.40252 0.69207,-7.06803 1.71697,-9.09382 0.94434,-1.86655 2.67684,-4.45001 3.85,-5.74104 1.17317,-1.29102 3.894,-3.25015 6.0463,-4.35362 3.09209,-1.58529 5.3389,-1.92575 10.70691,-1.62243 5.55251,0.31375 7.5639,0.92641 11.00995,3.35362 2.31898,1.63336 5.29797,4.99475 6.61998,7.46975 2.00691,3.75723 2.34471,5.60704 2.04652,11.2069 -0.29191,5.48197 -0.89953,7.47697 -3.32688,10.92323 -1.63336,2.31898 -4.95303,5.26337 -7.37703,6.5431 -3.25879,1.72043 -5.99499,2.31634 -10.5,2.28673 z m 0.40728,-6.95996 7.12672,0 -0.31336,-3.25 c -0.17235,-1.7875 -0.76336,-3.025 -1.31336,-2.75 -0.60215,0.30107 -1.19893,-2.48387 -1.5,-7 l -0.5,-7.5 -5,0 c -4.91008,0 -5.00563,0.0584 -5.31336,3.25 -0.23279,2.41439 0.0886,3.25 1.25,3.25 1.15725,0 1.56336,1.03906 1.56336,4 0,2.66667 -0.41667,3.91667 -1.25,3.75 -0.7483,-0.14966 -1.37577,1.05441 -1.56336,3 l -0.31336,3.25 z m 0.53197,-23 c 3.45322,0 3.58241,-0.12795 3.28139,-3.25 -0.28783,-2.98527 -0.59734,-3.25 -3.79967,-3.25 -2.56813,0 -3.57802,0.47627 -3.83457,1.80841 -0.19155,0.99463 -0.0993,2.45713 0.20492,3.25 0.3398,0.88551 1.93983,1.44159 4.14793,1.44159 z"
       id="path4203"
       inkscape:connector-curvature="0"
       sodipodi:nodetypes="ssssssssssssssssssssssssssssssscssssssssssssssssssssssssssssccssscssssssccsssscs" />
  </g>
</svg>
