<?xml version="1.0" encoding="UTF-8" standalone="no"?>
<!-- Created with Inkscape (http://www.inkscape.org/) -->

<svg
   xmlns:dc="http://purl.org/dc/elements/1.1/"
   xmlns:cc="http://creativecommons.org/ns#"
   xmlns:rdf="http://www.w3.org/1999/02/22-rdf-syntax-ns#"
   xmlns:svg="http://www.w3.org/2000/svg"
   xmlns="http://www.w3.org/2000/svg"
   xmlns:sodipodi="http://sodipodi.sourceforge.net/DTD/sodipodi-0.dtd"
   xmlns:inkscape="http://www.inkscape.org/namespaces/inkscape"
   width="10.572385mm"
   height="13.089935mm"
   viewBox="0 0 10.572385 13.089935"
   version="1.1"
   id="svg4683"
   inkscape:version="0.92.1 r15371"
   sodipodi:docname="logo_science.svg">
  <defs
     id="defs4677" />
  <sodipodi:namedview
     id="base"
     pagecolor="#ffffff"
     bordercolor="#666666"
     borderopacity="1.0"
     inkscape:pageopacity="0.0"
     inkscape:pageshadow="2"
     inkscape:zoom="1.4"
     inkscape:cx="22.415108"
     inkscape:cy="-4.5051673"
     inkscape:document-units="mm"
     inkscape:current-layer="layer1"
     showgrid="false"
     inkscape:window-width="1920"
     inkscape:window-height="1057"
     inkscape:window-x="-8"
     inkscape:window-y="-8"
     inkscape:window-maximized="1"
     fit-margin-top="0"
     fit-margin-left="0"
     fit-margin-right="0"
     fit-margin-bottom="0" />
  <metadata
     id="metadata4680">
    <rdf:RDF>
      <cc:Work
         rdf:about="">
        <dc:format>image/svg+xml</dc:format>
        <dc:type
           rdf:resource="http://purl.org/dc/dcmitype/StillImage" />
        <dc:title></dc:title>
      </cc:Work>
    </rdf:RDF>
  </metadata>
  <g
     inkscape:label="Calque 1"
     inkscape:groupmode="layer"
     id="layer1"
     transform="translate(-38.545104,-18.319469)">
    <g
       id="g5290"
       style="fill:#5f2644;fill-opacity:1"
       transform="matrix(0.198496,0,0,0.198496,34.530945,7.9186832)">
      <path
         inkscape:connector-curvature="0"
         id="path5267"
         d="m 24.007917,117.50497 c -5.59921,-2.24831 -4.187337,-9.07913 -0.898614,-12.6784 4.949738,-9.155592 10.042877,-18.2325 15.063903,-27.348957 -0.243844,-7.515096 0.707872,-15.355726 -0.970118,-22.54781 1.214521,-4.017651 5.909379,-1.921197 9.006352,-2.415604 2.891074,0 5.782148,0 8.673222,0 3.167508,4.36556 -0.972746,9.840403 0.478265,14.744005 -0.08868,5.813735 -0.671328,11.750749 3.428838,16.480532 4.94185,9.258203 10.714936,18.240114 14.695564,27.910324 -0.126478,6.9303 -8.389921,7.06965 -13.437784,6.47071 -11.660803,-0.0738 -23.406391,0.18709 -35.014313,-0.13736 -0.341772,-0.15914 -0.683543,-0.31829 -1.025315,-0.47744 z m 43.187981,-2.48051 c 6.555045,-5.07974 -2.355209,-12.35382 -4.098922,-17.994807 -3.263402,-6.072093 -6.56958,-12.121062 -9.839917,-18.189411 0.669529,-7.648029 -1.365143,-16.195039 1.054109,-23.249137 -3.616897,-2.559667 -11.0368,-2.288829 -15.020167,-0.124185 0.887719,2.492155 1.226777,5.145306 0.998875,7.948252 0,5.143041 0,10.286083 0,15.429124 -5.419469,9.964621 -10.838938,19.929242 -16.258405,29.893864 -1.581273,6.24574 6.03441,8.15465 10.690426,6.99992 10.541294,-0.14678 21.189749,0.13078 31.66421,-0.28071 0.269933,-0.14429 0.539861,-0.28861 0.809791,-0.43291 z M 49.406367,77.31784 c 0.451595,-6.132398 -1.275714,-14.668987 1.014756,-19.33911 1.530033,5.37065 0.232415,11.615359 0.742148,17.34351 -0.108464,0.921015 -0.634672,2.145522 -1.756904,1.9956 z"
         style="opacity:1;vector-effect:none;fill:#5f2644;fill-opacity:1;stroke:none;stroke-width:0.15109958;stroke-linecap:butt;stroke-linejoin:miter;stroke-miterlimit:4;stroke-dasharray:none;stroke-dashoffset:0;stroke-opacity:1;marker:none;marker-start:none;marker-mid:none;marker-end:none" />
      <path
         inkscape:connector-curvature="0"
         id="path5269"
         d="m 31.261545,114.44163 c -1.566476,-0.0685 -1.796817,-0.11099 -2.343206,-0.43222 -0.807696,-0.47485 -1.813157,-1.56898 -2.137796,-2.32633 -0.59522,-1.38859 -0.361026,-2.20627 1.815216,-6.33777 0.911276,-1.73002 9.667854,-17.91695 9.732905,-17.99172 0.0085,-0.01 0.556744,0.12238 1.218237,0.29376 0.940001,0.24353 1.56759,0.3126 2.873147,0.3162 2.555383,0.007 3.070624,-0.14376 6.628159,-1.93994 3.590486,-1.81281 3.90163,-1.88785 4.653201,-1.12216 0.839967,0.85575 7.364399,12.99142 11.506012,21.40158 1.308753,2.65762 1.568984,3.28956 1.629518,3.95714 0.102034,1.12525 -0.228473,2.04653 -1.016646,2.83387 -0.799753,0.79891 -1.674968,1.21127 -2.863392,1.34908 -1.052637,0.12207 -28.899982,0.12076 -31.695355,-0.002 z"
         style="opacity:1;vector-effect:none;fill:#5f2644;fill-opacity:1;stroke:none;stroke-width:0.15109958;stroke-linecap:butt;stroke-linejoin:miter;stroke-miterlimit:4;stroke-dasharray:none;stroke-dashoffset:0;stroke-opacity:1;marker:none;marker-start:none;marker-mid:none;marker-end:none" />
    </g>
  </g>
</svg>
