<?xml version="1.0" encoding="UTF-8" standalone="no"?>
<svg
   xmlns:dc="http://purl.org/dc/elements/1.1/"
   xmlns:cc="http://creativecommons.org/ns#"
   xmlns:rdf="http://www.w3.org/1999/02/22-rdf-syntax-ns#"
   xmlns:svg="http://www.w3.org/2000/svg"
   xmlns="http://www.w3.org/2000/svg"
   xmlns:sodipodi="http://sodipodi.sourceforge.net/DTD/sodipodi-0.dtd"
   xmlns:inkscape="http://www.inkscape.org/namespaces/inkscape"
   height="25.6"
   version="1.1"
   viewBox="0 0 24 24"
   width="25.6"
   id="svg2"
   inkscape:version="0.92.1 r15371"
   sodipodi:docname="paper.svg">
  <metadata
     id="metadata16">
    <rdf:RDF>
      <cc:Work
         rdf:about="">
        <dc:format>image/svg+xml</dc:format>
        <dc:type
           rdf:resource="http://purl.org/dc/dcmitype/StillImage" />
        <dc:title />
      </cc:Work>
    </rdf:RDF>
  </metadata>
  <sodipodi:namedview
     pagecolor="#ffffff"
     bordercolor="#666666"
     borderopacity="1"
     objecttolerance="10"
     gridtolerance="10"
     guidetolerance="10"
     inkscape:pageopacity="0"
     inkscape:pageshadow="2"
     inkscape:window-width="811"
     inkscape:window-height="480"
     id="namedview14"
     showgrid="false"
     inkscape:zoom="9.8333333"
     inkscape:cx="12"
     inkscape:cy="12"
     inkscape:window-x="375"
     inkscape:window-y="240"
     inkscape:window-maximized="0"
     inkscape:current-layer="svg2" />
  <desc
     id="desc6" />
  <defs
     id="defs8" />
  <g
     id="miu"
     style="fill:none;fill-rule:evenodd;stroke:none;stroke-width:1">
    <g
       id="Artboard-1"
       transform="translate(-359,-227)">
      <g
         id="slice"
         transform="translate(215,119)" />
      <path
         d="M 363,228.48889 C 363,228 363.48485,228 363.48485,228 h 11.15151 L 379,232.4 v 17.11111 C 379,250 378.51515,250 378.51515,250 h -15.0303 c 0,0 -0.48485,0 -0.48485,-0.48949 z M 364,249 v -20 h 10 v 3 c 0,1 1,1 1,1 h 3 v 16 z m 2,-18 v 1 h 6 v -1 z m 0,3 v 1 h 10 v -1 z m 0,3 v 1 h 10 v -1 z m 0,3 v 1 h 10 v -1 z m 0,4 h 10 v -1 h -10 z m 0,3 h 10 v -1 h -10 z"
         id="editor-document-file-2-outline-stroke"
         inkscape:connector-curvature="0"
         style="fill:#000000" />
    </g>
  </g>
</svg>
