<?xml version="1.0" encoding="UTF-8" standalone="no"?>
<svg
   xmlns:dc="http://purl.org/dc/elements/1.1/"
   xmlns:cc="http://creativecommons.org/ns#"
   xmlns:rdf="http://www.w3.org/1999/02/22-rdf-syntax-ns#"
   xmlns:svg="http://www.w3.org/2000/svg"
   xmlns="http://www.w3.org/2000/svg"
   xmlns:sodipodi="http://sodipodi.sourceforge.net/DTD/sodipodi-0.dtd"
   xmlns:inkscape="http://www.inkscape.org/namespaces/inkscape"
   id="Layer_1"
   version="1.1"
   viewBox="0 0 512 512"
   xml:space="preserve"
   sodipodi:docname="pdf.svg"
   style="enable-background:new 0 0 512 512;"
   inkscape:version="0.92.1 r15371"><metadata
     id="metadata14"><rdf:RDF><cc:Work
         rdf:about=""><dc:format>image/svg+xml</dc:format><dc:type
           rdf:resource="http://purl.org/dc/dcmitype/StillImage" /><dc:title></dc:title></cc:Work></rdf:RDF></metadata><defs
     id="defs12" /><sodipodi:namedview
     pagecolor="#ffffff"
     bordercolor="#666666"
     borderopacity="1"
     objecttolerance="10"
     gridtolerance="10"
     guidetolerance="10"
     inkscape:pageopacity="0"
     inkscape:pageshadow="2"
     inkscape:window-width="1920"
     inkscape:window-height="1057"
     id="namedview10"
     showgrid="false"
     inkscape:zoom="0.4609375"
     inkscape:cx="154.02137"
     inkscape:cy="-276.26087"
     inkscape:window-x="-8"
     inkscape:window-y="-8"
     inkscape:window-maximized="1"
     inkscape:current-layer="Layer_1" /><g
     id="XMLID_214_"><path
       d="M187.7,329h-11.4v51.3h11.4c5.6,0,10.1-1.9,13.4-5.7c3.3-3.8,5-8.7,5-14.6v-10.7c0-5.9-1.7-10.7-5-14.5   C197.8,330.9,193.3,329,187.7,329z"
       id="XMLID_25_" /><path
       d="M365.6,285.9H40.3v133.9h276.3L365.6,285.9z M143.9,357.2c-4.4,4-10.4,5.9-18.1,5.9h-15.1v26.5H99v-70h26.8   c7.7,0,13.8,2,18.1,6c4.4,4,6.6,9.2,6.6,15.7C150.5,348,148.3,353.2,143.9,357.2z M217.7,360c0,8.8-2.8,15.9-8.3,21.4   c-5.6,5.5-12.8,8.3-21.7,8.3h-23.1v-70h23.1c8.9,0,16.1,2.8,21.7,8.3c5.6,5.5,8.3,12.7,8.3,21.4V360z M278.3,329h-33.1v21.4h28.2   v9.4h-28.2v29.9h-11.7v-70h44.8V329z"
       id="XMLID_20_" /><path
       d="M125.8,329h-15.1v24.7h15.1c4.3,0,7.6-1.2,9.8-3.5c2.2-2.3,3.3-5.2,3.3-8.8s-1.1-6.5-3.3-8.9   C133.4,330.2,130.1,329,125.8,329z"
       id="XMLID_19_" /><path
       d="M352.9,6L352.9,6L107.4,6c-7.3,0-13.3,6-13.3,13.3v256.8h26.6V32.6h232.2v92.2h92.2v354.6H120.7v-49.8H94.1   v63.1c0,7.3,6,13.3,13.3,13.3h351c7.3,0,13.3-6,13.3-13.3V124.8L352.9,6z"
       id="XMLID_18_" /><rect
       height="19.6"
       id="XMLID_17_"
       width="253.4"
       x="156.2"
       y="171.4" /><rect
       height="19.6"
       id="XMLID_16_"
       width="213.3"
       x="156.2"
       y="209.5" /></g><g
     id="g4503"
     transform="translate(0,751.69046)" /></svg>