<?xml version="1.0" encoding="UTF-8" standalone="no"?>
<!-- Created with Inkscape (http://www.inkscape.org/) -->

<svg
   xmlns:dc="http://purl.org/dc/elements/1.1/"
   xmlns:cc="http://creativecommons.org/ns#"
   xmlns:rdf="http://www.w3.org/1999/02/22-rdf-syntax-ns#"
   xmlns:svg="http://www.w3.org/2000/svg"
   xmlns="http://www.w3.org/2000/svg"
   xmlns:sodipodi="http://sodipodi.sourceforge.net/DTD/sodipodi-0.dtd"
   xmlns:inkscape="http://www.inkscape.org/namespaces/inkscape"
   width="512"
   height="512"
   viewBox="0 0 135.46666 135.46666"
   version="1.1"
   id="svg4530"
   inkscape:version="0.92.1 r15371"
   sodipodi:docname="pdf_color.svg">
  <defs
     id="defs4524" />
  <sodipodi:namedview
     id="base"
     pagecolor="#ffffff"
     bordercolor="#666666"
     borderopacity="1.0"
     inkscape:pageopacity="0.0"
     inkscape:pageshadow="2"
     inkscape:zoom="0.7"
     inkscape:cx="-170.77266"
     inkscape:cy="99.715729"
     inkscape:document-units="mm"
     inkscape:current-layer="layer1"
     showgrid="false"
     fit-margin-top="0"
     fit-margin-left="0"
     fit-margin-right="0"
     fit-margin-bottom="0"
     inkscape:window-width="1920"
     inkscape:window-height="1057"
     inkscape:window-x="-8"
     inkscape:window-y="-8"
     inkscape:window-maximized="1"
     units="px"
     width="512mm" />
  <metadata
     id="metadata4527">
    <rdf:RDF>
      <cc:Work
         rdf:about="">
        <dc:format>image/svg+xml</dc:format>
        <dc:type
           rdf:resource="http://purl.org/dc/dcmitype/StillImage" />
        <dc:title></dc:title>
      </cc:Work>
    </rdf:RDF>
  </metadata>
  <g
     inkscape:label="Calque 1"
     inkscape:groupmode="layer"
     id="layer1"
     transform="translate(41.951577,52.023182)">
    <g
       id="g4494"
       transform="translate(4.5155093,0.28341933)">
      <path
         style="opacity:1;vector-effect:none;fill:#b21f1f;fill-opacity:1;stroke:none;stroke-width:0.26458332;stroke-linecap:butt;stroke-linejoin:miter;stroke-miterlimit:4;stroke-dasharray:none;stroke-dashoffset:0;stroke-opacity:1"
         inkscape:connector-curvature="0"
         d="M 3.1952047,34.741314 H 0.17895469 V 48.314439 H 3.1952047 c 1.481667,0 2.672292,-0.502709 3.545417,-1.508125 0.873125,-1.005417 1.322917,-2.301875 1.322917,-3.862917 v -2.831042 c 0,-1.561041 -0.449792,-2.831041 -1.322917,-3.836458 -0.873125,-1.031875 -2.06375,-1.534583 -3.545417,-1.534583 z"
         id="path4491" />
      <path
         style="fill:#b21f1f;fill-opacity:1;stroke:none;stroke-width:0.26458332;stroke-opacity:1"
         inkscape:connector-curvature="0"
         d="M 50.26458,23.337772 H -35.804378 V 58.765477 H 37.299997 Z M -8.3935449,42.202564 c -1.164166,1.058333 -2.7516661,1.561041 -4.7889581,1.561041 h -3.995208 v 7.011462 h -3.095625 V 32.25423 h 7.090833 c 2.037292,0 3.6512501,0.529167 4.7889581,1.5875 1.164167,1.058334 1.74625,2.434167 1.74625,4.153959 0,1.772708 -0.582083,3.148541 -1.74625,4.206875 z m 19.5262499,0.740833 c 0,2.328333 -0.740833,4.206875 -2.1960413,5.662083 -1.481667,1.455207 -3.386667,2.196037 -5.741459,2.196037 h -6.111875 V 32.280689 h 6.111875 c 2.354792,0 4.259792,0.740833 5.741459,2.196041 1.4816663,1.455209 2.1960413,3.360209 2.1960413,5.662084 z m 16.03375,-8.202083 h -8.757708 v 5.662083 h 7.46125 v 2.487083 h -7.46125 v 7.911037 H 15.313122 V 32.280689 h 11.853333 z"
         id="path4493" />
      <path
         style="opacity:1;vector-effect:none;fill:#b21f1f;fill-opacity:1;stroke:none;stroke-width:0.26458332;stroke-linecap:butt;stroke-linejoin:miter;stroke-miterlimit:4;stroke-dasharray:none;stroke-dashoffset:0;stroke-opacity:1"
         inkscape:connector-curvature="0"
         d="m -13.182503,34.741314 h -3.995208 v 6.535208 h 3.995208 c 1.137708,0 2.010833,-0.3175 2.592917,-0.926042 0.582083,-0.608541 0.8731251,-1.375833 0.8731251,-2.328333 0,-0.9525 -0.2910421,-1.719792 -0.8731251,-2.354792 -0.582084,-0.608541 -1.455209,-0.926041 -2.592917,-0.926041 z"
         id="path4495" />
      <path
         style="fill:#6f57a8;fill-opacity:1;stroke-width:0.26458332"
         inkscape:connector-curvature="0"
         d="m 46.904372,-50.719103 v 0 h -64.955208 c -1.931459,0 -3.518959,1.5875 -3.518959,3.518958 v 67.945 h 7.037917 v -64.426041 h 61.43625 v 24.394583 h 24.39458 v 93.82125 h -85.83083 v -13.17625 h -7.037917 v 16.69521 c 0,1.93146 1.5875,3.51896 3.518959,3.51896 h 92.868748 c 1.93146,0 3.51896,-1.5875 3.51896,-3.51896 v -97.34021 z"
         id="path4497" />
      <rect
         style="fill:#376c00;fill-opacity:1;stroke-width:0.26458332"
         height="5.1858335"
         id="rect4499"
         width="67.045418"
         x="-5.139173"
         y="-6.9570217" />
      <rect
         style="fill:#a57300;fill-opacity:1;stroke-width:0.26458332"
         height="5.1858335"
         id="rect4501"
         width="56.435627"
         x="-5.139173"
         y="3.123606" />
    </g>
  </g>
</svg>
